<?xml version="1.0" standalone="no"?>
<!DOCTYPE svg PUBLIC "-//W3C//DTD SVG 1.1//EN" "http://www.w3.org/Graphics/SVG/1.1/DTD/svg11.dtd" >
<svg>
<metadata>
Created by FontForge 20090622 at Wed Sep 28 20:40:18 2016
 By deploy user
FREE FOR PERSONAL USE
</metadata>
<defs>
<font id="GentlemanontheRainbow" horiz-adv-x="133" >
  <font-face 
    font-family="Gentleman on the Rainbow"
    font-weight="400"
    font-style="italic"
    font-stretch="normal"
    units-per-em="1000"
    panose-1="0 0 0 0 0 0 0 0 0 0"
    ascent="750"
    descent="-250"
    x-height="219"
    cap-height="456"
    bbox="-228.667 -275 681 552.211"
    underline-thickness="50"
    underline-position="-50"
    slope="-12"
    unicode-range="U+0020-U+FB02"
  />
<missing-glyph horiz-adv-x="117" 
 />
    <glyph glyph-name=".notdef" horiz-adv-x="117" 
 />
    <glyph glyph-name="zero" unicode="0" horiz-adv-x="371" 
d="M345 401q7 -24 7 -52q0 -37 -8.5 -77.5t-24 -81t-36.5 -78.5t-46 -70l-20 -21t-24.5 -22t-29 -17t-33.5 -7q-11 0 -21 3l-7 1q-26 13 -41.5 29.5t-24 35.5t-11.5 39t-3 40q0 29 4 57t11 53l6 22q6 23 23 58.5t43.5 68.5t62 56.5t78.5 23.5q35 0 60 -17.5t35 -43.5z
M323 313q3 19 3 38v14.5t-2 13.5q0 1 -2.5 8.5t-8.5 16.5t-17.5 15.5t-30.5 5.5q-39 -2 -68.5 -20t-51.5 -44t-37 -58t-23 -63q-7 -25 -12.5 -51.5t-5.5 -48.5v-38t5 -47t17.5 -39.5t36.5 -16.5q18 0 39 15.5t42 41t40 58.5t35 68t26.5 69t14.5 62z" />
    <glyph glyph-name="one" unicode="1" horiz-adv-x="333" 
d="M298 450q8 -7 15 -16t7 -21q0 -7 -3 -14q-3 -9 -17.5 -41l-35 -75.5l-44 -92.5l-44 -92.5t-36.5 -74.5l-20 -39q-4 -7 -14 -7q-8 0 -12.5 10t-4.5 18t5 20l18 37l27.5 56.5l33 68l35 73l33.5 69.5l28 58q4 7 9 18t5 18q0 5 -3.5 5.5t-6.5 0.5q-22 0 -53.5 -29
t-62.5 -70.5t-57 -87t-38 -77.5q-2 -4 -5 -8.5t-9 -4.5q-3 0 -9 0.5t-12 2.5t-10.5 5.5t-4.5 9.5q0 2 2 8q6 19 23 47t40.5 58.5t51 61.5t54.5 55.5t52 40t44 15.5q11 0 19 -6z" />
    <glyph glyph-name="two" unicode="2" horiz-adv-x="417" 
d="M358 434q20 -11 31 -30t11 -49q0 -36 -22 -64q-18 -23 -45.5 -49.5t-57.5 -52.5l-60.5 -50.5l-56 -44l-42 -33t-19.5 -16.5q-7 -6 -7 -10q0 -5 8 -7t19 -3.5t23.5 -1.5h21.5q40 0 77.5 8t57.5 8q6 0 14 -10t8 -23q0 -8 -12.5 -12t-31.5 -5.5t-42 -1.5h-43
q-35 0 -69.5 0.5t-66.5 0.5h-9t-14 2t-12 6t-5 12q0 14 3.5 17.5t4.5 3.5q6 2 27.5 18l50.5 39.5l62 52l64 55l55.5 48.5t35.5 33q21 21 33.5 42.5t12.5 41.5q0 24 -20.5 43t-48.5 19q-13 0 -29 -3t-32 -7.5t-31.5 -10.5l-27.5 -11q-18 -8 -34 -18.5t-24 -10.5
q-3 0 -14.5 9.5t-11.5 21.5q0 11 10 15.5t18 8.5q48 25 83 35.5t70 8.5q47 -2 87 -25z" />
    <glyph glyph-name="three" unicode="3" horiz-adv-x="477" 
d="M456 459q5 -2 5 -11q0 -5 -0.5 -11.5t-5 -16t-14.5 -22t-28 -29.5q-25 -23 -58.5 -41l-68.5 -38q28 0 47 -8.5t30.5 -21t16 -28t4.5 -30.5q0 -9 -1 -13q-9 -56 -35 -95t-56.5 -64t-60.5 -36.5t-47 -12.5q-14 -1 -27.5 -1.5t-27.5 -0.5q-13 0 -31.5 3t-36 10t-30 18.5
t-12.5 28.5q0 6 5 11t11 8q7 4 16 6q5 0 8.5 -3t5.5 -6q12 -23 34 -29t37 -6q59 0 98 20.5t62.5 47.5t33 54t9.5 39q0 25 -20 45.5t-74 20.5q-11 0 -15.5 0.5t-12 -0.5l-22.5 -3t-47 -8q-2 0 -2.5 -0.5t-2.5 -0.5q-9 0 -9 9q0 3 3.5 15.5t14.5 15.5q13 1 42 11.5t65.5 28.5
t75.5 42.5t72 53.5q0 9 -5 9q-57 -6 -113.5 -13.5t-116.5 -7.5q-8 0 -14 10t-6 24q0 9 5.5 13t23.5 4q2 0 18.5 0.5t41.5 1.5t55 2.5t58.5 2.5t52.5 1.5t38 0.5h11v0z" />
    <glyph glyph-name="four" unicode="4" horiz-adv-x="355" 
d="M335 175q3 -9 3 -18q0 -22 -12 -29.5t-25 -10.5q-12 -21 -22 -45.5l-18.5 -45.5t-15.5 -35t-14 -14q-3 0 -8.5 0.5t-11.5 2.5t-10.5 5.5t-4.5 9.5q0 13 17.5 45t37.5 75q-20 0 -42 -0.5t-44 -0.5h-89.5t-43.5 2t-14.5 6.5t-1.5 13.5q0 5 2 11q1 3 2 5q5 2 18.5 18.5
l31.5 40.5l38 53l38.5 57l33.5 52t23 38q8 16 14 32t17 16q3 0 8.5 -0.5t11 -2.5t10 -5.5t4.5 -9.5q0 -3 -8.5 -23.5t-19.5 -42.5q-17 -35 -42.5 -70l-49 -64.5t-41 -49.5t-18.5 -25q7 -1 30 -2t51 -2t56.5 -1.5t46.5 -1.5l13.5 23t9 14t7 6.5t8.5 1.5t15.5 -6.5t10.5 -17.5
q0 -3 -2 -5z" />
    <glyph glyph-name="five" unicode="5" horiz-adv-x="492" 
d="M461 440q2 -5 5.5 -12t3.5 -13q0 -7 -13.5 -12.5t-34 -9.5t-44.5 -6t-46.5 -2t-39 2t-21.5 6q-23 -57 -56 -100q23 3 36 4.5t20 2t9.5 0.5h4.5q21 0 42 -7t37 -20t25.5 -32.5t8.5 -43.5q-2 -58 -28 -98.5t-60 -66.5t-68 -38t-52 -13l-21.5 -1.5t-21.5 -0.5
q-25 0 -53.5 4.5t-44.5 18.5q-9 8 -19 18.5t-10 18.5q0 6 5 11t11 8q7 4 16 6q5 0 8.5 -3t5.5 -6q20 -26 46.5 -29t60.5 -3q28 0 60 14t58 37t43.5 52.5t17.5 60.5q0 27 -21 48.5t-78 21.5q-17 0 -41.5 -4.5t-44.5 -4.5q-11 0 -23 4.5t-14 19.5q0 13 9.5 19.5t21.5 2.5
q23 16 39.5 45t30.5 57q1 0 -5.5 0t-14.5 3t-15 9.5t-7 20.5q0 8 5.5 15t13.5 12t17 8t16 3q12 0 22.5 -5.5t14.5 -19.5q1 -3 7.5 -4.5t14 -2.5t15.5 -1h13h18.5t27.5 2q21 2 40.5 7t33.5 5q9 0 13 -8z" />
    <glyph glyph-name="six" unicode="6" horiz-adv-x="329" 
d="M269 259q21 -18 30.5 -42.5t9.5 -50.5q0 -28 -11 -62t-33.5 -63.5t-55.5 -48.5t-76 -16q-36 0 -59.5 11.5t-37 30t-19 40.5t-5.5 43q0 34 12.5 73.5t54.5 98.5q21 30 49.5 62.5l54.5 59.5t44.5 44.5t20.5 16.5q3 0 14.5 -1.5t11.5 -10.5q0 -5 -12 -18l-60 -70t-61 -76
q17 5 32 6q26 0 51 -5.5t45 -21.5zM270 163q0 19 -4.5 36.5t-14.5 31t-27 21.5t-42 8q-30 0 -52.5 -17.5t-38.5 -43t-24 -54t-8 -49.5q0 -17 4.5 -35t14 -32.5t24 -24t33.5 -9.5q33 0 57.5 14.5t40.5 38t25 53.5t12 62z" />
    <glyph glyph-name="seven" unicode="7" horiz-adv-x="352" 
d="M81 454q16 0 40 0.5t51.5 1t55.5 1.5t51.5 1.5t40 1t20.5 0.5q6 0 6 -4q-1 -6 -9.5 -21l-17.5 -31l-28 -47.5l-43.5 -73.5l-51.5 -86.5l-52.5 -87.5l-47 -76.5l-33.5 -52.5q-2 -3 -6 -0.5t-8 6.5t-6.5 8t-2.5 5q2 9 15 34t32.5 59l43 74.5l47 80.5l45 76l37.5 63
q9 15 9 22q0 5 -3.5 6t-11.5 1q-6 -1 -30 -2.5t-55 -3t-63 -2.5t-53 -1q-18 0 -24 4t-6 12q0 15 6 24.5t14 9.5t17.5 -1t20.5 -1z" />
    <glyph glyph-name="eight" unicode="8" horiz-adv-x="357" 
d="M230 465q22 0 41.5 -7.5t34 -21.5t22 -34.5t4.5 -46.5q-5 -45 -28.5 -71.5t-51.5 -33.5q13 -6 22.5 -18t15.5 -26.5t9 -29.5t3 -28q0 -34 -11.5 -64t-31.5 -52.5t-47 -36t-58 -13.5q-48 0 -76 16t-42.5 38.5t-18 47.5t-3.5 44q0 22 9.5 48t27.5 48.5t44 39t60 20.5
q-14 14 -20 32.5t-6 37.5q0 23 7.5 43t21 35t32 24t40.5 9zM264 151q0 23 -5.5 38.5t-15 26.5t-24 19t-32.5 15q-33 13 -60 3.5t-47 -30t-31 -45t-11 -41.5q0 -51 31 -81.5t73 -30.5q55 0 88.5 32.5t33.5 93.5zM302 332q6 15 2 33t-14.5 32.5t-28 22t-38.5 2.5
q-26 -7 -41 -24t-15 -43q0 -9 2.5 -21t7.5 -24t12.5 -21t16.5 -10l25 -2t25.5 3t24.5 16t21 36z" />
    <glyph glyph-name="nine" unicode="9" horiz-adv-x="327" 
d="M230 453q33 0 52 -14t27.5 -36t8 -50t-5.5 -56q-5 -24 -16 -44.5l-22 -40.5q-22 -39 -58 -79.5t-72.5 -73.5t-67.5 -54t-43 -21q-9 0 -13 13q-2 5 -3 13q0 4 8.5 10.5t20.5 14.5l26 17.5t26 21.5q36 32 65 68t55 74q-18 -8 -39.5 -13.5t-42.5 -5.5q-23 0 -38.5 10.5
t-25.5 25.5t-14 33t-4 33q0 37 14.5 65.5t38.5 48t56 30t67 10.5zM248 298q8 12 15 31t7 37t-9.5 30.5t-33.5 12.5q-23 0 -47 -6.5t-43.5 -20t-32 -35t-12.5 -51.5q0 -26 12 -43.5t35 -17.5q28 0 56.5 12.5t52.5 50.5z" />
    <glyph glyph-name="A" unicode="A" horiz-adv-x="433" 
d="M44 139q-17 -2 -23.5 1t-8.5 8q-3 5 0 13l112.5 15.5l122.5 16.5l87.5 90.5l80.5 83l60 62l27 27.5q14 15 33 5q1 -1 5.5 -3t5.5 -3q9 -6 15.5 -11.5t-4.5 -18.5q-10 -11 -26.5 -34.5l-37 -54.5l-42.5 -66.5l-43 -69.5q8 -1 11 -10.5t-6 -11.5h-18l-40.5 -70.5
t-23.5 -47.5q-4 -9 -6.5 -20t-0.5 -23q1 -6 14 1t28 19t28 23.5t15 13.5q3 2 5.5 6t4.5 8t5.5 7t8.5 3q9 0 11 -7.5t-3 -12.5l-46 -40t-51 -37q-12 -9 -21 -10.5t-15 1t-10 7t-6 7.5q-3 7 -1 21t8.5 33t17 41.5l22.5 46.5q1 3 3.5 8t5 9.5t4 7.5l1.5 3l-35.5 -4l-36.5 -4
l-83.5 -90.5t-75.5 -94.5q-8 -12 -18 -20q-8 -7 -14 -7t-11.5 3.5t-9.5 9t-7 8.5q-8 7 -4.5 12.5t6.5 9.5q21 18 38.5 38l34.5 41t36 41.5t42 40.5l-86 -10.5zM455 361q1 1 -11 -11.5l-32.5 -35l-47 -52.5l-54.5 -62q31 4 60 6l28 51l25.5 45.5l20 36t11.5 22.5z" />
    <glyph glyph-name="B" unicode="B" horiz-adv-x="347" 
d="M33 12q-21 6 -21 21q0 6 11 31.5t28 61l38 77.5l40.5 80.5l35 69.5l22.5 45q2 4 -2 5t-11 0t-14 -3t-10 -3q-15 -4 -29.5 -10.5l-27.5 -12.5l-23 -10.5t-16 -4.5q-11 0 -13.5 12t-2.5 20q0 5 18 13.5t42.5 17t51 16t43.5 11.5q47 11 89 11q37 0 68 -7.5t53.5 -21.5
t35.5 -34t13 -45q0 -40 -26 -74t-65 -61t-84 -46.5t-83 -28.5q12 -3 25 -8.5t24.5 -14t19 -19.5t7.5 -24q0 -8 -3 -14.5t-8 -12.5q-5 -7 -19.5 -18.5t-38 -23t-55.5 -19.5t-71 -8q-21 0 -42 2.5t-21 11.5q0 8 8 8q7 0 18.5 -2t29.5 -2q21 0 50 7t56 18t45.5 26t18.5 32
q0 15 -23 32t-60 17q-18 0 -36 -5t-28 -16q-7 -11 -14 -27.5l-13.5 -32t-13 -27t-12.5 -11.5q-3 0 -5 1zM123 188q-4 -7 -4 -13q0 -10 20 -10q21 0 50 7.5t60.5 20t62 30.5t54.5 38.5t39 43.5t15 47q0 19 -9.5 33t-24.5 23.5t-33 14t-36 4.5q-41 0 -62 -7.5t-28 -21.5
l-40 -80l-34.5 -69z" />
    <glyph glyph-name="C" unicode="C" horiz-adv-x="240" 
d="M243 47q-13 -19 -31.5 -31.5t-37.5 -20t-36 -10.5t-26 -3q-26 0 -45 10t-31 26.5t-17.5 37t-5.5 41.5q0 44 19 88t51 84.5t73 75.5t85 60.5t88 40t81 14.5q1 0 6.5 0.5t11.5 -2t10.5 -10.5t4.5 -24q0 -11 -9.5 -13.5t-28 -3.5t-45.5 -5t-62 -17q-41 -16 -85 -45
t-80.5 -68t-60.5 -86.5t-24 -100.5q0 -48 19 -67.5t45 -19.5q28 0 55.5 10.5t48.5 35.5q5 5 8 14t12 9q13 0 11 -10q-1 -4 -4 -10z" />
    <glyph glyph-name="D" unicode="D" horiz-adv-x="402" 
d="M22 -2q-3 -5 -6 -5q-5 0 -9 6t-4 14q0 3 1 5q11 30 33.5 77.5l48.5 101l52 107.5t45 98v1q0 1 -3 1q-5 0 -14.5 -1.5t-21.5 -4.5l-25 -6.5t-23 -7.5l-19.5 -6.5t-19.5 -3.5q-11 0 -13.5 7t-2.5 15q-1 20 11.5 25.5t36.5 11.5q42 12 86 17.5t90 5.5q44 0 75.5 -12.5
t51.5 -34.5t29 -50.5t9 -59.5q0 -37 -11.5 -75.5t-32.5 -72.5q-31 -50 -70 -83t-80 -52.5t-80 -27.5t-69 -8q-29 0 -46 5t-19 13zM42 32q-2 -5 -3 -8.5t-1 -6.5q0 -11 12.5 -16.5t44.5 -5.5q28 0 63 11t69.5 30t64.5 45.5t48 57.5q29 51 41 90t12 68q0 39 -16.5 63t-38 37
t-43.5 17.5t-33 4.5q-14 0 -23.5 -4t-17.5 -21q-16 -36 -40 -83.5l-49.5 -97.5l-49.5 -97.5t-40 -83.5z" />
    <glyph glyph-name="E" unicode="E" horiz-adv-x="296" 
d="M40 -17q-12 8 -22 27.5t-10 51.5q0 29 9 60.5t28 57t49 42t72 16.5q-12 1 -25 5t-23.5 10.5t-17.5 16.5t-7 24q0 33 18 57.5t46.5 42.5t62.5 29t66 18t57 9.5t36 2.5q8 0 14.5 -10t6.5 -24q0 -11 -13.5 -13.5t-27.5 -2.5q-33 0 -74 -7t-77 -21t-60 -34t-24 -47
q0 -8 6.5 -13t22.5 -9.5t42.5 -8.5l66.5 -10l19.5 -3.5t8.5 -7.5q0 -8 -10.5 -10.5t-13.5 -1.5q-10 3 -40 4t-64.5 -6t-66.5 -25.5t-47 -55.5q-6 -14 -10 -34.5t-2 -40.5t12 -37t34 -24q29 -9 61.5 1.5t60.5 30.5q14 10 26 20t23 17q6 4 16 -1t18 -17q7 -12 -6.5 -21.5
l-27.5 -18.5q-16 -10 -42 -23t-56 -22t-60 -9.5t-55 15.5z" />
    <glyph glyph-name="F" unicode="F" horiz-adv-x="166" 
d="M22 -46q-7 3 -10.5 10.5t-3.5 16.5q0 4 8.5 22.5l23 49l34 71.5l42.5 89q-13 -2 -22 -2.5t-12 -1.5q-14 0 -18 9.5t-4 20.5q0 5 2 8.5t10 4.5q3 -1 8.5 -4t25.5 -3q5 0 12 0.5t15 1.5q4 9 14 27.5l20.5 39.5t18.5 39t10 25q-29 -3 -57.5 -6.5t-55.5 -3.5q-8 0 -18.5 0.5
t-21 3.5t-17.5 9.5t-7 19.5q0 3 1.5 8t3.5 10t5.5 9t7.5 4q5 0 6 -5t1 -9v-2v-1l1 -1q3 -6 13 -8.5t23 -2.5t25.5 1t21.5 2q67 8 136 19t140 29q5 2 9.5 4t9.5 2q7 0 12.5 -10.5t5.5 -21.5q0 -8 -6.5 -14.5t-14.5 -6.5l-7 -1q-15 -3 -42 -6.5t-54 -6.5t-47 -6t-21 -5
l-15 -31l-16.5 -34.5l-16.5 -33.5l-14 -28q5 2 11 3t11 1q8 0 9.5 -6t1.5 -10q0 -11 -10 -15.5t-44 -9.5l-42.5 -85.5l-39 -79.5l-29.5 -61t-16 -32t-14 -7q-2 0 -3 1z" />
    <glyph glyph-name="G" unicode="G" horiz-adv-x="449" 
d="M27 -10q-13 15 -17.5 32.5t-4.5 38.5q0 42 27 86.5t68 85.5t90 77.5t93 62.5q25 15 52.5 29t54.5 25.5t52.5 18.5t46.5 7q13 0 22.5 -4.5t9.5 -21.5v-7l-3 -3l-44 -60.5t-38 -48.5q-10 -10 -19 -21.5l-16.5 -21t-14 -16t-11.5 -6.5q1 0 -4 1t-11.5 4t-12 7.5t-5.5 10.5
q0 7 11 20.5t28 31l38 38.5t41 44q-13 0 -31 -5q-69 -18 -140.5 -62.5t-143.5 -103.5q-10 -8 -27.5 -26t-34 -41t-29 -49t-12.5 -50q0 -9 2 -21.5t10.5 -23t25.5 -18t48 -7.5q47 0 85 8.5t67 22.5t49 31.5t31 36.5q-40 -3 -68 -8t-48 -9.5t-33.5 -8t-24.5 -3.5t-14.5 5
t-3.5 13q0 21 6 26t14 5q19 1 50.5 4l65.5 6.5l65.5 6.5t51.5 3q22 0 22 -12q0 -7 -6.5 -17.5t-13.5 -10.5q-3 0 -6 1.5t-6 1.5q-10 -1 -11 -1t-10 -1q0 -1 1 -10.5t-5 -15.5q-44 -46 -99 -71.5t-107 -33t-93.5 0t-59.5 27.5z" />
    <glyph glyph-name="H" unicode="H" horiz-adv-x="515" 
d="M52 59q-8 0 -21.5 3t-13.5 15q0 8 18 34t47.5 62.5t67.5 78l76.5 80t75.5 69.5t65 46q8 4 16 6.5t16 2.5q14 0 27 -13.5t13 -29.5v-6.5t-2 -7.5q-3 -8 -16 -37.5l-32.5 -71l-42.5 -89l-45 -92.5l73.5 12.5t60.5 8.5q1 3 3.5 8t9 21t20 45.5l36.5 82.5q8 11 17 11
q8 0 17 -9.5t9 -17.5t-7 -18q-22 -31 -39.5 -65t-31.5 -69q2 -3 2 -11q0 -10 -3 -13t-6 -3h-3q-1 -3 -5.5 -15t-8.5 -25.5t-4.5 -25t6.5 -12.5q13 0 24 10.5t19 23t14 23.5t11 12q3 0 7 -3.5t4 -7.5q0 -6 -2 -8q-3 -4 -13 -16.5t-22.5 -26.5t-26 -25t-23.5 -11q-12 0 -18 6
t-8.5 14t-3 16t-0.5 13q0 26 11 56q-46 -6 -81 -13t-61 -14l-12.5 -32.5t-15.5 -38t-15 -32t-12 -13.5q-3 0 -9 0.5t-12 2t-10.5 5t-4.5 9.5q0 9 2 15.5t6.5 15t11.5 20.5t16 30q-3 0 -4.5 -0.5t-3.5 -0.5q-12 0 -15.5 10.5t-3.5 20.5q0 7 2.5 10.5t8.5 5.5t16 3.5t26 5.5
l47.5 96.5l50.5 101.5t40 83t16 42q0 5 -8 5t-18.5 -5.5t-19.5 -11.5q-16 -11 -42 -35.5l-56.5 -56t-61.5 -67.5l-58 -70t-46.5 -63t-25.5 -47q-2 -5 -5 -9t-10 -4z" />
    <glyph glyph-name="I" unicode="I" horiz-adv-x="256" 
d="M46 146q-8 2 -20 4t-12 14q0 2 2 8q8 21 28 50.5t47 61t58.5 62.5t61.5 55.5t56.5 39.5t43.5 15q14 0 27 -13t13 -31q0 -8 -2 -13q-3 -8 -16.5 -37.5l-32 -69.5l-40.5 -86l-41.5 -88l-35 -75.5t-21.5 -48.5q-2 -5 -5 -14.5t-13 -9.5q-3 0 -9 0.5t-12 2t-10 5.5t-4 10
q0 8 4 16t8 15q9 20 27 56.5l39.5 80l44 89l41 83.5l30.5 64t12 31q0 4 -4 5t-6 1q-11 0 -31 -13.5t-44 -36t-50 -51.5t-49 -59t-41 -58.5t-26 -51.5q-2 -5 -5 -9t-10 -4h-3v0z" />
    <glyph glyph-name="J" unicode="J" horiz-adv-x="426" 
d="M328 33q-43 -43 -89 -70.5t-86.5 -43.5t-71 -22.5t-43.5 -6.5q-6 0 -15 10t-9 24q0 15 24 19t64 12t90.5 27t104.5 64q13 11 32.5 38t41 62t42.5 75.5t38 78.5t27.5 70.5t10.5 52.5q0 4 -3.5 5t-6.5 1q-8 0 -17.5 -6l-18.5 -12q-16 -11 -42 -35t-56 -56l-61.5 -68
t-58.5 -70t-46.5 -63t-25.5 -47q-2 -5 -5 -9t-10 -4q-3 0 -8.5 0.5t-11.5 2.5t-10.5 5.5t-4.5 9.5q0 8 6.5 19.5l11.5 20.5q12 21 36.5 50.5t55.5 63l65.5 68t67.5 64t61 52t47 32.5q7 4 15 6.5t16 2.5q14 0 27.5 -13t13.5 -30q0 -7 -3 -14q-5 -15 -16.5 -43.5t-27.5 -63.5
l-35 -73t-39 -73.5t-40 -65.5t-37 -47z" />
    <glyph glyph-name="K" unicode="K" horiz-adv-x="498" 
d="M49 51q-8 2 -20 4t-12 14q0 2 2 8q4 10 23 38.5t47 65l62.5 78.5t69.5 79.5t67 66.5t56 42q8 4 16 6.5t16 2.5q14 0 27 -13t13 -31q0 -8 -2 -13q-2 -6 -11 -25.5l-21.5 -47.5l-29 -62l-33.5 -70l53.5 58.5l50.5 54.5l38.5 41.5t17.5 19.5q7 7 13 7q8 0 20.5 -9t12.5 -16
q0 -5 -6 -12l-75.5 -66.5t-77.5 -73.5q-4 -6 -4 -10q0 -2 2 -6q29 -69 57.5 -108.5t38.5 -39.5q9 0 13 8.5t7 19t6 19.5t9 9q5 0 9 -2.5t4 -8.5q0 -5 -4.5 -17.5t-12 -26t-17.5 -24t-20 -10.5q-18 0 -37 20t-35.5 46.5t-29 51.5t-16.5 34q-1 0 -2 1q-1 0 -2 0.5t-2 0.5
q-7 0 -18 -11.5t-22 -26t-19.5 -27.5t-9.5 -16q-8 -11 -14.5 -29l-13 -35t-13.5 -29t-14 -12q-3 0 -8.5 0.5t-11 2t-10 5t-4.5 9.5q0 1 2.5 9.5t4.5 12.5l19 39.5l30 60.5l36 72.5l37.5 76l35 71.5l28.5 59q4 7 9.5 18.5t5.5 17.5q0 4 -3.5 4.5t-6.5 0.5q-8 0 -17.5 -5.5
t-18.5 -11.5q-16 -11 -40.5 -36t-52 -57.5t-55.5 -69.5l-52.5 -72t-42.5 -64.5t-24 -47.5q-2 -5 -5 -9t-10 -4h-3v0z" />
    <glyph glyph-name="L" unicode="L" horiz-adv-x="313" 
d="M412 -72q-20 2 -54 6l-69.5 8.5l-65.5 8t-41 3.5q-5 0 -7 -0.5t-5 -0.5q-10 0 -10 6q0 2 1.5 8t3.5 12.5t4.5 13t4.5 8.5l19 38.5l29.5 61l35.5 74.5l38 78.5l36 73.5l29 60l9.5 19t5.5 17q0 4 -3.5 4.5t-6.5 0.5q-8 0 -17.5 -5.5t-18.5 -11.5q-17 -11 -41 -36
t-51.5 -57.5l-56 -69.5t-52.5 -72t-42 -64.5t-24 -47.5q-2 -5 -5 -9t-10 -4q-3 0 -8.5 0.5t-11.5 2.5t-10.5 5.5t-4.5 9.5q0 2 2 8q4 10 23 38.5t47 65l62.5 78.5t69.5 79.5t67 66.5t56 42q7 4 15.5 6.5t16.5 2.5q9 0 17.5 -5.5t14.5 -14t8 -18.5t-2 -19l-14 -31.5
l-27.5 -59.5l-36 -77l-40 -83.5l-39 -79l-31.5 -64.5q0 -5 6.5 -9.5t22.5 -8.5t42 -7t64 -5h42.5t31.5 3q8 0 16 -6t8 -28q0 -8 -6 -12t-23 -4q-9 0 -14 1z" />
    <glyph glyph-name="M" unicode="M" horiz-adv-x="472" 
d="M350 102q-6 -11 -13.5 -28.5t-16 -35t-15.5 -30t-11 -12.5q-1 0 -5.5 0.5t-9 2t-8 4t-3.5 7.5q0 4 2.5 8t4.5 9q27 56 52 115.5l52 119.5q2 4 2 7q0 2 -0.5 3.5t-0.5 3.5q-4 -3 -7 -5.5t-6 -5.5q-26 -27 -44 -51.5t-31.5 -48t-24 -46t-22.5 -44.5h1q-7 -11 -12.5 -25
t-11 -26t-11 -20t-12.5 -8q-5 0 -17.5 3.5t-12.5 14.5q0 7 3.5 15t8.5 15q10 18 31 60.5l45.5 93.5l49.5 102.5l43 88.5q4 8 9 19t5 18q0 4 -3.5 4.5t-6.5 0.5q-8 0 -17.5 -5.5t-18.5 -11.5q-16 -11 -40.5 -36t-52 -58l-55.5 -70l-52.5 -72t-42.5 -64.5t-24 -47.5
q-2 -3 -4.5 -8t-9.5 -5q-2 0 -7.5 0.5t-11.5 2.5t-11 6t-5 10q0 2 2 8q3 10 21.5 38t46.5 65t63 78.5t70 79t67 67t56 42.5q8 4 16 6.5t16 2.5q15 0 27.5 -13.5t12.5 -29.5q0 -6 -9.5 -31t-37.5 -84q0 -2 1 -2q7 8 15 14l14.5 10t15.5 5q16 0 18.5 -12.5t2.5 -22.5
q-9 -27 -21.5 -53.5l-24.5 -52.5v-2q1 1 13.5 15.5l27 31t28 30t16.5 14.5q16 3 20 -5.5t4 -16.5q0 -6 -5 -12q-12 -17 -26 -45.5t-26 -58.5t-20 -56.5t-8 -38.5q0 -4 1.5 -8.5t5.5 -4.5q8 0 20.5 11t22.5 23q4 2 6.5 6.5t4.5 9.5t5 8.5t8 3.5q4 0 7 -3.5t3 -6.5q0 -6 -3 -9
q-5 -5 -16 -17.5l-23 -25t-24.5 -22t-20.5 -9.5q-7 0 -11.5 5.5t-6.5 13.5t-3 16.5t-1 13.5q0 19 5.5 40.5t12 41l12 35.5t5.5 25l-29 -43.5t-29 -44.5z" />
    <glyph glyph-name="N" unicode="N" horiz-adv-x="407" 
d="M396 402q-3 -8 -15.5 -35l-29.5 -65q0 -2 1 -2l4 4.5t10 9.5t14 10t15 5q13 0 20.5 -6t11.5 -14t5.5 -17t1.5 -13q-3 -9 -11.5 -29l-20 -45.5l-24.5 -53.5l-23.5 -52.5t-17.5 -43t-7 -24.5t7 -6q5 0 12.5 5t9.5 7q7 6 13.5 13.5t17.5 26.5q3 5 6.5 15t10.5 7
q8 -4 7 -11.5t-4 -14.5l-15 -18l-15.5 -18l-15.5 -19q-2 -1 -12 -9.5t-27 -8.5q-13 0 -23.5 6t-10.5 23q0 13 11 44t25.5 66.5l29 69t22.5 53.5q0 2 0.5 3.5t0.5 3.5q0 4 -1 7q-37 -37 -65.5 -78.5t-52.5 -86.5q-12 -22 -20.5 -42.5t-16 -36.5t-14.5 -25.5t-15 -9.5
q-6 0 -17.5 3.5t-11.5 14.5q-1 6 4 15t10 17q11 20 32 62.5l45 92.5l48 100.5l42 86.5l9.5 19.5t5.5 17.5q0 4 -3.5 4.5t-6.5 0.5q-8 0 -17.5 -5.5t-18.5 -11.5q-16 -11 -40.5 -36t-52 -57.5t-55.5 -69.5l-52.5 -72t-42.5 -64.5t-24 -47.5q-2 -4 -5 -9t-9 -5q-2 0 -8 0.5
t-12 2.5t-11 6t-5 10q0 2 2 8q4 10 23 38.5t47 65l62.5 78.5t69.5 79.5t67 66.5t56 42q8 4 16 6.5t16 2.5q14 0 27 -13t13 -31q0 -8 -2 -13z" />
    <glyph glyph-name="O" unicode="O" horiz-adv-x="322" 
d="M236 291q0 21 10.5 47t26 49.5t34.5 40.5t37 19q24 -1 32 -22t7 -49t-8 -55.5t-12 -41.5q9 0 21.5 -7t12.5 -14q0 -4 -15.5 -8t-30.5 -4q-12 -29 -28.5 -60.5t-37.5 -61.5t-46 -57t-53 -47q-4 -4 -14.5 -9.5t-22.5 -10.5t-24.5 -9t-20.5 -4q-51 -2 -74 27.5t-23 72.5
q0 18 2.5 36t6.5 33t7.5 26.5t6.5 17.5q23 50 48.5 88.5t54.5 72.5l28 30t32.5 31.5t31 24.5t23.5 10q17 1 21.5 -6t4.5 -18q0 -4 -4 -13.5t-26 -16.5q-84 -53 -160 -179q-16 -26 -32.5 -61.5t-16.5 -71.5q0 -11 2 -26.5t9 -29.5t20 -23.5t35 -9.5q25 0 51.5 18.5t50.5 45
t43 55t30 49.5q20 39 33 70q-2 0 -4.5 -0.5t-4.5 -0.5q-23 0 -43.5 12t-20.5 40zM329 398q-1 0 -1 -1q-12 -12 -23 -27t-19.5 -30t-13.5 -28.5t-5 -23.5q2 -10 10 -13.5t19 -3.5q7 0 13.5 0.5t11.5 1.5q15 46 15 85q0 11 -1 21.5t-6 18.5z" />
    <glyph glyph-name="P" unicode="P" horiz-adv-x="357" 
d="M203 449q18 4 44.5 7t55 2t57 -7t51.5 -18t37 -32t14 -49q0 -30 -18 -59t-47 -54t-66.5 -46t-76.5 -36t-77 -23.5t-68 -8.5q-6 -10 -16 -33t-21.5 -47t-21.5 -42t-15 -18q-2 0 -7.5 0.5t-10.5 2.5t-9 5.5t-4 9.5q0 9 5.5 18.5l10.5 18.5q5 11 18.5 38.5l31 63l37 75.5
l37.5 76l32 64.5t21 41.5q0 3 -1.5 4.5t-9.5 -0.5q-24 -5 -42 -12.5t-31.5 -14.5l-23 -12t-16.5 -5q-4 0 -14 9t-10 19q0 7 17.5 16t41.5 18t50.5 16.5t44.5 11.5zM277 422q-15 -4 -25 -8t-15 -15l-40 -80l-34.5 -69.5l-29.5 -61.5q-4 -7 -4 -13q0 -10 19 -10q20 0 49 7
t60 20t62 30.5t55.5 38.5t40 44t15.5 48q0 28 -16 43t-39.5 22t-50 7t-47.5 -3z" />
    <glyph glyph-name="Q" unicode="Q" horiz-adv-x="334" 
d="M373 301q-7 -24 -18.5 -54t-28 -61.5t-37.5 -62t-47 -55.5q16 -6 29 -14q23 -16 30.5 -24.5t10.5 -17.5q0 -2 -0.5 -7t-2 -10.5t-4.5 -10t-8 -4.5q-3 0 -7 10.5t-15 19.5q-4 3 -18.5 15.5t-37.5 16.5q-8 0 -16 -5l-19.5 -15t-25 -17.5t-28.5 -15t-31 -6.5q-25 0 -41.5 9
t-27 24t-15 34t-4.5 39q0 18 3 35.5t6.5 32.5t7.5 26.5t7 17.5q13 30 38 73.5t56.5 84.5t66.5 70t68 29q6 0 11.5 -5.5t5.5 -19.5q-1 -5 -5 -9q-6 -9 -29 -22q-27 -15 -59.5 -45.5t-62 -69.5t-52.5 -84.5t-32 -91.5q2 2 5 2t5 -7.5t6.5 -16t14.5 -16t31 -7.5q23 0 49 5t58 5
q37 43 60 79.5t36.5 75.5t18.5 84t5 105q0 8 8.5 13.5t21.5 5.5q11 0 15 -18.5t4.5 -42.5t-2 -46.5t-4.5 -30.5zM106 4q21 0 38.5 11t35.5 28q-18 0 -37 -4.5t-39 -4.5q-18 0 -34 6.5t-27 17.5q5 -20 18.5 -37t44.5 -17z" />
    <glyph glyph-name="R" unicode="R" horiz-adv-x="348" 
d="M25 367q3 8 25.5 21.5t57.5 27t79.5 24t92.5 12.5q37 2 67.5 -5.5t52.5 -22t34 -35t12 -45.5t-11.5 -47t-30.5 -41t-42 -35t-45 -29q-8 -5 -27 -13l-39.5 -16.5l-36 -15l-15.5 -6.5q0 -3 4 -8q13 -20 34 -46t44.5 -49t47 -39t42.5 -16q-2 -11 -11.5 -18t-20.5 -7
q-20 0 -45.5 18.5t-51.5 44.5t-50.5 54l-40.5 46q-5 5 -18 8.5t-17 3.5q-11 0 -22.5 -18t-22 -41.5l-19.5 -45.5t-15 -29q1 0 -6.5 -7.5t-15.5 -5.5q-20 7 -22 14.5t0 14.5l1 1q3 7 16 34.5l32 64.5l40.5 80l41 82.5l35 70l22.5 43.5q0 4 -0.5 5t-7.5 1q-23 -4 -43 -13.5
t-36.5 -19.5l-28 -17.5t-16.5 -7.5q-2 0 -7 2.5t-9.5 6.5t-7 9t-0.5 10zM261 414q-15 -4 -23.5 -8t-13.5 -15l-37 -76l-31.5 -67l-28.5 -60q-6 -11 -6 -15q0 -8 16 -8q21 0 50 6.5t59.5 18.5t60.5 28.5t54 36.5t38.5 43t14.5 47q0 27 -16 42.5t-39 22.5t-50 7t-48 -3z" />
    <glyph glyph-name="S" unicode="S" horiz-adv-x="367" 
d="M361 70q-10 3 -14 4t-6 2l-3 1.5t-4 1.5q-1 0 -2 -0.5t-4 -4.5q-40 -44 -77 -69t-87 -25q-15 0 -41.5 5.5t-52 16t-44 25.5t-18.5 35q0 13 15.5 22.5t38.5 15t51 8t53 2.5q37 0 70.5 -2t65.5 -6q0 20 -8 36t-21.5 29.5t-32 25t-38.5 22.5l-23.5 14t-40 26t-41 30.5
t-28.5 26.5q-21 25 -21 54q0 25 15.5 43t41.5 28.5t59.5 15.5t69.5 5q9 0 30 -3t46.5 -7.5t52.5 -11t49.5 -13.5t37 -14.5t14.5 -14.5q0 -10 -8.5 -20.5t-13.5 -8.5q-62 21 -104.5 33t-71.5 17t-46.5 6t-28.5 1q-18 0 -37 -3.5t-34.5 -11t-25 -19.5t-9.5 -28q0 -19 12 -31.5
t26 -23.5q2 -2 12 -8.5l24 -15l30 -17.5t30 -16q17 -9 38 -22t39 -31.5t30.5 -41.5t12.5 -51q0 -2 -0.5 -3.5t-0.5 -3.5q11 -4 12 -4t9 -2q5 -2 9.5 -2.5t4.5 -5.5q0 -6 -3.5 -9.5t-8.5 -1.5zM290 84q-42 3 -83 3q-20 0 -48 -0.5t-54 -3t-44 -7t-16 -12.5q1 -5 13 -13
t29 -15.5t36.5 -13t34.5 -5.5q35 0 71 16.5t58 46.5z" />
    <glyph glyph-name="T" unicode="T" horiz-adv-x="147" 
d="M406 406q-12 -2 -33 -4l-44 -4t-45 -5.5t-35 -8.5q-2 0 -7.5 -10.5l-9.5 -18.5q-21 -43 -40.5 -79l-39.5 -71l-39.5 -82l-36 -75l-28.5 -58t-16 -30q-2 -2 -6 -4.5t-8 -2.5q-8 0 -12.5 10t-4.5 18t5 20l18.5 37l28 58l34 71l37 75.5l35 72.5l29.5 61q1 1 1 2
q-28 -3 -56.5 -6.5t-56.5 -3.5q-6 0 -16.5 0.5t-21 3.5t-18.5 9.5t-8 19.5q0 9 5.5 20t13.5 11q5 0 5.5 -5t0.5 -8v-3v-1l1 -1q3 -7 10 -10t13 -3q31 0 72.5 3.5t88.5 11t96 18.5t94 26q8 0 15.5 -7.5t7.5 -24.5q0 -13 -8 -16l-13 -5l-8 -1v0z" />
    <glyph glyph-name="U" unicode="U" horiz-adv-x="579" 
d="M54 72q-2 -5 -5 -9t-10 -4t-21 3.5t-14 14.5t8 22q9 20 32.5 51t55 66l67.5 71.5t71 68.5t65.5 56.5t50.5 35.5q16 8 32 8q14 0 27 -13.5t13 -29.5v-6.5t-2 -7.5q-4 -12 -19 -46l-34 -75l-38 -81l-31 -64q-9 -23 -14.5 -46t-5.5 -36q0 -21 10 -29t23 -8q14 0 30 6
t29.5 13.5t23 13.5l9.5 6q23 20 41.5 38.5t28.5 39.5l36 79t25 65q4 9 10 26t13 34t15.5 30t19.5 13q8 0 21.5 -5.5t13.5 -16.5q0 -9 -9 -20.5t-20 -31.5l-43 -86.5l-40 -83t-29 -66.5t-11 -38q0 -3 0.5 -7.5t2.5 -4.5q4 0 13.5 6t20 15t21 19t16.5 18h1q-1 -2 1.5 2l6 10
t8.5 11.5t9 6.5q5 0 8 -5t3 -7q0 -5 -3 -8q-20 -17 -37.5 -33.5l-32 -30t-26 -22t-18.5 -8.5q-14 0 -17 11t-3 16q0 10 2.5 23.5t7.5 30.5q-36 -36 -65 -55.5t-48.5 -28t-29.5 -9.5t-9 -1q-10 0 -21.5 1.5t-21.5 10t-17 25t-7 46.5q0 14 5 42t26 69q19 37 43.5 92.5
t56.5 121.5q4 7 8 18.5t4 18.5q0 5 -7 5q-8 0 -17.5 -5.5t-18.5 -11.5q-16 -11 -42 -35.5t-56.5 -56.5t-61.5 -68l-58 -70t-46.5 -63t-25.5 -47z" />
    <glyph glyph-name="V" unicode="V" horiz-adv-x="282" 
d="M4 118q0 22 9 55.5t24.5 71.5t35 76t40 68.5t40.5 49.5t36 19q14 0 28.5 -12t14.5 -31q0 -6 -2.5 -36t-6.5 -72l-9 -91l-10 -94l77.5 163t33.5 57q1 0 6.5 -1.5t12 -5t12 -9t5.5 -12.5q0 -3 -2 -9l-50 -78q-1 0 -8.5 -15l-19.5 -38t-25 -50.5l-25 -53.5l-20.5 -46
t-9.5 -27q-1 -5 -1 -11.5t-7 -6.5q-14 0 -23.5 12t-9.5 28v5q3 21 7.5 64.5l10 96l11 106.5t11.5 95q1 6 2 14.5t1 16.5q0 12 -4 12q-12 0 -26.5 -16t-29.5 -42.5t-29 -60t-25 -67.5t-18 -66t-7 -56q-2 -9 -6.5 -15t-26.5 -6q-7 0 -12 3.5t-5 14.5z" />
    <glyph glyph-name="W" unicode="W" horiz-adv-x="463" 
d="M154 437q8 8 18 14.5t20 6.5q14 0 29 -12.5t15 -32.5q0 -9 -2.5 -39.5t-7 -71.5l-9.5 -88.5l-10 -90.5l38.5 82.5l38 80.5l29.5 62.5t14 28.5q4 8 10 8q-2 0 2 0t10 -3t11.5 -10t5.5 -20q0 -5 -0.5 -12t-0.5 -17q0 -4 -1 -32t-2 -67l-2 -82t-1 -77l39.5 87l40.5 88
q5 11 11 26t13 29.5t15.5 26t17.5 16.5q4 1 10 -0.5t12 -5t10 -8.5t4 -11q0 -7 -4 -10.5t-6 -6.5l-4 -6l-16 -26t-15 -26l-23.5 -41.5l-20.5 -36.5t-25 -49.5l-37 -79.5q-10 -21 -17 -38.5t-16 -15.5q-3 1 -8.5 2t-11 3.5t-9.5 5.5t-4 7v31t1 68t1.5 86.5t2.5 87.5
q-4 -6 -14.5 -27l-24 -48.5l-28.5 -59l-27.5 -59.5t-21 -49t-9.5 -28q-2 -5 -2 -11.5t-7 -6.5q-13 0 -23 12t-10 28v5q3 21 7.5 64.5l10 96l11 106.5t11.5 95q1 6 2 14.5t1 16.5q0 12 -4 12q-12 0 -26.5 -16t-29.5 -42.5t-29 -60t-25 -67.5t-18 -66t-7 -56q0 -9 -6.5 -15
t-26.5 -6q-7 0 -12 3.5t-5 14.5q0 33 14 77.5t36 90t48 86.5t49 65z" />
    <glyph glyph-name="X" unicode="X" horiz-adv-x="260" 
d="M181 7q-11 11 -25.5 41t-31.5 70l-39 -78l-34.5 -71.5l-26 -55.5t-12.5 -30q-2 -8 -2.5 -15.5t-11.5 -7.5q-28 0 -28 25q0 1 10.5 25l29 63.5l43 90.5l51.5 105l-33.5 93.5l-29.5 87t-20.5 66t-7.5 30.5q0 5 5 7t12 2q9 0 20 -3.5t20.5 -10t16 -15t6.5 -17.5q0 -12 3 -32
t8.5 -44.5l12 -52.5t14.5 -56l57 114.5t30.5 59.5t15.5 22.5t12 3.5q-2 0 3.5 -0.5t12.5 -3t13 -7t6 -12.5q0 -5 -3 -11q-34 -51 -64.5 -102.5t-65.5 -121.5l17 -53.5t14 -40.5q1 -3 4.5 -11.5t8.5 -18.5t11 -17.5t12 -7.5q4 0 10.5 9t12.5 21t10 25t4 22q0 3 -0.5 6t-0.5 6
q1 4 2.5 9t6.5 5q13 0 13 -13v-2q-6 -18 -12.5 -40t-13.5 -40.5t-14.5 -31.5t-15.5 -13q-11 0 -20.5 10t-15.5 17z" />
    <glyph glyph-name="Y" unicode="Y" horiz-adv-x="560" 
d="M614 382q1 -1 11.5 -9t10.5 -22q0 -2 -0.5 -3t-0.5 -3q-9 -13 -25.5 -44l-38 -74l-46 -94l-49 -102.5l-47 -101l-39.5 -89l-28 -65.5t-12 -32q-2 -5 -2 -11.5t-6 -6.5q-12 0 -19.5 9.5t-7.5 18.5l36 86l39.5 93l50.5 114q-30 -27 -53 -40.5t-39 -19.5t-23.5 -6.5
l-7.5 -0.5q-10 0 -21.5 1.5t-21.5 10t-17 25t-7 46.5q0 14 5 42t26 69q19 37 43.5 92.5t57.5 121.5q4 7 9 18t5 18q0 5 -3.5 5.5t-6.5 0.5q-8 0 -17.5 -5.5t-18.5 -11.5q-16 -11 -42 -35.5t-56 -56.5l-61.5 -68t-58.5 -70t-46.5 -63t-25.5 -47q-2 -5 -5 -9t-10 -4
q-3 0 -8.5 0.5t-11.5 2.5t-10.5 5.5t-4.5 9.5q0 8 6.5 20t11.5 20q12 21 36.5 51t55.5 63.5l65 67.5l67 64t61 52.5t47 32.5q16 8 32 8q14 0 27.5 -13t13.5 -30q0 -7 -3 -14q-4 -12 -19 -46l-34 -75l-38 -81l-31 -64q-8 -22 -13.5 -43.5t-5.5 -35.5q0 -23 9 -31.5t23 -8.5
t30 6t29.5 13.5t23 13.5l9.5 6q23 20 39 38.5t27 40.5l51.5 110l33 72.5l19 43t10 20.5t5 6.5t4.5 0.5q5 0 11 -3z" />
    <glyph glyph-name="Z" unicode="Z" horiz-adv-x="207" 
d="M412 438q2 -6 2 -10q0 -13 -8 -16l-13 -5l-8 -1q-16 -5 -25.5 -10.5t-20.5 -21.5q-13 -18 -37.5 -48l-54 -65l-60 -72.5l-56 -71.5t-41.5 -60.5t-16 -39.5q0 -9 38 -20t122 -11q11 0 21.5 1.5t20.5 1.5q6 0 8.5 -5.5t2.5 -12.5q-1 -8 -10 -13.5t-17 -5.5q-19 0 -51.5 2.5
t-67 5.5l-64 5.5t-42.5 2.5q-8 0 -9.5 -1t-5.5 -1q-10 0 -10 10q0 6 4 17t14 26q1 4 15 24l36 50l49 67l55.5 75l55 74l46.5 64l6.5 10.5t8.5 10.5l-123.5 -17t-121.5 -9q-6 0 -16.5 0.5t-21 3.5t-18.5 9.5t-8 19.5q0 9 5.5 20t13.5 11q5 0 5.5 -5t0.5 -8v-3l1 -1v-1
q3 -7 10 -10t13 -3q31 0 72.5 3.5t88.5 11t96 18.5t94 26q14 0 16 -7.5t5 -14.5z" />
    <glyph glyph-name="a" unicode="a" horiz-adv-x="175" 
d="M70 46v1l-24.5 -25.5t-16.5 -15t-12 -7t-10 -1.5q-17 0 -26 16t-9 33q0 20 13.5 51t34 60t45 49.5t47.5 20.5q9 0 14.5 -4.5t8.5 -9.5q4 -6 4 -14q2 4 5.5 8t8.5 11q2 2 5 6.5t8 4.5t12.5 -6t7.5 -15q0 -2 -2 -6t-13 -23q-7 -14 -18.5 -32t-22 -37t-18.5 -37.5t-8 -31.5
q0 -5 5 -9t9 -5q15 0 25 11.5t18 25.5q1 2 4.5 12.5t9.5 10.5q4 0 9 -3t5 -8q0 -3 -6.5 -15.5t-18 -26t-26.5 -24.5t-31 -11q-17 0 -27 12.5t-10 29.5v4zM56 72l14.5 19l22 30.5t20.5 32t11 23.5q0 1 -2.5 3.5t-5.5 2.5q-10 0 -24 -9.5t-28 -24.5t-26.5 -33t-20.5 -34.5
t-9.5 -29t7.5 -16.5q12 0 20.5 9t20.5 27z" />
    <glyph glyph-name="b" unicode="b" horiz-adv-x="155" 
d="M152 418l17 31.5t13 7.5q7 0 12.5 -6.5t8.5 -14.5q0 -5 -6 -16.5l-18 -34l-31.5 -57.5l-46.5 -86l-7 -14l-8 -15.5l-7 -13.5t-4 -7l21 23.5t27 13.5q12 0 19.5 -7t11 -16.5t4 -20.5t-1.5 -19q0 1 -4.5 -11.5t-12.5 -31t-19 -40.5t-25.5 -41.5t-31.5 -32t-36 -12.5
q-12 0 -20.5 6t-14 15t-8 20t-2.5 21q0 12 5 26.5t13 31.5t17.5 35l18.5 36l41 83l30.5 61.5l24 46.5zM120 188q-8 0 -18.5 -8.5t-21 -20.5t-19.5 -24.5t-13 -19.5l-18 -32.5t-15 -36.5q-1 -3 0 -8t6 -6q23 6 43 28.5t42 65.5q1 1 6 10.5t9.5 20.5t5 20.5t-6.5 10.5z" />
    <glyph glyph-name="c" unicode="c" horiz-adv-x="139" 
d="M-18 54q-3 21 9.5 51t31.5 58t39 48t33 20q15 0 24 -14.5t8 -29.5q0 -6 -3.5 -14.5t-8.5 -15.5t-12 -12t-16 -5q-10 0 -10 9q0 4 4 12l10 23q1 2 -11.5 -11.5t-27.5 -33.5t-27.5 -44t-12.5 -43q0 -11 5.5 -19t19.5 -8t32 15t45 42q5 5 10 17t16 12q4 0 8 -4.5t4 -11.5
q0 -5 -4 -12l-27.5 -26.5l-27.5 -26.5l-12 -11q-8 -8 -20 -16t-28 -8q-23 0 -36 18.5t-15 40.5z" />
    <glyph glyph-name="d" unicode="d" horiz-adv-x="181" 
d="M80 47l-11.5 -14t-14.5 -16t-17 -13.5t-19 -5.5q-14 0 -22 8.5t-11 21t-2.5 26.5t3.5 25q3 10 14 35t28 51t39.5 46t49.5 20q9 0 17 -6.5t10 -16.5q5 12 16.5 34l20.5 40l43 82t23 43t11.5 17t8.5 3q18 0 22 -12.5t-4 -24.5q-8 -16 -25 -45l-40 -71.5t-50 -98t-54 -123.5
q-2 -6 -2 -12t5 -11q9 -7 16.5 -2.5l15.5 9.5q16 17 21.5 33.5t10.5 18.5q8 5 11.5 -0.5t4.5 -11.5q0 -4 -2 -8t-13 -18q-13 -17 -28.5 -33.5t-36.5 -16.5q-13 0 -20 4t-11 10.5t-5.5 15t-2.5 17.5zM19 70q-4 -9 -6.5 -22t5.5 -22q7 -1 15 4t19 22q37 55 56.5 88.5
t21.5 38.5q0 6 -8 6q-12 0 -27 -11t-30 -28.5t-27.5 -37.5t-18.5 -38z" />
    <glyph glyph-name="e" unicode="e" 
d="M-19 52q0 24 13.5 54.5t32 58t38 46.5t32.5 21q14 -2 22 -17.5t8 -26.5q0 -12 -6.5 -25.5t-16 -26.5t-20 -24.5t-19.5 -19.5q-18 -17 -27.5 -22t-14 -6t-6 -2t-2.5 -9q-1 -12 1.5 -17.5t6 -8t8 -2.5h6.5q14 1 24.5 6.5t18 12.5t13 13.5t9.5 9.5q0 1 2.5 5t6 9t8 9t8.5 6
q11 0 15 -13q0 -6 -1 -8.5t-3 -4.5l-23 -22t-26 -22.5t-29.5 -18.5t-31.5 -9q-23 0 -35 17.5t-12 36.5zM85 186q-8 -8 -16.5 -20t-17 -26l-16 -27.5t-11.5 -23.5q9 9 20.5 22t20.5 26.5t15 26.5t5 22z" />
    <glyph glyph-name="f" unicode="f" horiz-adv-x="91" 
d="M155 320q-16 -32 -34 -63l-35 -62q-3 -5 -14 -26l-23.5 -45.5t-22.5 -47.5t-11 -30q-1 -6 0 -11.5t6 -5.5q8 0 21 12t21 21q8 10 9.5 12t3.5 7q2 4 3 11.5t12 7.5q5 0 8.5 -5t3.5 -10t-2.5 -8t-3.5 -4l-4 -5q-12 -13 -22 -25.5t-19.5 -22t-20 -15t-23.5 -5.5q-8 0 -12 2
l-6 -17q-4 -11 -14 -34t-24 -51.5t-31 -58.5t-35.5 -54.5t-37 -40.5t-34.5 -16q-10 0 -18 5.5t-13 12t-8 12.5l-3 6q-4 23 16 60t49.5 75t62 70.5t53.5 47.5q2 2 12.5 21l25.5 47.5l32.5 62.5l33.5 66.5l29 58.5l19 38q11 20 24.5 47l37.5 74q7 13 13 17t11 4q8 0 19 -8.5
t11 -16.5q0 -4 -5 -12.5t-12 -18.5l-14.5 -21t-11.5 -19zM-48 1q-33 -32 -63.5 -77t-53.5 -91q-8 -16 -10 -23t-6 -19l4 4q18 16 38 40t37.5 51.5t31.5 57.5t22 57z" />
    <glyph glyph-name="g" unicode="g" horiz-adv-x="182" 
d="M197 222q1 -1 2.5 -5t-3.5 -12l-23.5 -41l-24 -43.5l-21.5 -41t-16 -34.5q0 -6 4.5 -10.5t9.5 -6.5q11 0 20.5 9t16.5 19q1 1 2.5 6t4 11t5.5 10.5t8 4.5q6 0 9 -3t5 -8q0 -4 -7 -16.5t-19 -26t-26.5 -24t-29.5 -10.5q-19 0 -28 14l-1 -1q-6 -27 -15.5 -53.5t-21 -50.5
t-23 -44.5t-22.5 -34.5q-3 -3 -14.5 -19t-26 -34t-30 -32t-25.5 -14q-11 0 -18.5 5t-12.5 11.5t-7.5 12.5t-2.5 7q0 19 15.5 48t37.5 60t44.5 58t36.5 42l23 24q-6 -3 -13.5 -1t-12.5 5q-8 4 -12 12t-5 18t-0.5 20t2.5 19q1 12 14 38t33 52.5t43.5 46t46.5 19.5
q10 0 17.5 -8.5t9.5 -19.5l7 12l8 14q8 14 15.5 11.5t12.5 -7.5zM46 3q-4 -4 -6 -7l-60.5 -79.5t-51.5 -82.5l-11.5 -26t-4.5 -16q17 15 35.5 36t35 45t30 49t21.5 49l3 7l4.5 14t4.5 10v1zM127 166q4 6 4 11q0 1 -2.5 3.5t-5.5 2.5q-13 0 -32.5 -16t-37.5 -39t-30 -50
t-11 -49q0 -6 3 -10l2 -2q13 0 29.5 20t32.5 45.5t29 50t19 33.5z" />
    <glyph glyph-name="h" unicode="h" horiz-adv-x="172" 
d="M65 21q-7 20 -5 37t10 44l7 20v1l-8 -10q-1 -1 -2.5 -3l-5.5 -7.5l-11.5 -16l-19.5 -28.5l-19 -32t-24 -25q-10 -5 -18.5 1t-3.5 22q10 25 22 51l26 55l31 63l38 75l39 75.5t24.5 46t14 22.5t6.5 7q5 2 15.5 -3.5t10.5 -20.5q0 -12 -5 -18l-38 -64.5l-35 -62.5l-23 -43
q-4 -6 -6.5 -12l-5.5 -13l-16 -33l1 1q20 22 32 37.5l28 35.5q5 6 12.5 7t15 -2t12.5 -8.5t5 -12.5q0 -6 -5.5 -13.5t-7.5 -10.5l-15 -23q-5 -8 -15 -25.5t-18.5 -38t-13 -39.5t2.5 -29q4 -6 10.5 -3t14 11t15.5 19l16 22l1 4q1 1 4.5 9.5t11.5 8.5q3 0 7 -4.5t4 -9.5
q0 -9 -6 -13l-29.5 -35l-19 -22.5t-13.5 -11.5t-12 -3q-18 0 -27 9.5t-9 11.5z" />
    <glyph glyph-name="i" unicode="i" horiz-adv-x="104" 
d="M118 318q12 2 19.5 -5t7.5 -24q0 -9 -4.5 -17.5t-11.5 -15t-14.5 -10.5t-13.5 -5q-13 0 -20 8t-9 19q0 3 1 9.5t5.5 14t13.5 14.5t26 12zM55 214q4 4 8 7.5t10 3.5q7 0 17.5 -8t10.5 -16q0 -6 -4 -10.5t-12 -14.5l-23 -30t-24 -35.5t-19 -36.5t-8 -32q0 -3 1.5 -9t9.5 -6
q6 0 16 6.5t19.5 14.5t16.5 16.5t8 12.5l6.5 12.5t13.5 10.5q5 0 7.5 -4t2.5 -9q0 -6 -2 -9t-5 -6l-4 -4l-32 -33t-23 -20.5t-18 -11t-17 -3.5t-15.5 5t-10.5 12.5t-6 16t-2 14.5q0 21 7.5 42.5t18.5 42.5t24 40.5l25 36.5z" />
    <glyph glyph-name="j" unicode="j" horiz-adv-x="111" 
d="M156 307q6 -9 6 -18q0 -18 -15 -30.5t-29 -17.5q-13 0 -20 8t-9 19q0 7 3 17.5t20 23.5q4 3 8.5 4.5l7.5 2.5q4 1 7 2l1 -1q0 -1 1 -2l-1 -1q2 0 2 1t2 1q4 0 9 -3.5t7 -5.5zM29 63q-1 -3 -2.5 -9.5t-1.5 -13t2 -11t9 -4.5q11 0 19.5 5t15 12.5t13 16.5l12.5 17l2 4
q0 1 3.5 9.5t9.5 8.5q5 0 9 -4.5t4 -10.5q0 -2 -2 -6.5t-4 -5.5l-13 -14l-24 -26t-18 -18t-15 -10.5t-16 -3.5q-12 0 -21 5.5t-13 13.5q-2 -4 -4.5 -8t-4.5 -8l-54 -105t-50 -108q-4 -14 -6 -16.5t-8 -0.5t-13.5 6.5t-7.5 15.5q0 8 3.5 15t5.5 13q18 45 41 88.5l46 87.5
q6 11 15.5 32.5l21 47l24 51.5t25 47.5t23 35t18.5 13.5q2 0 7 -2t10 -5.5t9 -8t4 -9.5t-3.5 -9t-5.5 -8l-6 -8q-17 -24 -33 -54t-26 -58z" />
    <glyph glyph-name="k" unicode="k" horiz-adv-x="150" 
d="M-24 0q-11 -5 -16 1t-5 16q0 8 2.5 17t6.5 16q35 77 74.5 151l74.5 143l31 60q2 3 4.5 9t9.5 6q5 0 16 -6.5t11 -20.5q0 -8 -10 -23.5t-16 -26.5l-19.5 -34.5l-17 -31l-23 -43l-37.5 -69.5l-1 -3v-1l34.5 33t34.5 34q5 4 10 2.5t9 -7t6.5 -12t2.5 -10.5q0 -3 -6 -11.5
t-16.5 -18.5t-24.5 -20.5t-30 -19.5q-3 -9 -6 -24t-3 -25q0 -8 1 -18t3 -19t6.5 -15.5t10.5 -6.5q20 0 28 11.5t16 27.5q0 1 1 5t2.5 9t4.5 9t7 4q5 0 10.5 -3t0.5 -20q-1 -3 -4 -8t-5 -8q-14 -23 -29.5 -37.5t-35.5 -10.5q4 0 -3.5 0.5t-18.5 8t-21 24.5t-10 51
q-2 -2 -6 -8l-21 -33l-16.5 -26.5t-16.5 -17.5z" />
    <glyph glyph-name="l" unicode="l" horiz-adv-x="93" 
d="M200 411l-20 -38.5l-28.5 -54l-31.5 -60l-29.5 -56l-23 -43.5t-10.5 -21q-2 -5 -8 -17l-12.5 -26t-11.5 -28t-5 -21q-1 -6 0.5 -11.5t6.5 -5.5q8 0 20.5 12t19.5 21q8 10 9 12t3 7q2 4 3 11.5t12 7.5q5 0 8.5 -5t3.5 -10t-2 -8t-3 -4l-4 -5q-12 -13 -21 -25.5t-18.5 -22
t-19.5 -15t-23 -5.5q-15 0 -21.5 10.5t-7 24.5t3 28.5t6.5 23.5q13 34 31.5 74l39 83l42.5 86.5l42 84.5q6 13 12 17t11 4q8 0 17 -8.5t9 -16.5z" />
    <glyph glyph-name="m" unicode="m" horiz-adv-x="234" 
d="M193 21q-3 -3 -14.5 -12t-25.5 -9q-18 0 -30.5 13.5t-12.5 32.5q0 20 9.5 42t16.5 40l-32 -39q-10 -14 -19 -28.5t-19 -28.5q-5 -10 -10 -17q-5 -6 -10.5 -11t-12.5 -5q-5 0 -13 4.5t-8 6.5q0 14 6 29.5t14.5 31t18 30t16.5 26.5l-20.5 -26.5t-17.5 -24.5q-7 -7 -14 -21
t-15 -27t-17 -22t-19 -5q-5 3 -9 7.5t-3 7.5q1 8 9.5 26.5l19 40.5t22 42.5l18.5 33.5l30 55q2 5 6.5 14t12.5 9h3q2 -1 12 -6.5t10 -19.5q0 -4 -1.5 -8t-3.5 -6l-9 -13q-2 -3 -4.5 -6t-4.5 -7l-9 -12q7 9 17 20t30 36q2 2 5.5 7.5t11.5 5.5q2 0 2.5 -0.5t1.5 -0.5t5.5 -1.5
t9 -4t7.5 -6t1 -7.5q-7 -13 -21 -35.5l-27 -41.5l-6 -12l18.5 24.5t31.5 38.5q10 12 21.5 27.5t22.5 15.5q8 0 19 -9t11 -15t-5 -11q-10 -12 -23 -31t-24.5 -40t-19.5 -41.5t-8 -34.5q0 -6 2.5 -11.5t11.5 -5.5q10 0 18.5 5t15.5 13t13.5 16.5t13.5 16.5q2 4 6 13t9 9
t9 -4.5t4 -10.5q0 -9 -6 -12z" />
    <glyph glyph-name="n" unicode="n" horiz-adv-x="167" 
d="M76 238q1 1 5 0t8.5 -3.5t8 -7t3.5 -11.5q0 -6 -6 -17t-14 -23t-17 -23.5l-15 -19.5l-6 -12q4 5 7.5 10t7.5 10l15 20.5l21 27.5t22 24.5t19 11.5q2 0 7 -1.5t10.5 -5t9.5 -8t4 -10.5q0 -5 -3.5 -8.5t-5.5 -6.5l-7 -9q-11 -14 -22 -32t-20 -37t-14.5 -36t-5.5 -30
q0 -21 9 -19.5t20 12t21.5 24l13.5 17.5q1 3 5 12.5t10 9.5q5 0 9 -4.5t4 -10.5q0 -3 -2 -6.5t-4 -5.5l-32 -34.5l-20 -22t-13.5 -12t-12.5 -3.5q-27 0 -35.5 17.5t-6.5 37.5q0 18 9 38t15 37l-12 -14q-17 -20 -31 -42l-30 -45q-1 -1 -3 -5.5t-5.5 -9t-8.5 -8.5t-11 -4
q-9 0 -13 4.5t-4 9.5q0 8 4.5 21t11.5 30l44 85.5t29.5 53t18 27t8.5 7.5z" />
    <glyph glyph-name="o" unicode="o" horiz-adv-x="153" 
d="M116 98q-6 -11 -17 -27.5t-24 -32.5t-28 -27.5t-30 -11.5q-20 0 -26.5 20t-5.5 38q0 18 8.5 41t21 45.5t27.5 42t30 31.5q9 8 19.5 10.5t21.5 2.5q13 0 22.5 -12t8.5 -25q-4 -35 -10 -52t-6 -19l1 1l1.5 0.5t5 2t11.5 6.5h1q8 5 11.5 9.5t12.5 4.5q5 -1 7 -6t2 -8
q0 -8 -10 -13l-28.5 -12t-14.5 -5.5t-7 -2t-5 -1.5zM105 189q-7 -1 -14 -6.5t-13 -13l-12 -15.5t-10 -14q0 -11 10.5 -17t21.5 -6q1 5 5 15t7.5 21t5 21t-0.5 15zM21 23q6 0 14.5 9t17 20.5t15.5 23.5t11 18q-29 0 -41 15q0 1 -5.5 -9.5t-11 -25t-7 -29.5t6.5 -22z" />
    <glyph glyph-name="p" unicode="p" horiz-adv-x="176" 
d="M171 99q6 0 10 -4.5t5 -10.5q-4 -9 -14.5 -23.5t-24 -28t-27.5 -23t-25 -9.5q-17 0 -30 12t-14 36q-2 20 6 40.5t13 38.5q-31 -37 -55 -79t-51 -99l-19 -39.5l-29.5 -61l-28 -55t-14.5 -21.5q-4 4 -8 7.5t-5 14.5q-1 7 1.5 13l5.5 13h-1h1v1l28 65.5l26.5 63l28 65
t32.5 71.5q4 8 13.5 31l21 49t23 48.5t20.5 30.5q3 3 8.5 2t11 -4.5t9.5 -9.5t3 -14q0 -11 -7 -18q-10 -15 -15.5 -24.5l-9 -15.5t-5.5 -10t-4 -7l15 16l39 49q3 4 7 7t9 3q4 0 17.5 -7.5t14.5 -16.5q0 -5 -4 -9t-6 -8l-8 -12l-17.5 -27t-17 -31.5t-12.5 -33.5t-5 -31
q0 -4 2.5 -11t12.5 -7t19 5.5t16.5 13.5t13.5 17t10 16l2 4q2 4 4.5 9.5t7.5 8.5z" />
    <glyph glyph-name="q" unicode="q" horiz-adv-x="174" 
d="M201 204q2 -2 1.5 -5t-4.5 -11q-60 -94 -110.5 -195t-90.5 -206l-8 -25q-4 -4 -9 -2.5t-9.5 5t-8 9t-3.5 10.5t1 9t3 9q17 38 31.5 76t31.5 76l24 56v2q-10 -8 -17.5 -12t-16.5 -4q-25 0 -31.5 17.5t-2.5 41t13 46t16 32.5l18.5 28t25.5 33t30.5 27.5t34.5 11.5
q13 0 19.5 -6t9 -13.5t2.5 -14v-7.5q3 3 13 12t20 9q11 0 17 -9zM125 177q1 12 -8 12t-15 -5q-5 -3 -19.5 -19t-29.5 -38t-26.5 -44t-11.5 -37q0 -5 0.5 -10t4.5 -5q6 0 13 4.5t14 10.5t13.5 13l11.5 12q2 2 9.5 12.5t16 25.5t16.5 32.5t11 35.5z" />
    <glyph glyph-name="r" unicode="r" horiz-adv-x="153" 
d="M162 79q0 -7 -11.5 -20.5t-27.5 -27t-31.5 -23.5t-23.5 -10q-22 0 -25 19t3 44t15 47.5l12 30.5l4 8t5 12.5t1.5 11.5t-6.5 5q-5 0 -11 -8.5t-13.5 -23l-17.5 -32.5t-23 -36q-4 -1 -11 1.5t-1 15.5l26.5 54t22.5 64q0 10 9 15.5t17 5.5q7 0 12.5 -3.5t5.5 -11.5
q0 -3 8.5 -4.5t18 -4t18 -8t8.5 -15.5q0 -8 -5 -12.5t-7 -8.5l-13 -17.5t-20 -31t-18 -37t-8 -35.5q0 -4 1 -10.5t3 -6.5q5 1 13.5 7t17 14t15.5 16.5t9 15.5q5 11 8 13.5t8 4.5q3 0 7.5 -2t4.5 -16z" />
    <glyph glyph-name="s" unicode="s" 
d="M106 195q-2 -17 1.5 -48.5t1.5 -63.5t-15.5 -57t-47.5 -28q-7 -1 -15.5 3t-16 10.5t-13.5 14t-9 15.5l-10 36l13 22q29 47 43.5 75l21.5 42t9.5 17.5t7.5 2.5q2 0 7 -0.5t10 -3.5t8.5 -11.5t3.5 -25.5zM61 41q1 6 4.5 25t6 40.5t2.5 39t-4 19.5l-9 -11t-19.5 -27
t-19 -32.5t-8.5 -26.5q0 2 2.5 -5.5t6.5 -17t9.5 -18t11.5 -8.5q7 2 11.5 10.5t5.5 11.5z" />
    <glyph glyph-name="t" unicode="t" horiz-adv-x="91" 
d="M293 321q1 -3 1.5 -5.5t0.5 -5.5q0 -11 -7.5 -17.5t-26.5 -11t-52 -8.5t-85 -11q-16 -32 -34 -62.5l-35 -61.5q-3 -5 -9.5 -17t-13 -26t-12 -28t-6.5 -21q-1 -6 0 -11.5t6 -5.5q8 0 21 12t21 21q8 10 9.5 12t3.5 7q2 4 3 11.5t12 7.5q5 0 8.5 -5t3.5 -10t-2.5 -8t-3.5 -4
l-4 -5q-12 -13 -22 -25.5t-19.5 -22t-20 -15t-23.5 -5.5q-16 0 -22 10.5t-6 24.5t3.5 29t8.5 23l41.5 84l41.5 84q-57 -6 -95 -10.5t-62 -4.5q-17 0 -26.5 2t-9.5 7t5.5 11t10.5 6q6 0 17 -2.5t21 -2.5q18 1 62 9t94 19l22 44.5t23 42.5q8 13 13.5 17t10.5 4q8 0 19 -8.5
t11 -16.5q0 -4 -5 -12.5t-12 -18.5l-14.5 -21t-11.5 -19q27 6 51 12.5l41 11.5l38 11q8 0 11 -5t5 -10z" />
    <glyph glyph-name="u" unicode="u" horiz-adv-x="202" 
d="M209 98q7 -4 7 -13q0 -3 -2 -6.5t-4 -5.5q-18 -23 -31.5 -37t-24.5 -21.5t-19.5 -10.5t-16.5 -3h-7t-11 3t-11 10t-8 21l-25 -23t-29 -11q-6 0 -13 1t-13 5.5t-10.5 14t-6.5 26.5q-2 13 6 43t20.5 60.5t27 54t26.5 23.5q5 0 17 -8t12 -17q0 -5 -2 -7q-9 -9 -21.5 -28
t-23.5 -41.5t-19 -44.5t-8 -37v-3t1 -6.5t3.5 -6.5t7.5 -3q23 0 35.5 19t20.5 42l9 26.5t20 50.5t24.5 47.5t22.5 17.5q5 -2 17 -7.5t12 -14.5q0 -5 -3.5 -11t-5.5 -8q-11 -15 -23 -34.5t-22.5 -39.5t-17.5 -38.5t-7 -32.5q0 -7 3 -12t9 -5q21 0 35.5 18l27.5 33
q1 3 5.5 12.5t9.5 9.5q3 0 6 -2z" />
    <glyph glyph-name="v" unicode="v" horiz-adv-x="137" 
d="M169 216q5 -5 5 -11q0 -7 -4 -11q-24 -30 -44.5 -60.5l-33.5 -50.5l-15 -24t-20 -27t-22.5 -22.5t-21.5 -9.5q-9 0 -15 4.5t-9 11t-4 14t-1 12.5q0 17 5 36t12 38t15.5 37t16.5 33q3 7 13 19.5t22 13.5q6 0 15.5 -7.5t9.5 -15.5q0 -7 -6 -13.5t-20 -28.5
q-15 -22 -28.5 -50t-19.5 -54q0 -5 0.5 -11t3.5 -8q17 16 32.5 37t30.5 43.5l30 44.5t30 41l2 5q1 3 4.5 10t10.5 7q3 0 6 -3z" />
    <glyph glyph-name="w" unicode="w" horiz-adv-x="244" 
d="M269 205q0 -7 -4 -11l-18 -20q-4 -5 -15 -23.5l-26 -42.5l-32.5 -50t-34.5 -45q-19 -13 -30 -13q-9 0 -15 4.5t-9 11t-4 14t-1 12.5q0 8 1 12.5t3 15.5q-5 -9 -16.5 -27t-28.5 -33q-5 -5 -12 -7.5t-13 -2.5q-17 0 -23 15t-6 27q0 17 8 48.5t20.5 62t28 54t30.5 24.5
q6 0 17.5 -8t11.5 -15t-3.5 -11l-7.5 -9l-15 -22q-7 -10 -16.5 -25.5t-18 -33t-14.5 -34t-6 -29.5q0 -2 1 -6.5t3 -6.5q2 2 3.5 3t2.5 3l10.5 15.5l20 29.5l24 36.5l23.5 36.5l18.5 28.5t8.5 13.5q8 13 15 22.5t21 11.5q8 1 16.5 -8t8.5 -17q0 -5 -4.5 -9t-6.5 -9l-15 -22
q-8 -11 -16 -25.5l-16 -30.5t-14 -31.5t-9 -28.5q0 -5 0.5 -11t3.5 -8q10 10 25.5 32.5l33 48l34 50.5t28.5 40l7.5 10.5t10.5 6.5q5 0 8 -4.5t3 -9.5z" />
    <glyph glyph-name="x" unicode="x" horiz-adv-x="144" 
d="M88 0h-8t-8 2q-3 1 -8.5 5.5t-12 12.5t-12.5 20.5t-9 28.5q0 3 -6 -7.5t-15 -24t-19.5 -25.5t-17.5 -12q-5 0 -8.5 6.5t-2.5 11.5v2q0 7 4 13.5t12 15l20 22t28 35.5q0 17 -0.5 29.5t0 25t1 27t1.5 35.5q1 5 5 6.5t7 1.5q9 0 20.5 -8t16.5 -18q-1 -11 -6 -31.5t-7 -32.5
q5 5 14 19.5l19 30t20 27.5t16 12q1 0 1.5 -0.5t1.5 -0.5h-1q1 0 9 -6t7 -16q0 -6 -12 -21t-27 -31.5l-29 -31.5l-20 -21v-24.5t2.5 -25.5t7.5 -20t14 -8q5 -1 11 3t20 21q2 2 4 7t3 8q0 5 6.5 14.5t14.5 10.5q4 0 5.5 -2.5t1 -7t-1.5 -8.5t-2 -7q-17 -27 -31.5 -45
t-28.5 -18z" />
    <glyph glyph-name="y" unicode="y" horiz-adv-x="181" 
d="M201 106q8 0 7 -11.5t-6 -16.5q-24 -44 -43 -60t-40 -18q-8 -1 -12.5 2l-7.5 5l-8.5 -29l-7 -23t-9 -23.5l-12.5 -28.5l-21 -40t-35.5 -59t-43 -53.5t-41.5 -23.5q-10 0 -18 5.5t-13.5 12t-8.5 12.5t-3 7q0 22 15.5 51t37 58.5t44.5 56l38 44.5l43 44q0 -3 -6 -6
t-13.5 -5.5t-16 -3t-12.5 2.5l-4 2t-8.5 7.5t-8.5 14.5t-4 23q0 36 19 73l45 89q0 1 3.5 6t13.5 5q9 0 17.5 -7.5t11.5 -14.5q0 -3 -4.5 -12t-11.5 -19.5l-14 -21.5l-12 -19q-11 -17 -22 -40t-11 -42q0 -5 2 -12t10 -7q14 0 26.5 10.5t21.5 20.5l16.5 42.5l22 55t23 47.5
t19.5 20q7 0 13 -4t9.5 -8.5t5.5 -8.5l2 -4q0 -5 -3.5 -8.5t-6.5 -7.5q-11 -15 -22.5 -34t-21 -38.5t-15.5 -38t-6 -33.5q0 -16 12 -16q10 0 17.5 6t13.5 15t11 19t10 18l6 14.5t17 7.5zM60 3q0 -1 -1.5 -2.5t-3.5 -4.5q-14 -16 -34.5 -43l-41 -56.5t-36.5 -58.5t-19 -50
q23 24 40 47t31.5 46.5t27.5 47l28 48.5q6 9 6.5 17.5t2.5 7.5v1z" />
    <glyph glyph-name="z" unicode="z" horiz-adv-x="161" 
d="M167 212q11 -15 -4 -27l-22 -18l-26.5 -23.5l-26 -23.5t-21.5 -18l-2 -2q7 0 16.5 -1t17.5 -4t13.5 -8.5t4.5 -14.5q-1 -4 -1 -7t-2 -5q-32 -57 -62 -118l-60 -121q-21 -41 -30.5 -64.5t-14.5 -21.5q-7 3 -14.5 8t-7.5 16q0 7 4 15.5t15 34.5q12 28 25 55l29 58l35.5 69
l43.5 88q-13 -2 -27.5 -8t-22.5 -6h1q-8 -3 -14 -3q-5 0 -9 4t-4 15q0 7 17.5 21t40 29.5l44.5 30.5t31 24q1 1 3.5 4t-3.5 2q-5 -1 -17 -4.5l-26 -7.5l-26 -7.5t-17 -4.5q-12 -5 -22.5 5t-10.5 24q0 6 14.5 11t34 8.5t39.5 5.5t31 2q8 0 17.5 -3t15.5 -9z" />
    <glyph glyph-name="underscore" unicode="_" horiz-adv-x="456" 
d="M405 -20q25 0 25 -23q0 -14 -6.5 -14.5t-15.5 -1.5q-22 -1 -63.5 -2t-86.5 -2.5t-86.5 -2.5t-63.5 -1h-24.5t-25.5 2.5t-20 7.5t-8 15q0 7 3 16q17 -5 33.5 -6.5t33.5 -1.5q15 0 39.5 0.5t53 1.5t60 2.5t60 3t53 3t39.5 3.5z" />
    <glyph glyph-name="quotesingle" unicode="'" horiz-adv-x="235" 
d="M304 442q7 -2 10 -6t3 -8.5t-1.5 -8.5t-2.5 -5l-41 -45l-42 -45q14 25 24.5 54.5t26.5 54.5q3 4 8 8t15 1z" />
    <glyph glyph-name="comma" unicode="," horiz-adv-x="68" 
d="M63 24q3 -2 1 -9q-5 -11 -12 -20t-15 -17l-11 -10.5l-11 -10.5q-2 -2 -6 -3q5 9 7.5 17.5l5 17t6 16t10.5 14.5q2 2 11.5 4.5t13.5 0.5z" />
    <glyph glyph-name="space" unicode=" " horiz-adv-x="117" 
 />
    <glyph glyph-name="period" unicode="." horiz-adv-x="83" 
d="M49 46q19 2 19 -21q0 -13 -11.5 -23t-19.5 -11q-9 0 -14.5 5.5t-6.5 13.5q0 5 4.5 17t28.5 19z" />
    <glyph glyph-name="grave" unicode="`" horiz-adv-x="106" 
d="M11 277q2 4 11.5 8t11.5 3q10 -2 17.5 -6t14 -9.5t14 -11t16.5 -9.5q-2 0 -3.5 -0.5t-3.5 -0.5q-8 2 -15 2.5t-15 1.5q-12 2 -22.5 5.5t-21.5 8.5q-5 5 -4 8z" />
    <glyph glyph-name="acute" unicode="&#xb4;" horiz-adv-x="105" 
d="M95 277q1 -3 -4 -8q-11 -5 -21.5 -8.5t-22.5 -5.5q-8 -1 -15 -1.5t-15 -2.5q-2 0 -3.5 0.5t-3.5 0.5q9 4 16 9.5l14 11t14.5 9.5t17.5 6q2 1 11.5 -3t11.5 -8z" />
    <glyph glyph-name="circumflex" unicode="&#x2c6;" 
d="M3 260q20 7 33 16.5t33 11.5h1h3q19 -6 29.5 -19t27.5 -24h1q-17 0 -34.5 3t-28.5 14q-6 -3 -16.5 -4.5t-20.5 -2t-18 0.5t-11 4q-1 0 1 -0.5t0 0.5z" />
    <glyph glyph-name="dieresis" unicode="&#xa8;" horiz-adv-x="129" 
d="M44 287q14 2 14 -15q0 -10 -8.5 -17t-14.5 -8q-6 0 -10 4.5t-5 9.5q0 3 3.5 12t20.5 14zM95 287q14 2 14 -15q0 -10 -8.5 -17t-14.5 -8q-6 0 -10 4.5t-5 9.5q0 3 3.5 12t20.5 14z" />
    <glyph glyph-name="ring" unicode="&#x2da;" horiz-adv-x="68" 
d="M39 287q14 2 14 -15q0 -10 -8.5 -17t-14.5 -8q-6 0 -10 4.5t-5 9.5q0 3 3.5 12t20.5 14zM36 276q-8 -2 -9.5 -6t-1.5 -6q2 -6 7 -6q3 0 6.5 3t3.5 8q0 7 -6 7z" />
    <glyph glyph-name="question" unicode="?" horiz-adv-x="354" 
d="M288 434q22 -11 37 -30t21 -49q8 -36 -9 -64q-14 -23 -35.5 -49.5t-46.5 -52.5l-50.5 -50.5l-46.5 -44l-35 -33t-16 -16.5q-4 -3 -8 -14.5t-4 -13.5q1 -5 -6.5 -6t-15 4t-11 16t5.5 30q6 2 21.5 15.5t36 33.5l44 44.5l45 47.5l39 42.5t26.5 30.5q17 21 25 42.5t4 41.5
q-3 12 -11 23t-19 20t-24.5 14t-27.5 5q-26 0 -58.5 -10.5t-55.5 -21.5q-16 -8 -30 -18.5t-22 -10.5q-2 0 -6.5 2.5t-10 7t-10 10t-5.5 11.5q-2 11 7 15.5t16 8.5q43 25 76 35.5t68 8.5q48 -2 92 -25zM45 -1q14 5 26 -3.5t10 -22.5q-2 -13 -9 -23.5t-21 -15.5q-16 -7 -26 1
t-8 30q1 13 7 21t21 13z" />
    <glyph glyph-name="tilde" unicode="&#x2dc;" horiz-adv-x="135" 
d="M107 277q6 0 14 -7.5t8 -14.5q0 -13 -10.5 -14.5t-24.5 2.5t-27 10.5t-18 9.5q-2 0 -4.5 1.5t-3.5 2.5h1q-3 2 -8.5 3t-8.5 2l-3 -3q1 -1 4 -1q5 -1 7.5 -4t2.5 -5t-1 -5t-9 -3q-6 0 -13 8.5t-7 14.5q0 10 6.5 13t16.5 2q6 -1 13 -3.5t13 -5.5q1 0 2 -1t2 -1l13 -5l2 -2
l11 -5q12 -6 23 -6h1q-1 0 -1 0.5t-1 0.5q-6 3 -7.5 4.5t-1.5 4.5q0 2 1 4.5t8 2.5z" />
    <glyph glyph-name="quotedbl" unicode="&#x22;" horiz-adv-x="239" 
d="M304 442q7 -2 10 -6t3 -8.5t-1.5 -8.5t-2.5 -5l-41 -45l-42 -45q14 25 24.5 54.5t26.5 54.5q3 4 8 8t15 1zM365 442q7 -2 10 -6t3 -8.5t-1.5 -8.5t-2.5 -5l-41 -45l-42 -45q14 25 24.5 54.5t26.5 54.5q3 4 8 8t15 1z" />
    <glyph glyph-name="quotedblright" unicode="&#x201d;" horiz-adv-x="251" 
d="M304 442q7 -2 10 -6t3 -8.5t-1.5 -8.5t-2.5 -5l-41 -45l-42 -45q14 25 24.5 54.5t26.5 54.5q3 4 8 8t15 1zM365 442q7 -2 10 -6t3 -8.5t-1.5 -8.5t-2.5 -5l-41 -45l-42 -45q14 25 24.5 54.5t26.5 54.5q3 4 8 8t15 1z" />
    <glyph glyph-name="quoteright" unicode="&#x2019;" horiz-adv-x="249" 
d="M304 442q7 -2 10 -6t3 -8.5t-1.5 -8.5t-2.5 -5l-41 -45l-42 -45q14 25 24.5 54.5t26.5 54.5q3 4 8 8t15 1z" />
    <glyph glyph-name="quotedblleft" unicode="&#x201c;" horiz-adv-x="249" 
d="M314 328q-14 4 -13.5 14t2.5 14l37.5 48.5l38.5 47.5q-12 -26 -20 -56.5t-22 -56.5q-3 -4 -7.5 -8.5t-15.5 -2.5zM254 324q-8 1 -11 5t-3.5 8.5t0.5 8t2 5.5l38 48.5l38 47.5q-12 -26 -20 -56.5t-22 -56.5q-3 -4 -7.5 -8t-14.5 -2z" />
    <glyph glyph-name="quoteleft" unicode="&#x2018;" horiz-adv-x="249" 
d="M254 324q-8 1 -11 5t-3.5 8.5t0.5 8t2 5.5l38 48.5l38 47.5q-12 -26 -20 -56.5t-22 -56.5q-3 -4 -7.5 -8t-14.5 -2z" />
    <glyph glyph-name="quotesinglbase" unicode="&#x201a;" horiz-adv-x="81" 
d="M63 24q3 -2 1 -9q-5 -11 -12 -20t-15 -17l-11 -10.5l-11 -10.5q-2 -2 -6 -3q5 9 7.5 17.5l5 17t6 16t10.5 14.5q2 2 11.5 4.5t13.5 0.5z" />
    <glyph glyph-name="quotedblbase" unicode="&#x201e;" horiz-adv-x="128" 
d="M63 24q3 -2 1 -9q-5 -11 -12 -20t-15 -17l-11 -10.5l-11 -10.5q-2 -2 -6 -3q5 9 7.5 17.5l5 17t6 16t10.5 14.5q2 2 11.5 4.5t13.5 0.5zM113 24q3 -2 1 -9q-5 -11 -12 -20t-15 -17l-11 -10.5l-11 -10.5q-2 -2 -6 -3q5 9 7.5 17.5l5 17t6 16t10.5 14.5q2 2 11.5 4.5
t13.5 0.5z" />
    <glyph glyph-name="ellipsis" unicode="&#x2026;" horiz-adv-x="359" 
d="M116 46q19 2 19 -21q0 -13 -11.5 -23t-19.5 -11q-9 0 -14.5 5.5t-6.5 13.5q0 5 4.5 17t28.5 19zM199 46q19 2 19 -21q0 -13 -11.5 -23t-19.5 -11q-9 0 -14.5 5.5t-6.5 13.5q0 5 4.5 17t28.5 19zM282 46q19 2 19 -21q0 -13 -11.5 -23t-19.5 -11q-9 0 -14.5 5.5t-6.5 13.5
q0 5 4.5 17t28.5 19z" />
    <glyph glyph-name="hyphen" unicode="-" horiz-adv-x="229" 
d="M181 138q9 0 9 -16q0 -9 -2.5 -9.5t-5.5 -1.5q-8 0 -23.5 -1l-32 -2l-31.5 -2t-23 -1t-18 2t-10 16q0 7 1 11q12 -6 25 -6q8 0 23 1t32 2.5l32.5 3t23.5 3.5z" />
    <glyph glyph-name="plus" unicode="+" horiz-adv-x="179" 
d="M82 183q0 9 16 6q9 -2 9.5 -4.5t-0.5 -5.5l-5 -48q15 2 28 3.5t21 3.5q9 0 9 -16q0 -9 -2.5 -9.5t-5.5 -1.5l-53 -4l-5 -38q-2 -7 -5.5 -16t-17.5 -7q-5 0 -11 3q8 8 11 23q1 5 2 14t2 20q-11 -1 -19.5 -1h-13.5q-8 0 -18 2t-10 16q0 7 1 11q12 -6 25 -6h16t22 1
q2 17 3 31.5t1 22.5z" />
    <glyph glyph-name="asterisk" unicode="*" horiz-adv-x="197" 
d="M164 404q10 2 5 -15q-2 -9 -5 -9.5t-6 -0.5l-27 -1q8 -6 13.5 -11.5t10.5 -7.5q7 -5 -4 -20q-6 -7 -8 -5.5t-4 3.5l-30 28q1 -11 1.5 -21t2.5 -15q2 -9 -17 -11q-9 -1 -9.5 1.5t-0.5 5.5l-1 33l-12 -11q-5 -5 -13 -9t-16 8q-4 3 -6 11q11 0 21 10l12 10l-25 2
q-7 0 -15.5 3t-5.5 17q-1 3 4 12q8 -8 22 -8q10 -2 22 -2l-12 15q-5 5 -10.5 15t3.5 21q2 2 3.5 4t3.5 4q5 -16 13 -24l11 -13l2 13q0 7 3 17.5t17 12.5q2 0 5 1t6 0q-8 -14 -8 -26q0 -5 -0.5 -11t-0.5 -14l29 32q6 8 14 -7q5 -8 3.5 -10.5t-3.5 -4.5l-23 -24q11 1 20 1
t15 1z" />
    <glyph glyph-name="slash" unicode="/" horiz-adv-x="257" 
d="M234 448q7 -5 10.5 -12.5t-0.5 -15.5q-6 -13 -10.5 -19t-7.5 -11q-20 -39 -49.5 -102l-61 -131l-60.5 -131l-48 -102q-2 -3 -4 -7.5t-8 -2.5q-10 1 -9 12l19 56t20 54q12 32 33.5 84l44.5 107.5l44.5 107.5l34.5 84q2 6 5.5 13.5l6.5 13.5q7 14 18 12t22 -10z" />
    <glyph glyph-name="parenleft" unicode="(" horiz-adv-x="241" 
d="M104 0q7 0 11 -1q10 -2 9 -8q-2 -7 -6 -8t-9 -1h-4q-24 0 -41.5 11t-29 29t-16.5 41t-5 46q0 49 18 97.5t47.5 93t68 82.5t79.5 66.5t82 44.5t76 16q1 0 4.5 1t7 1t6 -1t1.5 -4q-3 -11 -9.5 -13.5t-19.5 -4t-34 -5.5t-54 -19q-38 -17 -80 -55t-77.5 -88t-59 -108.5
t-23.5 -116.5q0 -53 17 -74t41 -22z" />
    <glyph glyph-name="parenright" unicode=")" horiz-adv-x="287" 
d="M-66 -16q25 1 62.5 22t91.5 74q58 58 93.5 116.5t50.5 108.5t10.5 88t-24.5 55q-18 15 -34.5 19t-28.5 5.5t-16 4t4 13.5q5 7 12.5 5t9.5 -2q52 0 81.5 -35t29 -92t-34.5 -128.5t-107 -144.5q-24 -23 -52 -46t-57 -41t-57.5 -29t-52.5 -11h-4q-5 0 -8 1t2 8q5 6 17 8
q5 1 12 1z" />
    <glyph glyph-name="equal" unicode="=" horiz-adv-x="229" 
d="M181 111q9 0 9 -16q0 -9 -2.5 -9.5t-5.5 -1.5q-8 0 -23.5 -1l-32 -2l-31.5 -2t-23 -1t-18 2t-10 16q0 7 1 11q12 -6 25 -6q8 0 23 1t32 2.5l32.5 3t23.5 3.5zM181 164q9 0 9 -16q0 -9 -2.5 -9.5t-5.5 -1.5q-8 0 -23.5 -1l-32 -2l-31.5 -2t-23 -1t-18 2t-10 16q0 7 1 11
q12 -6 25 -6q8 0 23 1t32 2.5l32.5 3t23.5 3.5z" />
    <glyph glyph-name="colon" unicode=":" horiz-adv-x="95" 
d="M41 82q19 2 19 -21q0 -13 -11.5 -23t-19.5 -11q-9 0 -14.5 5.5t-6.5 13.5q0 5 4.5 17t28.5 19zM68 187q19 2 19 -21q0 -13 -11.5 -23t-19.5 -11q-9 0 -14.5 5.5t-6.5 13.5q0 5 4.5 17t28.5 19z" />
    <glyph glyph-name="semicolon" unicode=";" horiz-adv-x="102" 
d="M41 82q19 2 19 -21q0 -6 -8 -19t-18.5 -26.5t-21 -23.5t-14.5 -10q3 3 5 12t3 19.5t1.5 19.5t0.5 13q0 5 4.5 17t28.5 19zM68 187q19 2 19 -21q0 -13 -11.5 -23t-19.5 -11q-9 0 -14.5 5.5t-6.5 13.5q0 5 4.5 17t28.5 19z" />
    <glyph glyph-name="less" unicode="&#x3c;" horiz-adv-x="220" 
d="M143 51q6 -3 11 -6t10 -5q4 -3 9 -5q2 -7 -3.5 -11.5t-12.5 -2.5q-4 0 -18 7q-8 4 -17 8l-19 10.5t-21 10.5l-41 21.5t-20 11.5t-5.5 6.5t2.5 6.5q1 1 2 2.5t2 2.5l2 2q4 0 24 9t44 21.5l46.5 25t33.5 19.5q8 6 14.5 12t11.5 3q2 -1 7.5 -6t3.5 -11q-1 -1 -9.5 -8
t-19.5 -15q-17 -12 -37 -22.5t-38 -18.5t-31 -13t-14 -7q3 -2 13 -8l23 -13.5l26 -14.5t21 -12z" />
    <glyph glyph-name="greater" unicode="&#x3e;" horiz-adv-x="215" 
d="M79 51q8 5 21 12t25.5 14.5l23 13.5t13.5 8q-2 2 -14.5 7t-30.5 13t-38.5 18.5t-36.5 22.5q-11 8 -19.5 15t-9.5 8q-2 6 3.5 11t7.5 6q5 3 11.5 -3t14.5 -12q10 -7 33 -19.5l47 -25t43.5 -21.5t24.5 -9l2 -2q1 -1 2 -2.5t2 -2.5q2 -4 2.5 -6.5t-5.5 -6.5t-20 -11.5
l-41 -21.5q-11 -5 -21 -10.5l-19 -10.5q-10 -4 -17 -8q-16 -7 -18 -7q-7 -2 -12.5 2.5t-3.5 11.5q4 2 9 5q4 2 9.5 5z" />
    <glyph glyph-name="fraction" unicode="&#x2044;" horiz-adv-x="166" 
d="M234 448q7 -5 10.5 -12.5t-0.5 -15.5q-6 -13 -10.5 -19t-7.5 -11q-20 -39 -49.5 -102l-61 -131l-60.5 -131l-48 -102q-2 -3 -4 -7.5t-8 -2.5q-10 1 -9 12l19 56t20 54q12 32 33.5 84l44.5 107.5l44.5 107.5l34.5 84q2 6 5.5 13.5l6.5 13.5q7 14 18 12t22 -10z" />
    <glyph glyph-name="at" unicode="@" horiz-adv-x="357" 
d="M300 330q20 -8 30 -35t11 -62t-7 -74t-24 -71.5t-40 -53.5t-56 -21q-18 0 -28 14.5t-10 31.5v6l-25 -27.5t-17 -16.5t-12.5 -8t-10.5 -2q-17 0 -26.5 17.5t-9.5 36.5q0 22 14 55.5t35 65t46.5 54t48.5 22.5q9 0 14.5 -5t8.5 -10q4 -7 5 -15q2 4 5.5 8.5t8.5 12.5
q2 2 5 6.5t8 4.5t13 -6t8 -16q0 -3 -2.5 -7.5l-13.5 -25.5q-7 -15 -18.5 -34.5t-22.5 -40.5t-19 -40.5t-8 -34.5q0 -5 5 -9.5t10 -5.5q12 -2 29 12.5t31.5 43t22.5 69.5t1 92q-4 21 -12 32.5t-17.5 17t-19 6t-15.5 -2.5q-52 -20 -90 -57.5t-62.5 -81.5t-36.5 -88.5
t-12 -77.5q3 -30 17 -42.5t33.5 -13t41.5 6.5t41.5 16.5t34 17.5t18.5 9q4 0 8.5 -3t7.5 -7t5.5 -7t2.5 -2q1 -4 -15.5 -15t-41 -21.5t-54.5 -18.5t-57.5 -6.5t-49 15t-28.5 46.5q-5 27 0.5 62.5t20 73t36.5 74.5t49.5 67t59.5 51t67 27q17 2 30.5 -0.5t27.5 -8.5zM161 92
q4 5 15 20.5l23 33.5t21 34.5t11 25.5q0 1 -2.5 4t-5.5 3q-11 0 -25 -10.5t-28.5 -27t-27 -36t-21 -37.5t-10 -31.5t7.5 -18.5q13 0 21.5 10t20.5 30z" />
    <glyph glyph-name="backslash" unicode="\" horiz-adv-x="262" 
d="M13 448q11 8 22 10t18 -12l6.5 -13.5t5.5 -13.5l34.5 -84l44.5 -107.5l44.5 -107.5t33.5 -84q11 -27 20 -54l19 -56q1 -11 -9 -12q-6 -2 -8 2.5t-4 7.5q-13 26 -30 63.5l-37 80.5l-41.5 89l-41.5 89l-38 80.5l-31 63.5q-3 5 -7.5 11t-10.5 19q-4 8 -0.5 15.5t10.5 12.5z
" />
    <glyph glyph-name="fi" unicode="&#xfb01;" horiz-adv-x="190" 
d="M155 320q-16 -32 -34 -63l-35 -62q-3 -5 -14 -26l-23.5 -45.5t-22.5 -47.5t-11 -30q-1 -6 0 -11.5t6 -5.5q8 0 21 12t21 21l1 1q5 39 28.5 77t45.5 70l3 4q4 4 8 7.5t10 3.5q7 0 17.5 -8t10.5 -16q0 -6 -4 -10.5t-12 -14.5l-23 -30t-24 -35.5t-19 -36.5t-8 -32
q0 -3 1.5 -9t9.5 -6q6 0 16 6.5t19.5 14.5t16.5 16.5t8 12.5l6.5 12.5t13.5 10.5q5 0 7.5 -4t2.5 -9q0 -6 -2 -9t-5 -6l-4 -4l-32 -33t-23 -20.5t-18 -11t-17 -3.5q-14 0 -22 11t-11 23q-13 -15 -26 -24.5t-30 -9.5q-8 0 -12 2l-6 -17q-4 -11 -14 -34t-24 -51.5t-31 -58.5
t-35.5 -54.5t-37 -40.5t-34.5 -16q-10 0 -18 5.5t-13 12t-8 12.5l-3 6q-4 23 16 60t49.5 75t62 70.5t53.5 47.5q2 2 12.5 21l25.5 47.5l32.5 62.5l33.5 66.5l29 58.5l19 38l62 121q7 13 13 17t11 4q8 0 19 -8.5t11 -16.5q0 -4 -5 -12.5t-12 -18.5l-14.5 -21t-11.5 -19z
M-48 1q-33 -32 -63.5 -77t-53.5 -91q-8 -16 -10 -23t-6 -19l4 4q18 16 38 40t37.5 51.5t31.5 57.5t22 57z" />
    <glyph glyph-name="fl" unicode="&#xfb02;" horiz-adv-x="173" 
d="M155 320q-16 -32 -34 -63l-35 -62q-3 -5 -14 -26l-23.5 -45.5t-22.5 -47.5t-11 -30q-1 -6 0 -11.5t6 -5.5q8 0 21 12t21 21q7 9 8 11q2 4 2.5 7.5t2.5 6.5q13 34 27 64l29.5 60.5l33 63.5l37.5 74q6 13 12 17t11 4q8 0 17 -8.5t9 -16.5l-29 -54l-36.5 -65.5l-33 -57.5
t-16.5 -30t-8 -17l-12.5 -26t-11.5 -28t-5 -21q-1 -6 0.5 -11.5t6.5 -5.5q8 0 20.5 12t19.5 21q8 10 9 12t3 7q2 4 3 11.5t12 7.5q5 0 8.5 -5t3.5 -10t-2 -8t-3 -4l-4 -5q-12 -13 -21 -25.5t-18.5 -22t-19.5 -15t-23 -5.5q-17 0 -22.5 11t-6.5 26q-14 -17 -27 -27t-31 -10
q-8 0 -12 2l-6 -17q-4 -11 -14 -34t-24 -51.5t-31 -58.5t-35.5 -54.5t-37 -40.5t-34.5 -16q-10 0 -18 5.5t-13 12t-8 12.5l-3 6q-4 23 16 60t49.5 75t62 70.5t53.5 47.5q2 2 12.5 21l25.5 47.5l32.5 62.5l33.5 66.5l29 58.5l19 38l62 121q7 13 13 17t11 4q8 0 19 -8.5
t11 -16.5q0 -4 -5 -12.5t-12 -18.5l-14.5 -21t-11.5 -19zM-48 1q-33 -32 -63.5 -77t-53.5 -91q-8 -16 -10 -23t-6 -19l4 4q18 16 38 40t37.5 51.5t31.5 57.5t22 57z" />
    <glyph glyph-name="Lslash" unicode="&#x141;" horiz-adv-x="313" 
d="M319 138q9 0 9 -16q0 -9 -2.5 -9.5t-5.5 -1.5l-47 -3l-27.5 -57l-23.5 -47q0 -5 6.5 -9.5t22.5 -8.5t42 -7t64 -5h42.5t31.5 3q8 0 16 -6t8 -28q0 -8 -6 -12t-23 -4q-9 0 -14 1q-20 2 -54 6l-69.5 8.5l-65.5 8t-41 3.5q-5 0 -7 -0.5t-5 -0.5q-10 0 -10 6q0 2 1.5 8
t3.5 12.5t4.5 13t4.5 8.5l50 104h-14q-8 0 -18 2t-10 16q0 7 1 11q12 -6 25 -6h12t16 1l33 69l34 70.5l32 65l26 53.5l9.5 19t5.5 17q0 4 -3.5 4.5t-6.5 0.5q-8 0 -17.5 -5.5t-18.5 -11.5q-17 -11 -41 -36t-51.5 -57.5l-56 -69.5t-52.5 -72t-42 -64.5t-24 -47.5q-2 -5 -5 -9
t-10 -4q-3 0 -8.5 0.5t-11.5 2.5t-10.5 5.5t-4.5 9.5q0 2 2 8q4 10 23 38.5t47 65l62.5 78.5t69.5 79.5t67 66.5t56 42q7 4 15.5 6.5t16.5 2.5q9 0 17.5 -5.5t14.5 -14t8 -18.5t-2 -19q-3 -8 -15 -34l-29.5 -63.5l-38.5 -81.5l-42 -87q20 1 34 5z" />
    <glyph glyph-name="lslash" unicode="&#x142;" horiz-adv-x="93" 
d="M111 187q9 0 9 -16q0 -9 -2.5 -9.5t-5.5 -1.5l-46 -3l-9 -19q-2 -5 -8 -17l-12.5 -26t-11.5 -28t-5 -21q-1 -6 0.5 -11.5t6.5 -5.5q8 0 20.5 12t19.5 21q8 10 9 12t3 7q2 4 3 11.5t12 7.5q5 0 8.5 -5t3.5 -10t-2 -8t-3 -4l-4 -5q-12 -13 -21 -25.5t-18.5 -22t-19.5 -15
t-23 -5.5q-15 0 -21.5 10.5t-7 24.5t3 28.5t6.5 23.5l28 67h-22q-8 0 -18 2t-10 16q0 7 1 11q12 -6 25 -6h14.5t20.5 1l56.5 118.5l59.5 118.5q6 13 12 17t11 4q8 0 17 -8.5t9 -16.5l-120 -229q10 2 18 2.5t13 2.5z" />
    <glyph glyph-name="caron" unicode="&#x2c7;" horiz-adv-x="136" 
d="M121 235q-11 1 -19.5 0.5t-17 -1.5t-17 -0.5t-17.5 4.5l-1 1l-3 1q-15 14 -18.5 30t-14.5 34q2 -2 0 -0.5t-1 0.5q17 -8 31 -18t19 -24q7 -1 17 -4t19 -6.5t16 -8t8 -8.5q1 -1 -1 0.5t0 -0.5z" />
    <glyph glyph-name="Zcaron" unicode="&#x17d;" horiz-adv-x="207" 
d="M331 498q-10 -5 -17 -10t-13.5 -10.5t-13.5 -9.5t-17 -6l-2 1l-3 -1q-20 4 -31.5 15.5t-30.5 20.5q3 0 0.5 0t-1.5 -1q18 3 35.5 2t29.5 -10q6 3 16 6t20 4.5t18 2t11 -2.5q1 -1 -1 -0.5t0 -0.5zM412 438q2 -6 2 -10q0 -13 -8 -16l-13 -5l-8 -1q-16 -5 -25.5 -10.5
t-20.5 -21.5q-13 -18 -37.5 -48l-54 -65l-60 -72.5l-56 -71.5t-41.5 -60.5t-16 -39.5q0 -9 38 -20t122 -11q11 0 21.5 1.5t20.5 1.5q6 0 8.5 -5.5t2.5 -12.5q-1 -8 -10 -13.5t-17 -5.5q-19 0 -51.5 2.5t-67 5.5l-64 5.5t-42.5 2.5q-8 0 -9.5 -1t-5.5 -1q-10 0 -10 10
q0 6 4 17t14 26q1 4 15 24l36 50l49 67l55.5 75l55 74l46.5 64l6.5 10.5t8.5 10.5l-123.5 -17t-121.5 -9q-6 0 -16.5 0.5t-21 3.5t-18.5 9.5t-8 19.5q0 9 5.5 20t13.5 11q5 0 5.5 -5t0.5 -8v-3l1 -1v-1q3 -7 10 -10t13 -3q31 0 72.5 3.5t88.5 11t96 18.5t94 26q14 0 16 -7.5
t5 -14.5z" />
    <glyph glyph-name="zcaron" unicode="&#x17e;" horiz-adv-x="161" 
d="M147 276q-10 -5 -17 -10t-13.5 -10.5t-13.5 -9.5t-17 -6l-2 1l-3 -1q-20 4 -31.5 15.5t-30.5 20.5q3 0 0.5 0t-1.5 -1q18 3 35.5 2t29.5 -10q6 3 16 6t20 4.5t18 2t11 -2.5q1 -1 -1 -0.5t0 -0.5zM167 212q11 -15 -4 -27l-22 -18l-26.5 -23.5l-26 -23.5t-21.5 -18l-2 -2
q7 0 16.5 -1t17.5 -4t13.5 -8.5t4.5 -14.5q-1 -4 -1 -7t-2 -5q-32 -57 -62 -118l-60 -121q-21 -41 -30.5 -64.5t-14.5 -21.5q-7 3 -14.5 8t-7.5 16q0 7 4 15.5t15 34.5q12 28 25 55l29 58l35.5 69l43.5 88q-13 -2 -27.5 -8t-22.5 -6h1q-8 -3 -14 -3q-5 0 -9 4t-4 15
q0 7 17.5 21t40 29.5l44.5 30.5t31 24q1 1 3.5 4t-3.5 2q-5 -1 -17 -4.5l-26 -7.5l-26 -7.5t-17 -4.5q-12 -5 -22.5 5t-10.5 24q0 6 14.5 11t34 8.5t39.5 5.5t31 2q8 0 17.5 -3t15.5 -9z" />
    <glyph glyph-name="numbersign" unicode="#" horiz-adv-x="449" 
d="M234 482q11 -7 6 -17q-4 -8 -6 -11.5t-4 -6.5q-12 -23 -29.5 -61l-36 -78.5l-36 -78l-28.5 -60.5q-1 -2 -2 -5t-5 -1q-6 0 -5 7q6 17 11 33t12 33q7 19 20 50l26.5 64.5l26 64.5l20.5 50l2.5 7.5t3.5 8.5q5 8 11 7t13 -6zM371 482q11 -7 6 -17q-4 -8 -6 -11.5t-4 -6.5
q-12 -23 -29.5 -61l-36 -78.5l-36 -78l-28.5 -60.5q-1 -2 -2 -5t-5 -1q-6 0 -5 7l11.5 33l11.5 33q7 19 20 50l26.5 64.5l26 64.5l20.5 50l2.5 7.5t3.5 8.5q5 8 11.5 7t12.5 -6zM426 403q-2 -13 -13 -13q-8 -1 -13 -0.5t-7 0.5q-26 -2 -67.5 -5.5l-86 -7.5l-86 -8t-66.5 -6
q-2 -1 -5.5 -1t-3.5 5q-3 5 4 7l34.5 7.5t33.5 5.5l54 8l68.5 10t68.5 9t54 7q4 1 8.5 1t9.5 1q9 1 11.5 -5.5t1.5 -14.5zM372 284q-2 -13 -12 -13q-15 -1 -19 0l-68 -5.5l-86.5 -7.5l-86 -8t-66.5 -6h-5t-4 4q-2 6 4 7q17 4 34.5 7.5t34.5 6.5q20 3 53 7t68.5 9t68.5 9
t54 7q3 2 8 2.5t9 1.5q10 0 12 -6.5t1 -14.5z" />
    <glyph glyph-name="percent" unicode="%" horiz-adv-x="244" 
d="M72 383q19 2 19 -21q0 -13 -11.5 -23t-19.5 -11q-9 0 -14.5 5.5t-6.5 13.5q0 5 4.5 17t28.5 19zM68 368q-11 -3 -13 -8.5t-2 -7.5q0 -9 10 -9q4 1 9 5.5t5 10.5q0 11 -9 9zM176 83q19 2 19 -21q0 -13 -11.5 -23t-19.5 -11q-9 0 -14.5 5.5t-6.5 13.5q0 5 4.5 17t28.5 19z
M172 68q-11 -3 -13 -8.5t-2 -7.5q0 -9 10 -9q4 1 9 5.5t5 10.5q0 11 -9 9zM213 421q5 -4 7.5 -10t-0.5 -11q-5 -10 -8 -14.5t-5 -8.5l-36 -77.5l-45.5 -99l-45 -99l-35.5 -76.5q-1 -3 -2.5 -6.5t-6.5 -1.5q-7 1 -6 9l13.5 42.5t14.5 40.5l25 63.5l33 81.5l33 81.5l25 63.5
q2 5 4.5 10t4.5 10q5 11 13.5 9.5t16.5 -7.5z" />
    <glyph glyph-name="dollar" unicode="$" horiz-adv-x="210" 
d="M163 487q8 -4 4 -13q-2 -6 -4 -9t-4 -5l-11 -24q18 -4 34 -9.5t16 -10.5q0 -4 -3.5 -8.5t-5.5 -3.5l-48 16l-30 -69q13 -8 24 -21t11 -31v-2q4 -2 5.5 -2t4.5 -1q5 -2 5 -4q0 -4 -4 -4q-8 2 -8 2.5t-3 0.5q-1 0 -3 -1q-9 -20 -30.5 -29t-44.5 -9q-4 -8 -5 -12l-2 -4
t-3 -1q-5 0 -4 6q2 8 4 12q-18 2 -30.5 10t-12.5 22q0 5 5.5 8.5t14.5 6t19.5 3.5t20.5 1l15 43q-4 2 -11 7l-15 10.5t-15 11t-10 10.5q-8 10 -8 21q0 20 23 28.5t52 8.5q7 0 21 -3l7 19.5t6 15.5l5 13q3 7 8 6t10 -6zM61 381q2 -2 13 -9t22 -13l25 65q-13 3 -20 3.5
t-12 0.5q-15 0 -29.5 -6t-14.5 -20q0 -7 5.5 -12t10.5 -9zM131 299q0 13 -7 21.5t-19 16.5q-4 -9 -7 -18t-7 -17zM128 292q-8 1 -16.5 1h-16.5h-8l-12 -27q15 2 29.5 7.5t22.5 16.5zM30 284q1 -8 10 -12.5t22 -5.5l9 25v2q-15 -1 -29 -3t-12 -6z" />
    <glyph glyph-name="bracketleft" unicode="[" horiz-adv-x="215" 
d="M68 -79q1 0 -8.5 -0.5t-20.5 -2t-21 -2.5l-10 -1h-4q-4 -2 -7 -2q-2 0 -3 1q-4 -1 -11 -1q-5 0 -10.5 5t-9 11.5t-3 11.5t7.5 5h13q0 5 4 15l20 40l32 65.5l39 80.5l42 85l39 80l31 64q1 1 1 2q-4 0 -6.5 -1t-9.5 -1q-5 0 -10.5 5t-9 11.5t-3 11.5t7.5 5q31 0 57.5 2.5
t55 8t62.5 15.5t79 25q8 0 15.5 -7.5t7.5 -24.5q0 -13 -8 -16l-13 -5l-8 -1q-12 -2 -37 -5.5l-50.5 -7l-46 -6.5t-23.5 -3q-2 0 -7.5 -10.5l-9.5 -18.5l-26 -53l-35 -70l-39.5 -78.5l-40 -79l-36.5 -71l-29 -54.5q43 4 90 14.5t115 32.5q8 1 15.5 -6.5t7.5 -25.5
q0 -12 -8 -15l-13 -5l-8 -1q-12 -2 -37 -5.5l-50.5 -7l-46 -6.5t-23.5 -3z" />
    <glyph glyph-name="bracketright" unicode="]" horiz-adv-x="363" 
d="M254 452q-1 0 8.5 0.5t20.5 2t21 2.5l10 1h4q4 2 7 2q2 0 3 -1q4 1 11 1q4 0 10 -5t9.5 -11.5t3 -11.5t-7.5 -5h-13q0 -5 -4 -15l-20 -40l-32 -65.5l-39 -80.5l-42 -85l-39 -80l-31 -64q-1 -1 -1 -2q4 0 6.5 1t9.5 1q5 0 10.5 -5t9 -11.5t3 -11.5t-7.5 -5
q-31 0 -57.5 -2.5t-55 -8t-62.5 -15.5t-79 -25q-8 0 -15.5 7.5t-7.5 24.5q0 13 8 16l13 5l8 1q12 2 37 5.5l50.5 7l46 6.5t23.5 3q2 0 7.5 10.5l9.5 18.5l26 53l35 70l39.5 78.5l40 79l36.5 71l29 54.5q-43 -4 -90 -14.5t-115 -32.5q-8 -1 -15.5 6.5t-7.5 25.5q0 12 8 15
l13 5l8 1q12 2 37 5.5l50.5 7l46 6.5t23.5 3z" />
    <glyph glyph-name="asciicircum" unicode="^" horiz-adv-x="300" 
d="M68 271q-6 -11 -12.5 -20.5t-11.5 -17.5l-11 -16q-11 -3 -17.5 4.5t-0.5 18.5q0 1 5 10.5t12 20.5l17 28q12 16 24 34l24 36q32 46 50 68t27.5 29.5t14.5 5t11 -4.5q-3 1 -1.5 -12t7 -34.5t13 -47t16.5 -49.5t17.5 -42.5t15.5 -25.5q8 -11 15.5 -19t2.5 -18
q-6 -11 -11 -13.5t-10.5 1.5t-11 12.5l-13.5 20.5q-15 23 -26.5 52.5t-19.5 55.5t-12.5 45t-7.5 21q-5 -6 -18 -23.5l-29 -39.5l-32.5 -44z" />
    <glyph glyph-name="bar" unicode="|" horiz-adv-x="109" 
d="M69 448q8 -5 15 -12.5t6 -15.5q-2 -13 -3.5 -19t-2.5 -11q-4 -39 -9 -102t-9.5 -131l-9 -131l-7.5 -102q0 -3 -0.5 -7.5t-7.5 -2.5q-5 1 -8.5 3t-5.5 9q-2 29 -3 56t-1 54q0 32 0.5 84t1.5 107.5l2 107.5t1 84q0 6 0.5 13.5t0.5 13.5q2 14 14 12t26 -10z" />
    <glyph glyph-name="dagger" unicode="&#x2020;" horiz-adv-x="176" 
d="M153 342q9 0 9 -16q0 -9 -2.5 -9.5t-5.5 -1.5l-41 -3q-4 -46 -7.5 -100.5t-7.5 -108t-7 -101t-6 -78.5q0 -3 -0.5 -7.5t-7.5 -2.5q-5 1 -8.5 3t-5.5 9q-2 29 -3 56t-1 54v54t1 68.5t1.5 75.5t1.5 75h-19q-8 0 -18 2t-10 16q0 7 1 11q12 -6 25 -6h21q0 26 0.5 48t0.5 39
q0 6 0.5 13.5t0.5 13.5q2 14 14 12t26 -10q8 -5 15 -12.5t6 -15.5q-2 -13 -3.5 -19t-2.5 -11q-2 -11 -3 -24.5t-2 -29.5q11 2 21.5 3t16.5 3z" />
    <glyph glyph-name="daggerdbl" unicode="&#x2021;" horiz-adv-x="176" 
d="M148 70q9 0 9 -16q0 -9 -2.5 -9.5t-5.5 -1.5l-55 -4q-2 -34 -4.5 -63.5l-4.5 -51.5q0 -3 -0.5 -7.5t-7.5 -2.5q-5 1 -8.5 3t-5.5 9q-2 29 -3 56t-1 54v1h-20q-8 0 -18 2t-10 16q0 7 1 11q12 -6 25 -6h22q0 26 0.5 59.5l1 70l1 74t1.5 70.5h-18q-8 0 -18 2t-10 16
q0 7 1 11q12 -6 25 -6h20q1 18 1 33.5v28.5q0 6 0.5 13.5t0.5 13.5q2 14 14 12t26 -10q8 -5 15 -12.5t6 -15.5q-2 -13 -3.5 -19t-2.5 -11l-3 -28q23 2 37 5q9 0 9 -16q0 -9 -2.5 -9.5t-5.5 -1.5l-40 -3q-5 -57 -10 -131l-10 -143q16 2 30.5 3.5t22.5 3.5z" />
    <glyph glyph-name="perthousand" unicode="&#x2030;" horiz-adv-x="286" 
d="M72 383q19 2 19 -21q0 -13 -11.5 -23t-19.5 -11q-9 0 -14.5 5.5t-6.5 13.5q0 5 4.5 17t28.5 19zM68 368q-11 -3 -13 -8.5t-2 -7.5q0 -9 10 -9q4 1 9 5.5t5 10.5q0 11 -9 9zM176 83q19 2 19 -21q0 -13 -11.5 -23t-19.5 -11q-9 0 -14.5 5.5t-6.5 13.5q0 5 4.5 17t28.5 19z
M172 68q-11 -3 -13 -8.5t-2 -7.5q0 -9 10 -9q4 1 9 5.5t5 10.5q0 11 -9 9zM213 421q5 -4 7.5 -10t-0.5 -11q-5 -10 -8 -14.5t-5 -8.5l-36 -77.5l-45.5 -99l-45 -99l-35.5 -76.5q-1 -3 -2.5 -6.5t-6.5 -1.5q-7 1 -6 9l13.5 42.5t14.5 40.5l25 63.5l33 81.5l33 81.5l25 63.5
q2 5 4.5 10t4.5 10q5 11 13.5 9.5t16.5 -7.5zM243 83q19 2 19 -21q0 -13 -11.5 -23t-19.5 -11q-9 0 -14.5 5.5t-6.5 13.5q0 5 4.5 17t28.5 19zM239 68q-11 -3 -13 -8.5t-2 -7.5q0 -9 10 -9q4 1 9 5.5t5 10.5q0 11 -9 9z" />
    <glyph glyph-name="Euro" unicode="&#x20ac;" horiz-adv-x="288" 
d="M158 381q9 0 9 -16q0 -9 -2.5 -9.5t-5.5 -1.5q-9 -1 -26 -2l-35 -2q-9 -16 -15 -31q21 2 42.5 4.5t32.5 4.5q9 0 9 -16q0 -9 -2.5 -9.5t-5.5 -1.5q-12 -1 -35.5 -2.5t-45.5 -2.5v-10q0 -23 8.5 -32t21.5 -9q14 0 26.5 5t22.5 16q2 3 3.5 7t6.5 4t5 -5q0 -2 -2 -4
q-6 -9 -15 -15t-18 -9.5t-17 -5t-12 -1.5q-25 0 -36 17.5t-11 37.5v3h-12q-8 0 -18 2t-10 16q0 7 1 11q12 -6 25 -6h18q5 17 12 31q-8 -1 -15.5 -1h-12.5q-8 0 -18 2t-10 16q0 7 1 11q12 -6 25 -6q7 0 19.5 0.5t26.5 1.5q15 19 34.5 35.5t41 29t42.5 19.5t39 7l2.5 0.5
t5.5 -1t5 -5t2 -11.5q0 -5 -4.5 -6t-13 -1.5t-21.5 -2.5t-30 -8q-20 -8 -40.5 -21.5t-37.5 -32.5q12 2 22.5 3t17.5 3z" />
    <glyph glyph-name="florin" unicode="&#x192;" horiz-adv-x="200" 
d="M193 363q-2 -10 -9 -10t-10.5 0.5t-6.5 -0.5q-17 -1 -27.5 -1h-19.5q-5 -11 -11.5 -24t-6.5 -17q-2 -6 2 -6q2 0 7 4.5t7 7.5l3.5 3.5t1.5 2.5t1 4.5t4 2.5t4 -5q0 -4 -2 -4l-1 -2l-14.5 -16.5t-15.5 -7.5q-3 0 -4 1l-4 -7q-3 -5 -11 -19.5t-18 -30t-20.5 -27.5
t-19.5 -12q-8 0 -11.5 6t-3.5 7q-1 8 9 27l3 1q5 2 5.5 -6.5t-0.5 -13.5l1 2q13 11 23 29.5l22 42.5q-1 0 7 17.5t19 37.5q-8 0 -16.5 -0.5t-20.5 -0.5h-4t-3 3q-1 4 4 6q24 3 48 9q7 12 12 22l8 16l22 43q3 7 8 7q3 0 11.5 -3t8.5 -6q0 -2 -6 -10.5t-9 -14.5l-8 -13
l-20 -36l38 6q4 0 7.5 0.5t7.5 0.5q11 0 9 -16z" />
    <glyph glyph-name="Scaron" unicode="&#x160;" horiz-adv-x="367" 
d="M361 70q-10 3 -14 4t-6 2l-3 1.5t-4 1.5q-1 0 -2 -0.5t-4 -4.5q-40 -44 -77 -69t-87 -25q-15 0 -41.5 5.5t-52 16t-44 25.5t-18.5 35q0 13 15.5 22.5t38.5 15t51 8t53 2.5q37 0 70.5 -2t65.5 -6q0 20 -8 36t-21.5 29.5t-32 25t-38.5 22.5l-23.5 14t-40 26t-41 30.5
t-28.5 26.5q-21 25 -21 54q0 25 15.5 43t41.5 28.5t59.5 15.5t69.5 5q9 0 30 -3t46.5 -7.5t52.5 -11t49.5 -13.5t37 -14.5t14.5 -14.5q0 -10 -8.5 -20.5t-13.5 -8.5q-62 21 -104.5 33t-71.5 17t-46.5 6t-28.5 1q-18 0 -37 -3.5t-34.5 -11t-25 -19.5t-9.5 -28q0 -19 12 -31.5
t26 -23.5q2 -2 12 -8.5l24 -15l30 -17.5t30 -16q17 -9 38 -22t39 -31.5t30.5 -41.5t12.5 -51q0 -2 -0.5 -3.5t-0.5 -3.5q11 -4 12 -4t9 -2q5 -2 9.5 -2.5t4.5 -5.5q0 -6 -3.5 -9.5t-8.5 -1.5zM290 84q-42 3 -83 3q-20 0 -48 -0.5t-54 -3t-44 -7t-16 -12.5q1 -5 13 -13
t29 -15.5t36.5 -13t34.5 -5.5q35 0 71 16.5t58 46.5zM360 480q-11 1 -19.5 0.5t-17 -1.5t-17 -0.5t-17.5 4.5l-1 1l-3 1q-15 14 -18.5 30t-14.5 34q2 -2 0 -0.5t-1 0.5q17 -8 31 -18t19 -24q7 -1 17 -4t19 -6.5t16 -8t8 -8.5q1 -1 -1 0.5t0 -0.5z" />
    <glyph glyph-name="OE" unicode="&#x152;" horiz-adv-x="549" 
d="M282 -17q-14 3 -23 25t-9 54v9t1 9q-15 -17 -31.5 -32.5t-33.5 -27.5q-4 -4 -14.5 -9.5t-22.5 -10.5t-24.5 -9t-20.5 -4q-51 -2 -74 27.5t-23 72.5q0 18 2.5 36t6.5 33t7.5 26.5t6.5 17.5q23 50 48.5 88.5t54.5 72.5l28 30t32.5 31.5t31 24.5t23.5 10q17 1 21.5 -6
t4.5 -18q0 -4 -4 -13.5t-26 -16.5q-84 -53 -160 -179q-16 -26 -32.5 -61.5t-16.5 -71.5q0 -11 2 -26.5t9 -29.5t20 -23.5t35 -9.5q25 0 51.5 18.5t50.5 45t43 55t30 49.5q20 39 33 70q-2 0 -4.5 -0.5t-4.5 -0.5q-23 0 -43.5 12t-20.5 40q0 21 10.5 47t26 49.5t34.5 40.5
t37 19q23 -1 31.5 -21t7.5 -46q30 23 71.5 39t81 25.5t71.5 13.5t44 4q8 0 14.5 -10t6.5 -24q0 -11 -13.5 -13.5t-27.5 -2.5q-29 0 -67 -6.5t-75.5 -18t-68.5 -28t-45 -37.5q-5 -20 -9 -33q2 -6 10 -10.5t24 -8.5t41.5 -8t62.5 -9l19.5 -3.5t8.5 -7.5q0 -4 -3 -9t-7.5 -9.5
t-8.5 -7.5t-5 -3q-6 0 -33 -1.5t-60 -6.5t-63.5 -17t-44.5 -33q-17 -26 -22 -50t-5 -48q0 -25 9.5 -35.5t34.5 -10.5t65 3t74 6q17 2 32.5 4.5t28.5 2.5q8 0 14 -9.5t6 -23.5t-16.5 -15.5t-33.5 -1.5q-19 0 -52 0.5l-66 1t-60 1.5t-34 3zM329 398q-1 0 -1 -1
q-12 -12 -23 -27t-19.5 -30t-13.5 -28.5t-5 -23.5q2 -10 10 -13.5t19 -3.5q7 0 13.5 0.5t11.5 1.5q15 46 15 85q0 11 -1 21.5t-6 18.5zM342 224q14 7 30 10.5t36 3.5q-20 2 -38 9q-5 -1 -9.5 -1h-9.5z" />
    <glyph glyph-name="guilsinglleft" unicode="&#x2039;" horiz-adv-x="229" 
d="M143 51q6 -3 11 -6t10 -5q4 -3 9 -5q2 -7 -3.5 -11.5t-12.5 -2.5q-4 0 -18 7q-8 4 -17 8l-19 10.5t-21 10.5l-41 21.5t-20 11.5t-5.5 6.5t2.5 6.5q1 1 2 2.5t2 2.5l2 2q4 0 24 9t44 21.5l46.5 25t33.5 19.5q8 6 14.5 12t11.5 3q2 -1 7.5 -6t3.5 -11q-1 -1 -9.5 -8
t-19.5 -15q-17 -12 -37 -22.5t-38 -18.5t-31 -13t-14 -7q3 -2 13 -8l23 -13.5l26 -14.5t21 -12z" />
    <glyph glyph-name="endash" unicode="&#x2013;" horiz-adv-x="264" 
d="M232 148q14 0 14 -19q0 -11 -3.5 -11.5t-8.5 -1.5q-12 0 -35 -1t-48.5 -2t-48.5 -2t-35 -1h-13.5t-14 1.5t-11 6t-4.5 12.5q0 3 0.5 6t1.5 7q9 -4 18 -5t19 -1q12 0 35.5 1t49 2.5t49 3.5t35.5 4z" />
    <glyph glyph-name="emdash" unicode="&#x2014;" horiz-adv-x="399" 
d="M363 146q14 0 14 -19q0 -11 -3.5 -11.5t-8.5 -1.5q-8 0 -31 -0.5t-53.5 -1t-64.5 -1t-64.5 -1t-53.5 -0.5h-31h-13.5t-14 1.5t-11 6t-4.5 12.5q0 3 0.5 6t1.5 7q9 -4 18 -5t19 -1h31.5t54 0.5t64.5 1.5t64.5 2t54 2t31.5 3z" />
    <glyph glyph-name="guilsinglright" unicode="&#x203a;" horiz-adv-x="220" 
d="M79 51q8 5 21 12t25.5 14.5l23 13.5t13.5 8q-2 2 -14.5 7t-30.5 13t-38.5 18.5t-36.5 22.5q-11 8 -19.5 15t-9.5 8q-2 6 3.5 11t7.5 6q5 3 11.5 -3t14.5 -12q10 -7 33 -19.5l47 -25t43.5 -21.5t24.5 -9l2 -2q1 -1 2 -2.5t2 -2.5q2 -4 2.5 -6.5t-5.5 -6.5t-20 -11.5
l-41 -21.5q-11 -5 -21 -10.5l-19 -10.5q-10 -4 -17 -8q-16 -7 -18 -7q-7 -2 -12.5 2.5t-3.5 11.5q4 2 9 5q4 2 9.5 5z" />
    <glyph glyph-name="scaron" unicode="&#x161;" 
d="M106 195q-2 -17 1.5 -48.5t1.5 -63.5t-15.5 -57t-47.5 -28q-7 -1 -15.5 3t-16 10.5t-13.5 14t-9 15.5l-10 36l13 22q29 47 43.5 75l21.5 42t9.5 17.5t7.5 2.5q2 0 7 -0.5t10 -3.5t8.5 -11.5t3.5 -25.5zM61 41q1 6 4.5 25t6 40.5t2.5 39t-4 19.5l-9 -11t-19.5 -27
t-19 -32.5t-8.5 -26.5q0 2 2.5 -5.5t6.5 -17t9.5 -18t11.5 -8.5q7 2 11.5 10.5t5.5 11.5zM160 246q-11 1 -19.5 0.5t-17 -1.5t-17 -0.5t-17.5 4.5l-1 1l-3 1q-15 14 -18.5 30t-14.5 34q2 -2 0 -0.5t-1 0.5q17 -8 31 -18t19 -24q7 -1 17 -4t19 -6.5t16 -8t8 -8.5q1 -1 -1 0.5
t0 -0.5z" />
    <glyph glyph-name="trademark" unicode="&#x2122;" horiz-adv-x="399" 
d="M355 445l-31 -4l-49.5 -6.5t-50 -7.5t-32.5 -7q-1 0 -4.5 -6.5t-5.5 -11.5l-26 -48.5l-24 -44.5l-16 -34.5t-4 -9.5t1 1t-1 -2q-4 -4 -9 -4t-8 6t-3 11q0 3 1 6l2 6q6 11 11.5 23l12 27l15 33.5l20.5 42.5l1 1l-35 -4t-35 -2h-10t-13.5 2t-11.5 6.5t-5 12.5q0 5 3.5 12
t8.5 7q3 0 3.5 -3t0.5 -5v-2v-1q2 -5 6.5 -6.5t8.5 -1.5q19 0 55 4t77 10.5t81.5 15.5t68.5 18q5 0 10 -4.5t5 -15.5q0 -8 -5.5 -9.5t-7.5 -3.5zM283 275q2 -2 -0.5 -6t-11.5 -4q-11 0 -18.5 8.5t-7.5 20.5q0 13 5.5 26.5t10.5 24.5l-20 -24l-24 -36q-2 -6 -6 -10
q-3 -4 -6.5 -7t-7.5 -3t-8.5 2.5t-4.5 3.5q0 17 12.5 37.5l21.5 35.5l-13 -16.5t-11 -15.5q-4 -4 -8.5 -12.5t-9.5 -17t-10.5 -13.5t-11.5 -3q-8 4 -8 9q1 5 6 16.5t11.5 25t13.5 26.5t12 21l19 34q2 4 4.5 9.5t7.5 5.5h2q1 -1 7 -4.5t6 -12.5q0 -2 -1 -4l-2 -4l-5 -8
q-2 -2 -3 -4t-3 -5l-6 -7q5 5 11 12l19 23q1 2 3 5t7 3q1 0 1.5 -0.5t1.5 -0.5q2 0 9.5 -3.5t4.5 -8.5l-13.5 -22t-16.5 -25l-4 -8l11.5 15.5t19.5 23.5q7 8 14 17.5t14 9.5q5 0 11.5 -5.5t6.5 -9.5t-3 -7q-6 -7 -14 -19t-15 -25t-12 -25.5t-5 -21.5q0 -4 1.5 -7.5t6.5 -3.5
zM56 319q8 2 8 -10q0 -5 -4.5 -10t-8.5 -5q-7 0 -9 9q0 2 2 7.5t12 8.5zM317 319q8 2 8 -10q0 -5 -4.5 -10t-8.5 -5q-7 0 -9 9q0 2 2 7.5t12 8.5z" />
    <glyph glyph-name="oe" unicode="&#x153;" horiz-adv-x="221" 
d="M113 230q11 0 20 -10t11 -21q12 14 24 22.5t20 10.5q14 -2 22 -17.5t8 -26.5q0 -12 -6.5 -25.5t-16 -26.5t-20 -24.5t-19.5 -19.5q-18 -17 -27.5 -22t-14 -6t-6 -2t-2.5 -9q-1 -12 1.5 -17.5t6 -8t8 -2.5h6.5q14 1 24.5 6.5t18 12.5t13 13.5t9.5 9.5q0 1 2.5 5t6 9t8 9
t8.5 6q11 0 15 -13q0 -6 -1 -8.5t-3 -4.5l-23 -22t-26 -22.5t-29.5 -18.5t-31.5 -9q-18 0 -29.5 11.5t-15.5 26.5q-14 -15 -28.5 -26t-28.5 -11q-20 0 -26.5 20t-5.5 38q0 18 8.5 41t21 45.5t27.5 42t30 31.5q9 8 19.5 10.5t21.5 2.5zM21 23q6 0 14.5 9t17 20.5t15.5 23.5
t11 18q-29 0 -41 15q0 1 -5.5 -9.5t-11 -25t-7 -29.5t6.5 -22zM105 189q-7 -1 -14 -6.5t-13 -13l-12 -15.5t-10 -14q0 -11 10.5 -17t21.5 -6q1 5 5 15t7.5 21t5 21t-0.5 15zM176 186q-8 -8 -16.5 -20t-17 -26l-16 -27.5t-11.5 -23.5q9 9 20.5 22t20.5 26.5t15 26.5t5 22z
M112 113q-1 0 -1 -1q1 0 2 1h-1zM116 98v-1v1z" />
    <glyph glyph-name="exclamdown" unicode="&#xa1;" horiz-adv-x="276" 
d="M22.0312 -146.945q-6.99902 4.99902 -12.499 14.498q-5.49902 9.49902 0.5 15.498q13.999 11.999 19.998 27.9971l40.4951 82.4893l41.4951 87.9893l41.4941 87.9893l39.4951 82.4902q2 3 4 7.49902q2 4.5 7.99902 2.5q9.99902 -1 8.99902 -11.999l-18.998 -55.9932
q-8.99902 -26.9961 -19.9971 -53.9932l-49.9941 -128.984l-50.9941 -128.984q-1.99902 -5.99902 -5.49902 -13.498l-6.49902 -13.498q-6.99902 -13.998 -17.998 -11.999q-10.999 2 -21.9971 9.99902zM244.004 302q-13.998 -5 -25.9971 3.49902
q-11.998 8.49902 -9.99805 22.498q1.99902 12.998 8.99902 23.4971q6.99902 10.498 20.9971 15.498q15.998 6.99902 25.9971 -1q9.99805 -7.99902 7.99902 -29.9961q-1 -12.999 -6.99902 -20.998q-6 -7.99902 -20.998 -12.998z" />
    <glyph glyph-name="questiondown" unicode="&#xbf;" horiz-adv-x="354" 
d="M77.0352 -134.947q-21.9971 10.999 -36.9951 29.9961q-14.999 18.998 -20.998 48.9941q-7.99902 35.9961 8.99902 63.9922q13.998 22.998 35.4961 49.4941q21.4971 26.4971 46.4941 52.4941l50.4941 50.4932l46.4941 43.9951l34.9951 32.9961
q13.999 13.498 15.998 16.498q4 2.99902 7.99902 14.498q4 11.498 4 13.498q-1 5 6.49902 5.99902q7.49902 1 14.998 -3.99902q7.49902 -5 10.999 -15.998q3.49902 -10.999 -5.5 -29.9961q-5.99902 -2 -21.4971 -15.498q-15.498 -13.499 -35.9951 -33.4961
l-43.9951 -44.4951l-44.9941 -47.4941l-38.9951 -42.4941q-17.498 -19.498 -26.4971 -30.4971q-16.998 -20.9971 -24.9971 -42.4941q-7.99902 -21.498 -3.99902 -41.4951q2.99902 -11.999 10.998 -22.9971q7.99902 -10.999 18.998 -19.998t24.4971 -13.998t27.4961 -4.99902
q25.9971 0 58.4932 10.498q32.4961 10.499 55.4932 21.498q15.998 7.99902 29.9961 18.4971q13.999 10.499 21.998 10.499q1.99902 0 6.49902 -2.5q4.49902 -2.49902 9.99902 -6.99902q5.49902 -4.49902 9.99805 -9.99902q4.5 -5.49902 5.5 -11.498
q1.99902 -10.999 -7 -15.498q-8.99805 -4.5 -15.998 -8.49902q-42.9941 -24.9971 -75.9902 -35.4961q-32.9961 -10.498 -67.9922 -8.49902q-47.9941 2 -91.9883 24.9971zM320.006 300q-13.999 -5 -25.9971 3.49902q-11.999 8.49902 -9.99902 22.498
q2 12.998 8.99902 23.4971q6.99902 10.498 20.9971 15.498q15.998 6.99902 25.9971 -1t7.99902 -29.9961q-1 -12.999 -6.99902 -20.998t-20.9971 -12.998z" />
    <glyph glyph-name="Ydieresis" unicode="&#x178;" horiz-adv-x="560" 
d="M614 382q1 -1 11.5 -9t10.5 -22q0 -2 -0.5 -3t-0.5 -3q-9 -13 -25.5 -44l-38 -74l-46 -94l-49 -102.5l-47 -101l-39.5 -89l-28 -65.5t-12 -32q-2 -5 -2 -11.5t-6 -6.5q-12 0 -19.5 9.5t-7.5 18.5l36 86l39.5 93l50.5 114q-30 -27 -53 -40.5t-39 -19.5t-23.5 -6.5
l-7.5 -0.5q-10 0 -21.5 1.5t-21.5 10t-17 25t-7 46.5q0 14 5 42t26 69q19 37 43.5 92.5t57.5 121.5q4 7 9 18t5 18q0 5 -3.5 5.5t-6.5 0.5q-8 0 -17.5 -5.5t-18.5 -11.5q-16 -11 -42 -35.5t-56 -56.5l-61.5 -68t-58.5 -70t-46.5 -63t-25.5 -47q-2 -5 -5 -9t-10 -4
q-3 0 -8.5 0.5t-11.5 2.5t-10.5 5.5t-4.5 9.5q0 8 6.5 20t11.5 20q12 21 36.5 51t55.5 63.5l65 67.5l67 64t61 52.5t47 32.5q16 8 32 8q14 0 27.5 -13t13.5 -30q0 -7 -3 -14q-4 -12 -19 -46l-34 -75l-38 -81l-31 -64q-8 -22 -13.5 -43.5t-5.5 -35.5q0 -23 9 -31.5t23 -8.5
t30 6t29.5 13.5t23 13.5l9.5 6q23 20 39 38.5t27 40.5l51.5 110l33 72.5l19 43t10 20.5t5 6.5t4.5 0.5q5 0 11 -3zM513 472q14 2 14 -15q0 -10 -8.5 -17t-14.5 -8q-6 0 -10 4.5t-5 9.5q0 3 3.5 12t20.5 14zM564 472q14 2 14 -15q0 -10 -8.5 -17t-14.5 -8q-6 0 -10 4.5
t-5 9.5q0 3 3.5 12t20.5 14z" />
    <glyph glyph-name="cent" unicode="&#xa2;" horiz-adv-x="254" 
d="M219 499q3 -4 4 -9.5t-2 -10.5q-4 -7 -6.5 -10.5t-4.5 -5.5l-6 -11q4 -6 5.5 -14.5t0.5 -16.5q-1 -6 -5 -14.5t-10 -15.5t-13.5 -12t-16.5 -5h-3l-61 -115h1q14 0 33.5 15t49.5 42q6 5 12 17t17 12q4 0 8 -4.5t3 -11.5q-1 -2 -2 -5t-4 -7l-29 -26.5t-31 -26.5l-13 -11
q-10 -8 -22.5 -16t-28.5 -8q-7 0 -10 1q-5 -11 -10 -19.5l-9 -15.5q0 -2 -1.5 -4.5t-4.5 -0.5q-5 3 -3 9l15 37q-11 8 -17 22t-5 30q0 20 15 49t36 57t42.5 48.5t35.5 22.5q4 7 7 13.5t5 11.5q2 3 4 7.5t4 7.5q5 8 10 5t10 -11zM80 286q-2 -14 5 -21l24.5 53.5l32.5 68.5
l-20.5 -23.5t-19.5 -25.5t-15 -26.5t-7 -25.5z" />
    <glyph glyph-name="yen" unicode="&#xa5;" horiz-adv-x="279" 
d="M169 239q6 0 5 -10q0 -7 -6 -7h-8q-7 0 -15 -2q-4 -7 -9 -17t-9 -16v-4q0 -5 -6 -5q-8 0 -10.5 5.5t-1.5 9.5q2 3 4 7t4 8.5t4 11.5q-3 1 -6.5 3.5t-3.5 7.5v1l4 4h1q3 -1 8 -1l7 2q0 1 1 2t1 2h-8q-3 0 -8 1.5t-4 11.5q3 3 6 3q3 -1 8 -1h16q5 10 11 19.5t11 20.5
q-11 -8 -18 -11l-12 -5q-6 -2 -10 -1q-4 0 -8.5 1.5t-9 5t-7 10.5t-1.5 19q1 6 6 19.5t13 27.5l9 15l9 13v-1q1 2 3 5.5t1 1.5l15.5 27.5t14.5 24.5q4 6 4 10l-5 -2.5t-5 -3.5q-11 -8 -32 -26.5t-42.5 -40t-39.5 -42t-23 -31.5q-1 -1 -6 -1q-2 0 -9.5 1.5t-6.5 8.5
q0 5 3 10.5t6 8.5q11 14 32 34l43.5 40t44 36t33.5 22q6 3 11 3t11.5 -5.5t5.5 -14.5q0 -2 -2 -6q-3 -6 -11.5 -20.5l-17.5 -31l-18 -32t-14 -22.5v1q-5 -9 -7.5 -18t-3.5 -14q-3 -13 7 -13q3 0 9 2.5t12 5.5q7 4 15 8q8 7 15.5 15t12.5 15v-1l9 17q22 33 32 50t12 22l1 2
q5 8 7.5 9.5t6.5 0.5h5q2 -2 4.5 -6t0.5 -14q-6 -7 -17.5 -25l-26 -41.5l-30 -50l-28.5 -49.5q2 0 4 1q4 0 3 -9q0 -8 -4 -8h-6q-2 0 -3 -0.5t-2 -0.5h-4l-2 -6l15 3v0z" />
    <glyph glyph-name="sterling" unicode="&#xa3;" horiz-adv-x="272" 
d="M228 229q-11 1 -29 2.5t-36.5 3.5t-34.5 3.5t-22 1.5h-6q-5 0 -5 2t2.5 9t4.5 9l10.5 17t16.5 28h-18q-8 0 -18 2t-10 16q0 7 1 11q12 -6 25 -6h14t20 1l58 97q2 4 5 8.5t3 7.5q0 2 -6 2q-4 0 -9 -2.5t-10 -4.5q-13 -7 -34.5 -27t-43.5 -43.5t-40 -45.5t-23 -34
q-3 -5 -8 -5q-2 0 -10 1.5t-8 6.5v1q0 1 0.5 1t0.5 1q3 7 23 29.5t47 49t55 49.5t47 31q8 4 17 4q10 0 17 -8.5t3 -16.5q-2 -3 -7 -12.5t-13 -23.5l-18 -30.5l-20 -33.5q16 2 29.5 3.5t21.5 3.5q9 0 9 -16q0 -9 -2.5 -9.5t-5.5 -1.5l-67 -5l-27 -44q0 -5 15.5 -8t56.5 -5
q11 0 22.5 -0.5t16.5 1.5q5 0 8.5 -2.5t3.5 -12.5q0 -3 -3 -4.5t-12 -1.5h-7v0z" />
    <glyph glyph-name="minus" unicode="&#x2212;" horiz-adv-x="164" 
d="M146 138q9 0 9 -16q0 -9 -2.5 -9.5t-5.5 -1.5q-8 0 -23.5 -1l-32 -2l-31.5 -2t-23 -1t-18 2t-10 16q0 7 1 11q12 -6 25 -6q8 0 23 1t32 2.5l32.5 3t23.5 3.5z" />
    <glyph glyph-name="brokenbar" unicode="&#xa6;" horiz-adv-x="103" 
d="M41 149q0 9 16 8q9 -1 9.5 -3.5t0.5 -5.5q0 -8 -0.5 -23.5l-1 -32t-1.5 -31.5t-2 -23q0 -4 -0.5 -8.5t-2.5 -9t-6 -7t-11 -1.5q-7 0 -11 2q6 9 8 24q1 8 1.5 23t1 32t0.5 32.5t-1 23.5zM68 192q0 -9 -16 -8q-9 1 -9.5 3.5t-0.5 5.5q0 8 0.5 23l1 31.5t1.5 32t2 23.5
q0 4 0.5 8.5t2.5 9t6 7t11 1.5q7 0 11 -2q-6 -9 -8 -24q-1 -8 -1.5 -23t-1 -32t-0.5 -32.5t1 -23.5z" />
    <glyph glyph-name="copyright" unicode="&#xa9;" horiz-adv-x="228" 
d="M215 450q5 -13 5 -26q0 -19 -5.5 -39.5t-15.5 -40.5t-23.5 -39.5t-29.5 -35.5q-11 -10 -28 -22t-40 -12q-5 0 -8 0.5t-6 1.5h-4q-33 14 -42.5 33.5t-9.5 39.5q0 14 2.5 28.5t6.5 27.5l5 11q4 12 15 29.5t28 34t39.5 28.5t50.5 12q22 0 38 -8.5t22 -22.5zM201 406
q1 5 1.5 9.5t0.5 9.5q0 9 -1 14l-1.5 4t-5.5 8.5t-11.5 8t-19.5 2.5q-25 -1 -44 -10t-33.5 -22t-23.5 -29t-14 -32q-5 -13 -8.5 -26.5t-3.5 -24.5v-19t3 -23.5t11 -20t24 -8.5q18 0 38.5 17t39 41.5t32 52t16.5 48.5zM70 325q-2 12 5.5 29t18 33t22 27.5t19.5 11.5
t13.5 -8.5t4.5 -16.5t-7 -17.5t-16 -9.5q-6 0 -6 5q0 4 3 7l5 13q0 1 -7 -6.5t-15.5 -19t-15.5 -25t-7 -24.5q0 -16 14 -16q8 0 18.5 8.5t26.5 24.5q3 3 5.5 9.5t8.5 6.5q7 0 7 -9q0 -4 -2 -7l-16 -14.5l-16 -15.5l-6 -6q-5 -5 -12 -9.5t-16 -4.5q-13 0 -20.5 10.5
t-8.5 23.5z" />
    <glyph glyph-name="registered" unicode="&#xae;" horiz-adv-x="228" 
d="M215 450q5 -13 5 -26q0 -19 -5.5 -39.5t-15.5 -40.5t-23.5 -39.5t-29.5 -35.5q-11 -10 -28 -22t-40 -12q-5 0 -8 0.5t-6 1.5h-4q-33 14 -42.5 33.5t-9.5 39.5q0 14 2.5 28.5t6.5 27.5l5 11q4 12 15 29.5t28 34t39.5 28.5t50.5 12q22 0 38 -8.5t22 -22.5zM201 406
q1 5 1.5 9.5t0.5 9.5q0 9 -1 14l-1.5 4t-5.5 8.5t-11.5 8t-19.5 2.5q-25 -1 -44 -10t-33.5 -22t-23.5 -29t-14 -32q-5 -13 -8.5 -26.5t-3.5 -24.5v-19t3 -23.5t11 -20t24 -8.5q18 0 38.5 17t39 41.5t32 52t16.5 48.5zM161 329q0 -5 -7.5 -14t-18 -18t-21 -15.5t-15.5 -6.5
q-15 0 -16.5 12.5t2 29t9.5 31.5l8 20q1 1 3 5t3.5 8t1 7.5t-4.5 3.5q-7 0 -16.5 -20.5t-26.5 -44.5q-2 -1 -7 1t-1 10q8 17 17.5 35t14.5 42q0 7 6 10.5t12 3.5q4 0 7.5 -2.5t3.5 -7.5q0 -2 5.5 -2.5t12 -2.5t12 -5.5t5.5 -10.5q0 -5 -3 -8t-5 -6q-2 -2 -8.5 -11t-13 -20.5
t-11.5 -24.5t-5 -23v-6.5t2 -4.5q7 2 20 13.5t16 21.5q4 7 6 8.5t5 2.5q2 0 5 -1.5t3 -9.5z" />
    <glyph glyph-name="plusminus" unicode="&#xb1;" horiz-adv-x="164" 
d="M146 138q9 0 9 -16q0 -9 -2.5 -9.5t-5.5 -1.5q-8 0 -23.5 -1l-32 -2l-31.5 -2t-23 -1t-18 2t-10 16q0 7 1 11q12 -6 25 -6q8 0 23 1t32 2.5l32.5 3t23.5 3.5zM82 287q0 9 16 6q9 -2 9.5 -4.5t-0.5 -5.5l-5 -48q15 2 28 3.5t21 3.5q9 0 9 -16q0 -9 -2.5 -9.5t-5.5 -1.5
l-53 -4l-5 -38q-2 -7 -5.5 -16t-17.5 -7q-5 0 -11 3q8 8 11 23q1 5 2 14t2 20q-11 -1 -19.5 -1h-13.5q-8 0 -18 2t-10 16q0 7 1 11q12 -6 25 -6h16t22 1q2 17 3 31.5t1 22.5z" />
    <glyph glyph-name="asciitilde" unicode="~" horiz-adv-x="261" 
d="M209 281q13 0 27 -13.5t14 -27.5q0 -15 -10 -20.5t-25.5 -4t-34.5 7.5t-36.5 13t-31 14l-19.5 10q-12 5 -27.5 13.5t-24.5 5.5q-9 -4 -9 -9q2 -6 6 -7t7 -1q12 2 14 -4.5t2 -9.5t-2 -7.5t-14 -4.5q-13 0 -25 15t-12 28q0 18 11.5 23.5t31.5 2.5q23 -3 45.5 -15t45.5 -22
l23 -10q24 -12 46 -12q4 0 6 1q2 0 4 1q0 2 0.5 2.5t-12.5 5.5q-9 5 -11.5 7t-2.5 7q0 4 1.5 7.5t12.5 3.5z" />
    <glyph glyph-name="onesuperior" unicode="&#xb9;" horiz-adv-x="185" 
d="M157 453q11 -7 11 -18q0 -4 -1 -7q-2 -4 -9 -19.5l-17 -37l-21.5 -45.5l-21.5 -45l-17.5 -36l-9.5 -19q-2 -3 -7 -3t-7 4.5t-2 8.5q0 5 3 10q4 9 14.5 31l23.5 48l25.5 52.5l21.5 44.5q2 4 4.5 9.5t2.5 8.5t-5 3q-11 0 -26.5 -14.5t-30.5 -34.5t-27.5 -42t-18.5 -38
q-1 -2 -2.5 -4t-3.5 -2q-3 0 -10.5 1.5t-7.5 7.5q0 2 1 4q4 13 20 36t35.5 45t39.5 38t34 16q6 0 9 -3z" />
    <glyph glyph-name="twosuperior" unicode="&#xb2;" horiz-adv-x="224" 
d="M185.459 447.45q10.0254 -5.51172 15.54 -15.0312q5.51367 -9.51953 5.51367 -24.5508q0 -18.0371 -11.0283 -32.0664q-9.02344 -11.5234 -22.8086 -24.8008q-13.7852 -13.2783 -28.8232 -26.3047l-30.3271 -25.3027l-28.0723 -22.0459l-21.0537 -16.5342
q-8.27148 -6.76367 -9.77539 -8.2666q-3.50879 -3.00684 -3.50879 -5.01074q0 -2.50488 4.01074 -3.50684q4.00977 -1.00195 9.52441 -1.75391q5.51367 -0.751953 11.7793 -0.751953h10.7783q20.0508 0 38.8486 4.00879q18.7988 4.00781 28.8242 4.00781
q3.00781 0 7.01758 -5.00977q4.01074 -5.01074 4.01074 -11.5244q0 -4.00781 -6.2666 -6.01172q-6.26562 -2.00488 -15.79 -2.75586q-9.52441 -0.751953 -21.0537 -0.751953h-21.5557q-17.5449 0 -34.8389 0.250977q-17.2939 0.25 -33.335 0.25h-4.51172t-7.01758 1.00195
q-3.50879 1.00293 -6.01562 3.00684t-2.50684 6.01172q0 7.01465 1.75488 8.76855t2.25586 1.75391q3.00781 1.00195 13.7852 9.01855l25.3145 19.791l31.0801 26.0537l32.082 27.5576l27.8203 24.2998q12.2822 11.0225 17.7959 16.5342q10.5273 10.5215 16.793 21.2939
t6.26562 20.793q0 12.0254 -10.2754 21.5449q-10.2764 9.51953 -24.3125 9.51953q-6.5166 0 -14.5371 -1.50293t-16.041 -3.75781t-15.791 -5.26074l-13.7852 -5.51172q-9.02246 -4.00781 -17.043 -9.26855q-8.02051 -5.26172 -12.0312 -5.26172
q-1.50391 0 -7.26855 4.76074q-5.76465 4.75977 -5.76465 10.7715q0 5.51172 5.0127 7.7666t9.02344 4.25879q24.0615 12.5264 41.6064 17.7871t35.0898 4.25879q23.5596 -1.00195 43.6113 -12.5264z" />
    <glyph glyph-name="threesuperior" unicode="&#xb3;" horiz-adv-x="240" 
d="M225.142 453.062q2.35938 -0.946289 2.35938 -5.20215q0 -2.36426 -0.236328 -5.43848q-0.235352 -3.07324 -2.35938 -7.56641q-2.12305 -4.49219 -6.84082 -10.4033q-4.71777 -5.91211 -13.21 -13.9512q-11.7959 -10.877 -27.6006 -19.3887l-32.3184 -17.9707
q13.21 0 22.1748 -4.01953q8.96387 -4.01953 14.3896 -9.93066t7.54883 -13.2412t2.12305 -14.4238q0 -4.25586 -0.47168 -6.14746q-4.24609 -26.4824 -16.5127 -44.9248q-12.2676 -18.4434 -26.6572 -30.2656q-14.3896 -11.8232 -28.5439 -17.2617
q-14.1543 -5.4375 -22.1748 -5.91113q-6.60547 -0.472656 -12.9746 -0.708984t-12.9746 -0.236328q-6.13379 0 -14.8613 1.41895q-8.72852 1.41797 -16.9854 4.72852q-8.25586 3.31055 -14.1543 8.74902q-5.89746 5.43848 -5.89746 13.4775q0 2.83691 2.35938 5.20117
q2.35938 2.36523 5.18945 3.7832q3.30273 1.89258 7.54883 2.83789q2.35938 0 4.01074 -1.41895t2.59473 -2.83691q5.66211 -10.877 16.041 -13.7148q10.3799 -2.83691 17.457 -2.83691q27.8359 0 46.2363 9.69434t29.4883 22.4629q11.0869 12.7686 15.5693 25.5371
q4.48145 12.7676 4.48145 18.4424q0 11.8232 -9.43555 21.5176q-9.43652 9.69434 -34.9131 9.69434q-5.19043 0 -7.31348 0.236328t-5.66113 -0.236328l-10.6162 -1.41895t-22.1748 -3.7832q-0.943359 0 -1.17871 -0.236328q-0.236328 -0.236328 -1.17969 -0.236328
q-4.24609 0 -4.24609 4.25586q0 1.41895 1.65137 7.33008t6.84082 7.33008q6.13379 0.472656 19.8154 5.43848q13.6826 4.96484 30.9033 13.4775q17.2207 8.51172 35.6211 20.0977q18.4004 11.5869 33.9697 25.3008q0 4.25586 -2.35938 4.25586
q-26.8926 -2.83691 -53.5488 -6.38379q-26.6572 -3.54688 -54.9648 -3.54688q-3.77539 0 -6.60547 4.72852q-2.83105 4.72949 -2.83105 11.3496q0 4.25586 2.59473 6.14844q2.59473 1.89062 11.0879 1.89062q0.943359 0 8.72754 0.237305q7.78516 0.236328 19.5801 0.708984
t25.9492 1.18262q14.1543 0.708984 27.6006 1.18164t24.7695 0.709961q11.3232 0.236328 17.9287 0.236328h5.18945v0z" />
    <glyph glyph-name="onequarter" unicode="&#xbc;" horiz-adv-x="316" 
d="M151.126 452.836q3.89551 -3.41895 7.30469 -7.81641q3.40918 -4.39648 3.40918 -10.2588q0 -3.41895 -1.46094 -6.83887q-1.46094 -4.39648 -8.52246 -20.0293l-17.0449 -36.8838l-21.4277 -45.1885l-21.4287 -45.1895q-9.9834 -21.25 -17.7754 -36.3945
l-9.74023 -19.0527q-1.94727 -3.41992 -6.81738 -3.41992q-3.89648 0 -6.08789 4.88574q-2.19141 4.88477 -2.19141 8.79297t2.43555 9.77051l8.76562 18.0762l13.3926 27.6016l16.0713 33.2197l17.0449 35.6621l16.3145 33.9521l13.6357 28.335
q1.94824 3.41895 4.38281 8.79297q2.43555 5.37402 2.43555 8.79395q0 2.44238 -1.70508 2.68652q-1.7041 0.244141 -3.16504 0.244141q-10.7139 0 -26.0547 -14.167t-30.4375 -34.4414q-15.0967 -20.2734 -27.7588 -42.501q-12.6621 -22.2285 -18.5059 -37.8613
q-0.974609 -1.9541 -2.43555 -4.15234t-4.38281 -2.19824q-1.46094 0 -4.38281 0.244141t-5.84375 1.22168q-2.92285 0.976562 -5.11426 2.68652t-2.19141 4.64062q0 0.977539 0.974609 3.9082q2.92188 9.28223 11.2002 22.9609q8.2793 13.6787 19.7236 28.5791
q11.4443 14.8994 24.8369 30.0439t26.542 27.1133q13.1484 11.9688 25.3242 19.541q12.1748 7.57227 21.4277 7.57227q5.35645 0 9.25293 -2.93164zM246.767 439.277q5.88574 -4.04297 8.8291 -10.1084q2.94336 -6.06445 -0.420898 -12.5342
q-5.04492 -10.5127 -8.8291 -15.3643t-6.30664 -8.89551q-16.8174 -31.5371 -41.623 -82.4824l-51.2939 -105.934l-50.874 -105.934l-40.3623 -82.4834q-1.68164 -2.42578 -3.36328 -6.06445q-1.68164 -3.63965 -6.72656 -2.02148q-8.40918 0.808594 -7.56836 9.70312
l15.9766 45.2852q7.56836 21.834 16.8184 43.667q10.0898 25.877 28.1689 67.9277l37.4189 86.9297l37.4199 86.9307l29.0098 67.9268q1.68262 4.85254 4.625 10.917l5.46582 10.917q5.88672 11.3213 15.1357 9.7041q9.25 -1.61816 18.5 -8.08691zM287.965 105.047
q1.47656 -4.4248 1.47656 -8.84961q0 -10.8184 -5.9082 -14.5059q-5.91016 -3.6875 -12.3115 -5.16211q-5.90918 -10.3262 -10.833 -22.373l-9.11035 -22.3721t-7.63281 -17.21q-3.44629 -6.88281 -6.89355 -6.88281q-1.47754 0 -4.18555 0.245117
q-2.70898 0.246094 -5.66309 1.22949q-2.95508 0.983398 -5.1709 2.7041q-2.21582 1.72168 -2.21582 4.6709q0 6.39258 8.61719 22.127q8.61816 15.7344 18.4668 36.877q-9.84863 0 -20.6826 -0.245117q-10.833 -0.246094 -21.667 -0.246094h-44.0723
q-15.0195 0 -21.4209 0.983398t-7.14062 3.19629q-0.738281 2.21191 -0.738281 6.6377q0 2.45898 0.984375 5.4082q0.493164 1.47559 0.985352 2.45898q2.46191 0.983398 9.11035 9.09668l15.5117 19.9131l18.7119 26.0605l18.959 28.0273l16.4961 25.5684t11.3262 18.6836
q3.93945 7.86719 6.89355 15.7344q2.95508 7.86719 8.37109 7.86719q1.47754 0 4.18652 -0.245117q2.70801 -0.246094 5.41602 -1.22949q2.70898 -0.983398 4.9248 -2.7041q2.21582 -1.72168 2.21582 -4.6709q0 -1.47559 -4.18555 -11.5557
q-4.18555 -10.0791 -9.60254 -20.8975q-8.37109 -17.209 -20.9287 -34.418l-24.1289 -31.7148q-11.5723 -14.5059 -20.1895 -24.3398q-8.61816 -9.83398 -9.11035 -12.292q3.44727 -0.491211 14.7734 -0.983398t25.1133 -0.983398q13.7891 -0.491211 27.8232 -0.737305
t22.8975 -0.738281l6.64844 11.3096q2.70801 4.4248 4.43164 6.88379t3.44727 3.19629q1.72266 0.737305 4.18555 0.737305q2.46191 0 7.63281 -3.19629q5.16992 -3.19629 5.16992 -8.60449q0 -1.47461 -0.984375 -2.45898z" />
    <glyph glyph-name="onehalf" unicode="&#xbd;" horiz-adv-x="336" 
d="M300.033 216.696q8.94141 -4.93457 13.8584 -13.458q4.91699 -8.52441 4.91699 -21.9824q0 -16.1494 -9.83398 -28.7109q-8.04688 -10.3184 -20.3398 -22.2061t-25.7041 -23.5518l-27.0449 -22.6553l-25.0332 -19.7383l-18.7744 -14.8037
q-7.37598 -6.05664 -8.7168 -7.40234q-3.12891 -2.69141 -3.12891 -4.48633q0 -2.24316 3.57617 -3.14062q3.57617 -0.896484 8.49316 -1.56934t10.5049 -0.672852h9.61133q17.8809 0 34.6436 3.58887q16.7637 3.58887 25.7041 3.58887q2.68164 0 6.25781 -4.48633
t3.57617 -10.3184q0 -3.58887 -5.58789 -5.38281q-5.58789 -1.79492 -14.0811 -2.46777t-18.7744 -0.672852h-19.2227q-15.6455 0 -31.0674 0.224609q-15.4229 0.224609 -29.7275 0.224609h-4.02246q-3.12988 0 -6.25879 0.896484q-3.12891 0.897461 -5.36426 2.69141
q-2.23535 1.79492 -2.23535 5.38379q0 6.28027 1.56543 7.85059q1.56445 1.57031 2.01074 1.57031q2.68262 0.897461 12.2939 8.0752l22.5742 17.7197l27.7158 23.3271l28.6094 24.6738l24.8096 21.7578q10.9521 9.86914 15.8691 14.8037q9.3877 9.4209 14.9746 19.0664
q5.58789 9.64453 5.58789 18.6172q0 10.7666 -9.16406 19.29q-9.16309 8.52344 -21.6807 8.52344q-5.81055 0 -12.9629 -1.3457t-14.3047 -3.36523q-7.15234 -2.01855 -14.0811 -4.70996l-12.2939 -4.93457q-8.0459 -3.58887 -15.1982 -8.2998
q-7.15234 -4.70996 -10.7285 -4.70996q-1.34082 0 -6.48145 4.26172t-5.14062 9.64551q0 4.93457 4.46973 6.95312t8.0459 3.81348q21.457 11.2148 37.1035 15.9248q15.6455 4.71094 31.291 3.81348q21.0098 -0.897461 38.8906 -11.2148zM159.126 452.836
q3.89551 -3.41895 7.30469 -7.81641q3.40918 -4.39648 3.40918 -10.2588q0 -3.41895 -1.46094 -6.83887q-1.46094 -4.39648 -8.52246 -20.0293l-17.0449 -36.8838l-21.4277 -45.1885l-21.4287 -45.1895q-9.9834 -21.25 -17.7754 -36.3945l-9.74023 -19.0527
q-1.94727 -3.41992 -6.81738 -3.41992q-3.89648 0 -6.08789 4.88574q-2.19141 4.88477 -2.19141 8.79297t2.43555 9.77051l8.76562 18.0762l13.3926 27.6016l16.0713 33.2197l17.0449 35.6621l16.3145 33.9521l13.6357 28.335q1.94824 3.41895 4.38281 8.79297
q2.43555 5.37402 2.43555 8.79395q0 2.44238 -1.70508 2.68652q-1.7041 0.244141 -3.16504 0.244141q-10.7139 0 -26.0547 -14.167t-30.4375 -34.4414q-15.0967 -20.2734 -27.7588 -42.501q-12.6621 -22.2285 -18.5059 -37.8613q-0.974609 -1.9541 -2.43555 -4.15234
t-4.38281 -2.19824q-1.46094 0 -4.38281 0.244141t-5.84375 1.22168q-2.92285 0.976562 -5.11426 2.68652t-2.19141 4.64062q0 0.977539 0.974609 3.9082q2.92188 9.28223 11.2002 22.9609q8.2793 13.6787 19.7236 28.5791q11.4443 14.8994 24.8369 30.0439t26.542 27.1133
q13.1484 11.9688 25.3242 19.541q12.1748 7.57227 21.4277 7.57227q5.35645 0 9.25293 -2.93164zM254.767 439.277q5.88574 -4.04297 8.8291 -10.1084q2.94336 -6.06445 -0.420898 -12.5342q-5.04492 -10.5127 -8.8291 -15.3643t-6.30664 -8.89551
q-16.8174 -31.5371 -41.623 -82.4824l-51.2939 -105.934l-50.874 -105.934l-40.3623 -82.4834q-1.68164 -2.42578 -3.36328 -6.06445q-1.68164 -3.63965 -6.72656 -2.02148q-8.40918 0.808594 -7.56836 9.70312l15.9766 45.2852q7.56836 21.834 16.8184 43.667
q10.0898 25.877 28.1689 67.9277l37.4189 86.9297l37.4199 86.9307l29.0098 67.9268q1.68262 4.85254 4.625 10.917l5.46582 10.917q5.88672 11.3213 15.1357 9.7041q9.25 -1.61816 18.5 -8.08691z" />
    <glyph glyph-name="threequarters" unicode="&#xbe;" horiz-adv-x="355" 
d="M225.082 453.204q2.33594 -0.933594 2.33594 -5.13379q0 -2.33301 -0.233398 -5.36719q-0.233398 -3.0332 -2.33594 -7.4668q-2.10254 -4.43262 -6.77637 -10.2666q-4.67188 -5.83301 -13.084 -13.7666q-11.6816 -10.7334 -27.3359 -19.1338l-32.0088 -17.7334
q13.084 0 21.9619 -3.9668q8.87891 -3.9668 14.2529 -9.80078q5.37402 -5.83301 7.47656 -13.0664t2.10254 -14.2334q0 -4.2002 -0.466797 -6.06738q-4.20605 -26.1338 -16.3555 -44.334t-26.4014 -29.8672q-14.2529 -11.667 -28.2705 -17.0332
q-14.0195 -5.36719 -21.9629 -5.83398q-6.54199 -0.466797 -12.8506 -0.699219q-6.30762 -0.233398 -12.8506 -0.233398q-6.07422 0 -14.7188 1.39941q-8.64453 1.40039 -16.8223 4.66699t-14.0186 8.63379q-5.84082 5.36621 -5.84082 13.2998q0 2.7998 2.33594 5.13379
q2.33594 2.33301 5.14062 3.7334q3.27051 1.86621 7.47656 2.7998q2.33594 0 3.97168 -1.40039q1.63574 -1.39941 2.56934 -2.7998q5.60742 -10.7334 15.8887 -13.5332q10.2793 -2.7998 17.2891 -2.7998q27.5703 0 45.7939 9.56641t29.2051 22.167t15.4209 25.2002
q4.43945 12.6006 4.43945 18.2002q0 11.667 -9.3457 21.2344q-9.3457 9.56641 -34.5801 9.56641q-5.13965 0 -7.24219 0.233398q-2.10352 0.233398 -5.60742 -0.233398l-10.5137 -1.39941q-7.00977 -0.933594 -21.9629 -3.73438q-0.93457 0 -1.16797 -0.232422
q-0.234375 -0.233398 -1.16797 -0.233398q-4.20605 0 -4.20605 4.2002q0 1.39941 1.63574 7.2334q1.63477 5.83301 6.77539 7.2334q6.07422 0.466797 19.626 5.36621q13.5518 4.90039 30.6074 13.3008q17.0557 8.39941 35.2803 19.833q18.2236 11.4336 33.6445 24.9678
q0 4.2002 -2.33691 4.2002q-26.6357 -2.80078 -53.0371 -6.30078t-54.4385 -3.5q-3.73828 0 -6.54199 4.66699t-2.80371 11.2002q0 4.2002 2.57031 6.06641q2.57031 1.86719 10.9805 1.86719q0.935547 0 8.64551 0.233398t19.3916 0.700195q11.6826 0.46582 25.7012 1.16602
t27.3359 1.16699q13.3184 0.466797 24.5332 0.700195t17.7559 0.233398h5.14062v0zM293.767 439.277q5.88574 -4.04297 8.8291 -10.1084q2.94336 -6.06445 -0.420898 -12.5342q-5.04492 -10.5127 -8.8291 -15.3643t-6.30664 -8.89551q-16.8174 -31.5371 -41.623 -82.4824
l-51.2939 -105.934l-50.874 -105.934l-40.3623 -82.4834q-1.68164 -2.42578 -3.36328 -6.06445q-1.68164 -3.63965 -6.72656 -2.02148q-8.40918 0.808594 -7.56836 9.70312l15.9766 45.2852q7.56836 21.834 16.8184 43.667q10.0898 25.877 28.1689 67.9277l37.4189 86.9297
l37.4199 86.9307l29.0098 67.9268q1.68262 4.85254 4.625 10.917l5.46582 10.917q5.88672 11.3213 15.1357 9.7041q9.25 -1.61816 18.5 -8.08691zM334.965 105.047q1.47656 -4.4248 1.47656 -8.84961q0 -10.8184 -5.9082 -14.5059q-5.91016 -3.6875 -12.3115 -5.16211
q-5.90918 -10.3262 -10.833 -22.373l-9.11035 -22.3721t-7.63281 -17.21q-3.44629 -6.88281 -6.89355 -6.88281q-1.47754 0 -4.18555 0.245117q-2.70898 0.246094 -5.66309 1.22949q-2.95508 0.983398 -5.1709 2.7041q-2.21582 1.72168 -2.21582 4.6709
q0 6.39258 8.61719 22.127q8.61816 15.7344 18.4668 36.877q-9.84863 0 -20.6826 -0.245117q-10.833 -0.246094 -21.667 -0.246094h-44.0723q-15.0195 0 -21.4209 0.983398t-7.14062 3.19629q-0.738281 2.21191 -0.738281 6.6377q0 2.45898 0.984375 5.4082
q0.493164 1.47559 0.985352 2.45898q2.46191 0.983398 9.11035 9.09668l15.5117 19.9131l18.7119 26.0605l18.959 28.0273l16.4961 25.5684t11.3262 18.6836q3.93945 7.86719 6.89355 15.7344q2.95508 7.86719 8.37109 7.86719q1.47754 0 4.18652 -0.245117
q2.70801 -0.246094 5.41602 -1.22949q2.70898 -0.983398 4.9248 -2.7041q2.21582 -1.72168 2.21582 -4.6709q0 -1.47559 -4.18555 -11.5557q-4.18555 -10.0791 -9.60254 -20.8975q-8.37109 -17.209 -20.9287 -34.418l-24.1289 -31.7148q-11.5723 -14.5059 -20.1895 -24.3398
q-8.61816 -9.83398 -9.11035 -12.292q3.44727 -0.491211 14.7734 -0.983398t25.1133 -0.983398q13.7891 -0.491211 27.8232 -0.737305t22.8975 -0.738281l6.64844 11.3096q2.70801 4.4248 4.43164 6.88379t3.44727 3.19629q1.72266 0.737305 4.18555 0.737305
q2.46191 0 7.63281 -3.19629q5.16992 -3.19629 5.16992 -8.60449q0 -1.47461 -0.984375 -2.45898z" />
    <glyph glyph-name="guillemotleft" unicode="&#xab;" horiz-adv-x="321" 
d="M143 51q6 -3 11 -6t10 -5q4 -3 9 -5q2 -7 -3.5 -11.5t-12.5 -2.5q-4 0 -18 7q-8 4 -17 8l-19 10.5t-21 10.5l-41 21.5t-20 11.5t-5.5 6.5t2.5 6.5q1 1 2 2.5t2 2.5l2 2q4 0 24 9t44 21.5l46.5 25t33.5 19.5q8 6 14.5 12t11.5 3q2 -1 7.5 -6t3.5 -11q-1 -1 -9.5 -8
t-19.5 -15q-17 -12 -37 -22.5t-38 -18.5t-31 -13t-14 -7q3 -2 13 -8l23 -13.5l26 -14.5t21 -12zM239 51q6 -3 11 -6t10 -5q4 -3 9 -5q2 -7 -3.5 -11.5t-12.5 -2.5q-4 0 -18 7q-8 4 -17 8l-19 10.5t-21 10.5l-41 21.5t-20 11.5t-5.5 6.5t2.5 6.5q1 1 2 2.5t2 2.5l2 2
q4 0 24 9t44 21.5l46.5 25t33.5 19.5q8 6 14.5 12t11.5 3q2 -1 7.5 -6t3.5 -11q-1 -1 -9.5 -8t-19.5 -15q-17 -12 -37 -22.5t-38 -18.5t-31 -13t-14 -7q3 -2 13 -8l23 -13.5l26 -14.5t21 -12z" />
    <glyph glyph-name="guillemotright" unicode="&#xbb;" horiz-adv-x="316" 
d="M175 51q8 5 21 12t25.5 14.5l23 13.5t13.5 8q-2 2 -14.5 7t-30.5 13t-38.5 18.5t-36.5 22.5q-11 8 -19.5 15t-9.5 8q-2 6 3.5 11t7.5 6q5 3 11.5 -3t14.5 -12q10 -7 33 -19.5l47 -25t43.5 -21.5t24.5 -9l2 -2q1 -1 2 -2.5t2 -2.5q2 -4 2.5 -6.5t-5.5 -6.5t-20 -11.5
l-41 -21.5q-11 -5 -21 -10.5l-19 -10.5q-10 -4 -17 -8q-16 -7 -18 -7q-7 -2 -12.5 2.5t-3.5 11.5q4 2 9 5q4 2 9.5 5zM79 51q8 5 21 12t25.5 14.5l23 13.5t13.5 8q-2 2 -14.5 7t-30.5 13t-38.5 18.5t-36.5 22.5q-11 8 -19.5 15t-9.5 8q-2 6 3.5 11t7.5 6q5 3 11.5 -3
t14.5 -12q10 -7 33 -19.5l47 -25t43.5 -21.5t24.5 -9l2 -2q1 -1 2 -2.5t2 -2.5q2 -4 2.5 -6.5t-5.5 -6.5t-20 -11.5l-41 -21.5q-11 -5 -21 -10.5l-19 -10.5q-10 -4 -17 -8q-16 -7 -18 -7q-7 -2 -12.5 2.5t-3.5 11.5q4 2 9 5q4 2 9.5 5z" />
    <glyph glyph-name="multiply" unicode="&#xd7;" horiz-adv-x="136" 
d="M115 74q7 -7 -7 -16q-8 -5 -9.5 -3.5t-3.5 4.5l-31 37l-17 -21.5t-12 -17.5q-7 -7 -18 5q-7 6 -5.5 8.5t3.5 4.5l34 41l-23 30q-4 6 -7.5 15.5t7.5 17.5q3 3 10 5q0 -6 2.5 -12t5.5 -12l9 -11.5t13 -15.5l12.5 14t9.5 10q3 3 6.5 6t7.5 5t9 1.5t10 -5.5q2 -2 3.5 -4
t3.5 -4q-14 -5 -22 -14q-5 -4 -11.5 -11l-14.5 -16l20 -24t15 -17z" />
    <glyph glyph-name="divide" unicode="&#xf7;" horiz-adv-x="174" 
d="M81 96q19 2 19 -21q0 -13 -11.5 -23t-19.5 -11q-9 0 -14.5 5.5t-6.5 13.5q0 5 4.5 17t28.5 19zM108 201q19 2 19 -21q0 -13 -11.5 -23t-19.5 -11q-9 0 -14.5 5.5t-6.5 13.5q0 5 4.5 17t28.5 19zM152 140q9 0 9 -16q0 -9 -2.5 -9.5t-5.5 -1.5q-8 0 -23.5 -1l-32 -2
l-31.5 -2t-23 -1t-18 2t-10 16q0 7 1 11q12 -6 25 -6q8 0 23 1t32 2.5l32.5 3t23.5 3.5z" />
    <glyph glyph-name="cedilla" unicode="&#xb8;" horiz-adv-x="135" 
d="M-17 -144q-2 1 -4.5 2.5t1.5 6.5t10.5 8.5t8.5 3.5q3 0 5.5 -4.5t7.5 -7.5q21 -14 40 -7.5t35 25.5q7 8 7.5 20.5t-3 25t-9.5 22.5t-12 13q-3 20 1 30t9 13.5t9 2.5t3 -3l-1.5 -5l-3 -10t-2 -10l-0.5 -5q5 -6 13.5 -18.5t13.5 -28t4.5 -32t-12.5 -30.5q-11 -14 -26.5 -22
t-32 -10t-33 3t-29.5 17z" />
    <glyph glyph-name="ordmasculine" unicode="&#xba;" horiz-adv-x="160" 
d="M99 398q23 3 38 -9.5t15 -46.5q0 -19 -9.5 -35.5t-23 -29.5t-28.5 -21t-26 -9q-23 0 -38.5 16.5t-18.5 36.5q0 6 2 18.5t11 27.5t27 29.5t51 22.5zM92 375q-21 -7 -33.5 -17t-19 -20.5t-8.5 -19.5t-2 -13q5 -13 16 -23.5t24 -10.5q9 0 19 5t18.5 13t14.5 19.5t6 25.5
q0 26 -8.5 33.5t-26.5 7.5z" />
    <glyph glyph-name="Agrave" unicode="&#xc0;" horiz-adv-x="371" 
d="M-37 139q-17 -2 -23.5 1t-8.5 8q-3 5 0 13l112.5 15.5l122.5 16.5l87.5 90.5l80.5 83l60 62l27 27.5q14 15 33 5q1 -1 5.5 -3t5.5 -3q9 -6 15.5 -11.5t-4.5 -18.5q-10 -11 -26.5 -34.5l-37 -54.5l-42.5 -66.5l-43 -69.5q8 -1 11 -10.5t-6 -11.5h-18l-40.5 -70.5
t-23.5 -47.5q-4 -9 -6.5 -20t-0.5 -23q1 -6 14 1t28 19t28 23.5t15 13.5q3 2 5.5 6t4.5 8t5.5 7t8.5 3q9 0 11 -7.5t-3 -12.5l-46 -40t-51 -37q-12 -9 -21 -10.5t-15 1t-10 7t-6 7.5q-3 7 -1 21t8.5 33t17 41.5l22.5 46.5q1 3 3.5 8t5 9.5t4 7.5l1.5 3l-35.5 -4l-36.5 -4
l-83.5 -90.5t-75.5 -94.5q-8 -12 -18 -20q-8 -7 -14 -7t-11.5 3.5t-9.5 9t-7 8.5q-8 7 -4.5 12.5t6.5 9.5q21 18 38.5 38l34.5 41t36 41.5t42 40.5l-86 -10.5zM374 361q1 1 -11 -11.5l-32.5 -35l-47 -52.5l-54.5 -62q31 4 60 6l28 51l25.5 45.5l20 36t11.5 22.5zM423 506
q2 4 11.5 8t11.5 3q10 -2 17.5 -6t14 -9.5t14 -11t16.5 -9.5q-2 0 -3.5 -0.5t-3.5 -0.5q-8 2 -15 2.5t-15 1.5q-12 2 -22.5 5.5t-21.5 8.5q-5 5 -4 8z" />
    <glyph glyph-name="Aacute" unicode="&#xc1;" horiz-adv-x="371" 
d="M-37 139q-17 -2 -23.5 1t-8.5 8q-3 5 0 13l112.5 15.5l122.5 16.5l87.5 90.5l80.5 83l60 62l27 27.5q14 15 33 5q1 -1 5.5 -3t5.5 -3q9 -6 15.5 -11.5t-4.5 -18.5q-10 -11 -26.5 -34.5l-37 -54.5l-42.5 -66.5l-43 -69.5q8 -1 11 -10.5t-6 -11.5h-18l-40.5 -70.5
t-23.5 -47.5q-4 -9 -6.5 -20t-0.5 -23q1 -6 14 1t28 19t28 23.5t15 13.5q3 2 5.5 6t4.5 8t5.5 7t8.5 3q9 0 11 -7.5t-3 -12.5l-46 -40t-51 -37q-12 -9 -21 -10.5t-15 1t-10 7t-6 7.5q-3 7 -1 21t8.5 33t17 41.5l22.5 46.5q1 3 3.5 8t5 9.5t4 7.5l1.5 3l-35.5 -4l-36.5 -4
l-83.5 -90.5t-75.5 -94.5q-8 -12 -18 -20q-8 -7 -14 -7t-11.5 3.5t-9.5 9t-7 8.5q-8 7 -4.5 12.5t6.5 9.5q21 18 38.5 38l34.5 41t36 41.5t42 40.5l-86 -10.5zM374 361q1 1 -11 -11.5l-32.5 -35l-47 -52.5l-54.5 -62q31 4 60 6l28 51l25.5 45.5l20 36t11.5 22.5zM505 504
q1 -3 -4 -8q-11 -5 -21.5 -8.5t-22.5 -5.5q-8 -1 -15 -1.5t-15 -2.5q-2 0 -3.5 0.5t-3.5 0.5q9 4 16 9.5l14 11t14.5 9.5t17.5 6q2 1 11.5 -3t11.5 -8z" />
    <glyph glyph-name="Acircumflex" unicode="&#xc2;" horiz-adv-x="371" 
d="M-37 139q-17 -2 -23.5 1t-8.5 8q-3 5 0 13l112.5 15.5l122.5 16.5l87.5 90.5l80.5 83l60 62l27 27.5q14 15 33 5q1 -1 5.5 -3t5.5 -3q9 -6 15.5 -11.5t-4.5 -18.5q-10 -11 -26.5 -34.5l-37 -54.5l-42.5 -66.5l-43 -69.5q8 -1 11 -10.5t-6 -11.5h-18l-40.5 -70.5
t-23.5 -47.5q-4 -9 -6.5 -20t-0.5 -23q1 -6 14 1t28 19t28 23.5t15 13.5q3 2 5.5 6t4.5 8t5.5 7t8.5 3q9 0 11 -7.5t-3 -12.5l-46 -40t-51 -37q-12 -9 -21 -10.5t-15 1t-10 7t-6 7.5q-3 7 -1 21t8.5 33t17 41.5l22.5 46.5q1 3 3.5 8t5 9.5t4 7.5l1.5 3l-35.5 -4l-36.5 -4
l-83.5 -90.5t-75.5 -94.5q-8 -12 -18 -20q-8 -7 -14 -7t-11.5 3.5t-9.5 9t-7 8.5q-8 7 -4.5 12.5t6.5 9.5q21 18 38.5 38l34.5 41t36 41.5t42 40.5l-86 -10.5zM374 361q1 1 -11 -11.5l-32.5 -35l-47 -52.5l-54.5 -62q31 4 60 6l28 51l25.5 45.5l20 36t11.5 22.5zM399 496
q20 7 33 16.5t33 11.5h1h3q19 -6 29.5 -19t27.5 -24h1q-17 0 -34.5 3t-28.5 14q-6 -3 -16.5 -4.5t-20.5 -2t-18 0.5t-11 4q-1 0 1 -0.5t0 0.5z" />
    <glyph glyph-name="Atilde" unicode="&#xc3;" horiz-adv-x="371" 
d="M-37 139q-17 -2 -23.5 1t-8.5 8q-3 5 0 13l112.5 15.5l122.5 16.5l87.5 90.5l80.5 83l60 62l27 27.5q14 15 33 5q1 -1 5.5 -3t5.5 -3q9 -6 15.5 -11.5t-4.5 -18.5q-10 -11 -26.5 -34.5l-37 -54.5l-42.5 -66.5l-43 -69.5q8 -1 11 -10.5t-6 -11.5h-18l-40.5 -70.5
t-23.5 -47.5q-4 -9 -6.5 -20t-0.5 -23q1 -6 14 1t28 19t28 23.5t15 13.5q3 2 5.5 6t4.5 8t5.5 7t8.5 3q9 0 11 -7.5t-3 -12.5l-46 -40t-51 -37q-12 -9 -21 -10.5t-15 1t-10 7t-6 7.5q-3 7 -1 21t8.5 33t17 41.5l22.5 46.5q1 3 3.5 8t5 9.5t4 7.5l1.5 3l-35.5 -4l-36.5 -4
l-83.5 -90.5t-75.5 -94.5q-8 -12 -18 -20q-8 -7 -14 -7t-11.5 3.5t-9.5 9t-7 8.5q-8 7 -4.5 12.5t6.5 9.5q21 18 38.5 38l34.5 41t36 41.5t42 40.5l-86 -10.5zM374 361q1 1 -11 -11.5l-32.5 -35l-47 -52.5l-54.5 -62q31 4 60 6l28 51l25.5 45.5l20 36t11.5 22.5zM503 511
q6 0 14 -7.5t8 -14.5q0 -13 -10.5 -14.5t-24.5 2.5t-27 10.5t-18 9.5q-2 0 -4.5 1.5t-3.5 2.5h1q-3 2 -8.5 3t-8.5 2l-3 -3q1 -1 4 -1q5 -1 7.5 -4t2.5 -5t-1 -5t-9 -3q-6 0 -13 8.5t-7 14.5q0 10 6.5 13t16.5 2q6 -1 13 -3.5t13 -5.5q1 0 2 -1t2 -1l13 -5l2 -2l11 -5
q12 -6 23 -6h1q-1 0 -1 0.5t-1 0.5q-6 3 -7.5 4.5t-1.5 4.5q0 2 1 4.5t8 2.5z" />
    <glyph glyph-name="Adieresis" unicode="&#xc4;" horiz-adv-x="371" 
d="M-37 139q-17 -2 -23.5 1t-8.5 8q-3 5 0 13l112.5 15.5l122.5 16.5l87.5 90.5l80.5 83l60 62l27 27.5q14 15 33 5q1 -1 5.5 -3t5.5 -3q9 -6 15.5 -11.5t-4.5 -18.5q-10 -11 -26.5 -34.5l-37 -54.5l-42.5 -66.5l-43 -69.5q8 -1 11 -10.5t-6 -11.5h-18l-40.5 -70.5
t-23.5 -47.5q-4 -9 -6.5 -20t-0.5 -23q1 -6 14 1t28 19t28 23.5t15 13.5q3 2 5.5 6t4.5 8t5.5 7t8.5 3q9 0 11 -7.5t-3 -12.5l-46 -40t-51 -37q-12 -9 -21 -10.5t-15 1t-10 7t-6 7.5q-3 7 -1 21t8.5 33t17 41.5l22.5 46.5q1 3 3.5 8t5 9.5t4 7.5l1.5 3l-35.5 -4l-36.5 -4
l-83.5 -90.5t-75.5 -94.5q-8 -12 -18 -20q-8 -7 -14 -7t-11.5 3.5t-9.5 9t-7 8.5q-8 7 -4.5 12.5t6.5 9.5q21 18 38.5 38l34.5 41t36 41.5t42 40.5l-86 -10.5zM374 361q1 1 -11 -11.5l-32.5 -35l-47 -52.5l-54.5 -62q31 4 60 6l28 51l25.5 45.5l20 36t11.5 22.5zM443 517
q14 2 14 -15q0 -10 -8.5 -17t-14.5 -8q-6 0 -10 4.5t-5 9.5q0 3 3.5 12t20.5 14zM494 517q14 2 14 -15q0 -10 -8.5 -17t-14.5 -8q-6 0 -10 4.5t-5 9.5q0 3 3.5 12t20.5 14z" />
    <glyph glyph-name="Aring" unicode="&#xc5;" horiz-adv-x="371" 
d="M-37 139q-17 -2 -23.5 1t-8.5 8q-3 5 0 13l112.5 15.5l122.5 16.5l87.5 90.5l80.5 83l60 62l27 27.5q14 15 33 5q1 -1 5.5 -3t5.5 -3q9 -6 15.5 -11.5t-4.5 -18.5q-10 -11 -26.5 -34.5l-37 -54.5l-42.5 -66.5l-43 -69.5q8 -1 11 -10.5t-6 -11.5h-18l-40.5 -70.5
t-23.5 -47.5q-4 -9 -6.5 -20t-0.5 -23q1 -6 14 1t28 19t28 23.5t15 13.5q3 2 5.5 6t4.5 8t5.5 7t8.5 3q9 0 11 -7.5t-3 -12.5l-46 -40t-51 -37q-12 -9 -21 -10.5t-15 1t-10 7t-6 7.5q-3 7 -1 21t8.5 33t17 41.5l22.5 46.5q1 3 3.5 8t5 9.5t4 7.5l1.5 3l-35.5 -4l-36.5 -4
l-83.5 -90.5t-75.5 -94.5q-8 -12 -18 -20q-8 -7 -14 -7t-11.5 3.5t-9.5 9t-7 8.5q-8 7 -4.5 12.5t6.5 9.5q21 18 38.5 38l34.5 41t36 41.5t42 40.5l-86 -10.5zM374 361q1 1 -11 -11.5l-32.5 -35l-47 -52.5l-54.5 -62q31 4 60 6l28 51l25.5 45.5l20 36t11.5 22.5zM476 519
q14 2 14 -15q0 -10 -8.5 -17t-14.5 -8q-6 0 -10 4.5t-5 9.5q0 3 3.5 12t20.5 14zM473 508q-8 -2 -9.5 -6t-1.5 -6q2 -6 7 -6q3 0 6.5 3t3.5 8q0 7 -6 7z" />
    <glyph glyph-name="Ccedilla" unicode="&#xc7;" horiz-adv-x="240" 
d="M243 47q-13 -19 -31.5 -31.5t-37.5 -20t-36 -10.5t-26 -3q-14 0 -26 3q1 -3 4.5 -10t7 -16t6.5 -19t3 -19q0 -7 -8 -17q-14 -15 -28 -21q-15 -6 -28 -6q-10 -1 -16.5 2t-14.5 10q-2 0 -3 1.5t1 4.5q3 3 7.5 5.5t5.5 2.5q2 0 4 -3t5 -5q5 -3 11.5 -5.5t13.5 -2.5q8 0 17 5
t14 11q9 9 7 22q-1 4 -4 13.5t-6.5 18.5t-6.5 16t-5 8q0 3 2 7q-32 12 -47 43.5t-15 65.5q0 44 19 88t51 84.5t73 75.5t85 60.5t88 40t81 14.5q1 0 6.5 0.5t11.5 -2t10.5 -10.5t4.5 -24q0 -11 -9.5 -13.5t-28 -3.5t-45.5 -5t-62 -17q-41 -16 -85 -45t-80.5 -68t-60.5 -86.5
t-24 -100.5q0 -48 19 -67.5t45 -19.5q28 0 55.5 10.5t48.5 35.5q5 5 8 14t12 9q13 0 11 -10q-1 -4 -4 -10z" />
    <glyph glyph-name="Egrave" unicode="&#xc8;" horiz-adv-x="308" 
d="M40 -17q-12 8 -22 27.5t-10 51.5q0 29 9 60.5t28 57t49 42t72 16.5q-12 1 -25 5t-23.5 10.5t-17.5 16.5t-7 24q0 33 18 57.5t46.5 42.5t62.5 29t66 18t57 9.5t36 2.5q8 0 14.5 -10t6.5 -24q0 -11 -13.5 -13.5t-27.5 -2.5q-33 0 -74 -7t-77 -21t-60 -34t-24 -47
q0 -8 6.5 -13t22.5 -9.5t42.5 -8.5l66.5 -10l19.5 -3.5t8.5 -7.5q0 -8 -10.5 -10.5t-13.5 -1.5q-10 3 -40 4t-64.5 -6t-66.5 -25.5t-47 -55.5q-6 -14 -10 -34.5t-2 -40.5t12 -37t34 -24q29 -9 61.5 1.5t60.5 30.5q14 10 26 20t23 17q6 4 16 -1t18 -17q7 -12 -6.5 -21.5
l-27.5 -18.5q-16 -10 -42 -23t-56 -22t-60 -9.5t-55 15.5zM270 499q2 4 11.5 8t11.5 3q10 -2 17.5 -6t14 -9.5t14 -11t16.5 -9.5q-2 0 -3.5 -0.5t-3.5 -0.5q-8 2 -15 2.5t-15 1.5q-12 2 -22.5 5.5t-21.5 8.5q-5 5 -4 8z" />
    <glyph glyph-name="Eacute" unicode="&#xc9;" horiz-adv-x="308" 
d="M40 -17q-12 8 -22 27.5t-10 51.5q0 29 9 60.5t28 57t49 42t72 16.5q-12 1 -25 5t-23.5 10.5t-17.5 16.5t-7 24q0 33 18 57.5t46.5 42.5t62.5 29t66 18t57 9.5t36 2.5q8 0 14.5 -10t6.5 -24q0 -11 -13.5 -13.5t-27.5 -2.5q-33 0 -74 -7t-77 -21t-60 -34t-24 -47
q0 -8 6.5 -13t22.5 -9.5t42.5 -8.5l66.5 -10l19.5 -3.5t8.5 -7.5q0 -8 -10.5 -10.5t-13.5 -1.5q-10 3 -40 4t-64.5 -6t-66.5 -25.5t-47 -55.5q-6 -14 -10 -34.5t-2 -40.5t12 -37t34 -24q29 -9 61.5 1.5t60.5 30.5q14 10 26 20t23 17q6 4 16 -1t18 -17q7 -12 -6.5 -21.5
l-27.5 -18.5q-16 -10 -42 -23t-56 -22t-60 -9.5t-55 15.5zM355 509q1 -3 -4 -8q-11 -5 -21.5 -8.5t-22.5 -5.5q-8 -1 -15 -1.5t-15 -2.5q-2 0 -3.5 0.5t-3.5 0.5q9 4 16 9.5l14 11t14.5 9.5t17.5 6q2 1 11.5 -3t11.5 -8z" />
    <glyph glyph-name="Ecircumflex" unicode="&#xca;" horiz-adv-x="308" 
d="M40 -17q-12 8 -22 27.5t-10 51.5q0 29 9 60.5t28 57t49 42t72 16.5q-12 1 -25 5t-23.5 10.5t-17.5 16.5t-7 24q0 33 18 57.5t46.5 42.5t62.5 29t66 18t57 9.5t36 2.5q8 0 14.5 -10t6.5 -24q0 -11 -13.5 -13.5t-27.5 -2.5q-33 0 -74 -7t-77 -21t-60 -34t-24 -47
q0 -8 6.5 -13t22.5 -9.5t42.5 -8.5l66.5 -10l19.5 -3.5t8.5 -7.5q0 -8 -10.5 -10.5t-13.5 -1.5q-10 3 -40 4t-64.5 -6t-66.5 -25.5t-47 -55.5q-6 -14 -10 -34.5t-2 -40.5t12 -37t34 -24q29 -9 61.5 1.5t60.5 30.5q14 10 26 20t23 17q6 4 16 -1t18 -17q7 -12 -6.5 -21.5
l-27.5 -18.5q-16 -10 -42 -23t-56 -22t-60 -9.5t-55 15.5zM243 497q20 7 33 16.5t33 11.5h1h3q19 -6 29.5 -19t27.5 -24h1q-17 0 -34.5 3t-28.5 14q-6 -3 -16.5 -4.5t-20.5 -2t-18 0.5t-11 4q-1 0 1 -0.5t0 0.5z" />
    <glyph glyph-name="Edieresis" unicode="&#xcb;" horiz-adv-x="308" 
d="M40 -17q-12 8 -22 27.5t-10 51.5q0 29 9 60.5t28 57t49 42t72 16.5q-12 1 -25 5t-23.5 10.5t-17.5 16.5t-7 24q0 33 18 57.5t46.5 42.5t62.5 29t66 18t57 9.5t36 2.5q8 0 14.5 -10t6.5 -24q0 -11 -13.5 -13.5t-27.5 -2.5q-33 0 -74 -7t-77 -21t-60 -34t-24 -47
q0 -8 6.5 -13t22.5 -9.5t42.5 -8.5l66.5 -10l19.5 -3.5t8.5 -7.5q0 -8 -10.5 -10.5t-13.5 -1.5q-10 3 -40 4t-64.5 -6t-66.5 -25.5t-47 -55.5q-6 -14 -10 -34.5t-2 -40.5t12 -37t34 -24q29 -9 61.5 1.5t60.5 30.5q14 10 26 20t23 17q6 4 16 -1t18 -17q7 -12 -6.5 -21.5
l-27.5 -18.5q-16 -10 -42 -23t-56 -22t-60 -9.5t-55 15.5zM289 517q14 2 14 -15q0 -10 -8.5 -17t-14.5 -8q-6 0 -10 4.5t-5 9.5q0 3 3.5 12t20.5 14zM340 517q14 2 14 -15q0 -10 -8.5 -17t-14.5 -8q-6 0 -10 4.5t-5 9.5q0 3 3.5 12t20.5 14z" />
    <glyph glyph-name="Igrave" unicode="&#xcc;" horiz-adv-x="256" 
d="M46 146q-8 2 -20 4t-12 14q0 2 2 8q8 21 28 50.5t47 61t58.5 62.5t61.5 55.5t56.5 39.5t43.5 15q14 0 27 -13t13 -31q0 -8 -2 -13q-3 -8 -16.5 -37.5l-32 -69.5l-40.5 -86l-41.5 -88l-35 -75.5t-21.5 -48.5q-2 -5 -5 -14.5t-13 -9.5q-3 0 -9 0.5t-12 2t-10 5.5t-4 10
q0 8 4 16t8 15q9 20 27 56.5l39.5 80l44 89l41 83.5l30.5 64t12 31q0 4 -4 5t-6 1q-11 0 -31 -13.5t-44 -36t-50 -51.5t-49 -59t-41 -58.5t-26 -51.5q-2 -5 -5 -9t-10 -4h-3v0zM285 505q2 4 11.5 8t11.5 3q10 -2 17.5 -6t14 -9.5t14 -11t16.5 -9.5q-2 0 -3.5 -0.5t-3.5 -0.5
q-8 2 -15 2.5t-15 1.5q-12 2 -22.5 5.5t-21.5 8.5q-5 5 -4 8z" />
    <glyph glyph-name="Iacute" unicode="&#xcd;" horiz-adv-x="256" 
d="M46 146q-8 2 -20 4t-12 14q0 2 2 8q8 21 28 50.5t47 61t58.5 62.5t61.5 55.5t56.5 39.5t43.5 15q14 0 27 -13t13 -31q0 -8 -2 -13q-3 -8 -16.5 -37.5l-32 -69.5l-40.5 -86l-41.5 -88l-35 -75.5t-21.5 -48.5q-2 -5 -5 -14.5t-13 -9.5q-3 0 -9 0.5t-12 2t-10 5.5t-4 10
q0 8 4 16t8 15q9 20 27 56.5l39.5 80l44 89l41 83.5l30.5 64t12 31q0 4 -4 5t-6 1q-11 0 -31 -13.5t-44 -36t-50 -51.5t-49 -59t-41 -58.5t-26 -51.5q-2 -5 -5 -9t-10 -4h-3v0zM355 500q1 -3 -4 -8q-11 -5 -21.5 -8.5t-22.5 -5.5q-8 -1 -15 -1.5t-15 -2.5q-2 0 -3.5 0.5
t-3.5 0.5q9 4 16 9.5l14 11t14.5 9.5t17.5 6q2 1 11.5 -3t11.5 -8z" />
    <glyph glyph-name="Icircumflex" unicode="&#xce;" horiz-adv-x="256" 
d="M46 146q-8 2 -20 4t-12 14q0 2 2 8q8 21 28 50.5t47 61t58.5 62.5t61.5 55.5t56.5 39.5t43.5 15q14 0 27 -13t13 -31q0 -8 -2 -13q-3 -8 -16.5 -37.5l-32 -69.5l-40.5 -86l-41.5 -88l-35 -75.5t-21.5 -48.5q-2 -5 -5 -14.5t-13 -9.5q-3 0 -9 0.5t-12 2t-10 5.5t-4 10
q0 8 4 16t8 15q9 20 27 56.5l39.5 80l44 89l41 83.5l30.5 64t12 31q0 4 -4 5t-6 1q-11 0 -31 -13.5t-44 -36t-50 -51.5t-49 -59t-41 -58.5t-26 -51.5q-2 -5 -5 -9t-10 -4h-3v0zM257 484q20 7 33 16.5t33 11.5h1h3q19 -6 29.5 -19t27.5 -24h1q-17 0 -34.5 3t-28.5 14
q-6 -3 -16.5 -4.5t-20.5 -2t-18 0.5t-11 4q-1 0 1 -0.5t0 0.5z" />
    <glyph glyph-name="Idieresis" unicode="&#xcf;" horiz-adv-x="256" 
d="M46 146q-8 2 -20 4t-12 14q0 2 2 8q8 21 28 50.5t47 61t58.5 62.5t61.5 55.5t56.5 39.5t43.5 15q14 0 27 -13t13 -31q0 -8 -2 -13q-3 -8 -16.5 -37.5l-32 -69.5l-40.5 -86l-41.5 -88l-35 -75.5t-21.5 -48.5q-2 -5 -5 -14.5t-13 -9.5q-3 0 -9 0.5t-12 2t-10 5.5t-4 10
q0 8 4 16t8 15q9 20 27 56.5l39.5 80l44 89l41 83.5l30.5 64t12 31q0 4 -4 5t-6 1q-11 0 -31 -13.5t-44 -36t-50 -51.5t-49 -59t-41 -58.5t-26 -51.5q-2 -5 -5 -9t-10 -4h-3v0zM301 522q14 2 14 -15q0 -10 -8.5 -17t-14.5 -8q-6 0 -10 4.5t-5 9.5q0 3 3.5 12t20.5 14z
M352 522q14 2 14 -15q0 -10 -8.5 -17t-14.5 -8q-6 0 -10 4.5t-5 9.5q0 3 3.5 12t20.5 14z" />
    <glyph glyph-name="Eth" unicode="&#xd0;" horiz-adv-x="402" 
d="M22 -2q-3 -5 -6 -5q-5 0 -9 6t-4 14q0 3 1 5q8 21 21.5 51.5t30.5 65.5h-20q-8 0 -18 2t-10 16q0 7 1 11q12 -6 25 -6h14t20 1l30.5 62l30.5 63.5l29 61.5t25 56v1q0 1 -3 1q-5 0 -14.5 -1.5t-21.5 -4.5l-25 -6.5t-23 -7.5l-19.5 -6.5t-19.5 -3.5q-11 0 -13.5 7t-2.5 15
q-1 20 11.5 25.5t36.5 11.5q42 12 86 17.5t90 5.5q44 0 75.5 -12.5t51.5 -34.5t29 -50.5t9 -59.5q0 -37 -11.5 -75.5t-32.5 -72.5q-31 -50 -70 -83t-80 -52.5t-80 -27.5t-69 -8q-29 0 -46 5t-19 13zM145 168q9 0 9 -16q0 -9 -2.5 -9.5t-5.5 -1.5l-53 -4q-31 -61 -51 -105
q-2 -5 -3 -8.5t-1 -6.5q0 -11 12.5 -16.5t44.5 -5.5q28 0 63 11t69.5 30t64.5 45.5t48 57.5q29 51 41 90t12 68q0 39 -16.5 63t-38 37t-43.5 17.5t-33 4.5q-14 0 -23.5 -4t-17.5 -21q-10 -23 -23.5 -50.5l-28.5 -57.5l-31.5 -61.5l-31.5 -62.5q12 2 22.5 3t16.5 3z" />
    <glyph glyph-name="Ntilde" unicode="&#xd1;" horiz-adv-x="407" 
d="M396 402q-3 -8 -15.5 -35l-29.5 -65q0 -2 1 -2l4 4.5t10 9.5t14 10t15 5q13 0 20.5 -6t11.5 -14t5.5 -17t1.5 -13q-3 -9 -11.5 -29l-20 -45.5l-24.5 -53.5l-23.5 -52.5t-17.5 -43t-7 -24.5t7 -6q5 0 12.5 5t9.5 7q7 6 13.5 13.5t17.5 26.5q3 5 6.5 15t10.5 7
q8 -4 7 -11.5t-4 -14.5l-15 -18l-15.5 -18l-15.5 -19q-2 -1 -12 -9.5t-27 -8.5q-13 0 -23.5 6t-10.5 23q0 13 11 44t25.5 66.5l29 69t22.5 53.5q0 2 0.5 3.5t0.5 3.5q0 4 -1 7q-37 -37 -65.5 -78.5t-52.5 -86.5q-12 -22 -20.5 -42.5t-16 -36.5t-14.5 -25.5t-15 -9.5
q-6 0 -17.5 3.5t-11.5 14.5q-1 6 4 15t10 17q11 20 32 62.5l45 92.5l48 100.5l42 86.5l9.5 19.5t5.5 17.5q0 4 -3.5 4.5t-6.5 0.5q-8 0 -17.5 -5.5t-18.5 -11.5q-16 -11 -40.5 -36t-52 -57.5t-55.5 -69.5l-52.5 -72t-42.5 -64.5t-24 -47.5q-2 -4 -5 -9t-9 -5q-2 0 -8 0.5
t-12 2.5t-11 6t-5 10q0 2 2 8q4 10 23 38.5t47 65l62.5 78.5t69.5 79.5t67 66.5t56 42q8 4 16 6.5t16 2.5q14 0 27 -13t13 -31q0 -8 -2 -13zM456 503q6 0 14 -7.5t8 -14.5q0 -13 -10.5 -14.5t-24.5 2.5t-27 10.5t-18 9.5q-2 0 -4.5 1.5t-3.5 2.5h1q-3 2 -8.5 3t-8.5 2l-3 -3
q1 -1 4 -1q5 -1 7.5 -4t2.5 -5t-1 -5t-9 -3q-6 0 -13 8.5t-7 14.5q0 10 6.5 13t16.5 2q6 -1 13 -3.5t13 -5.5q1 0 2 -1t2 -1l13 -5l2 -2l11 -5q12 -6 23 -6h1q-1 0 -1 0.5t-1 0.5q-6 3 -7.5 4.5t-1.5 4.5q0 2 1 4.5t8 2.5z" />
    <glyph glyph-name="Ograve" unicode="&#xd2;" horiz-adv-x="322" 
d="M236 291q0 21 10.5 47t26 49.5t34.5 40.5t37 19q24 -1 32 -22t7 -49t-8 -55.5t-12 -41.5q9 0 21.5 -7t12.5 -14q0 -4 -15.5 -8t-30.5 -4q-12 -29 -28.5 -60.5t-37.5 -61.5t-46 -57t-53 -47q-4 -4 -14.5 -9.5t-22.5 -10.5t-24.5 -9t-20.5 -4q-51 -2 -74 27.5t-23 72.5
q0 18 2.5 36t6.5 33t7.5 26.5t6.5 17.5q23 50 48.5 88.5t54.5 72.5l28 30t32.5 31.5t31 24.5t23.5 10q17 1 21.5 -6t4.5 -18q0 -4 -4 -13.5t-26 -16.5q-84 -53 -160 -179q-16 -26 -32.5 -61.5t-16.5 -71.5q0 -11 2 -26.5t9 -29.5t20 -23.5t35 -9.5q25 0 51.5 18.5t50.5 45
t43 55t30 49.5q20 39 33 70q-2 0 -4.5 -0.5t-4.5 -0.5q-23 0 -43.5 12t-20.5 40zM329 398q-1 0 -1 -1q-12 -12 -23 -27t-19.5 -30t-13.5 -28.5t-5 -23.5q2 -10 10 -13.5t19 -3.5q7 0 13.5 0.5t11.5 1.5q15 46 15 85q0 11 -1 21.5t-6 18.5zM267 504q2 4 11.5 8t11.5 3
q10 -2 17.5 -6t14 -9.5t14 -11t16.5 -9.5q-2 0 -3.5 -0.5t-3.5 -0.5q-8 2 -15 2.5t-15 1.5q-12 2 -22.5 5.5t-21.5 8.5q-5 5 -4 8z" />
    <glyph glyph-name="Oacute" unicode="&#xd3;" horiz-adv-x="322" 
d="M236 291q0 21 10.5 47t26 49.5t34.5 40.5t37 19q24 -1 32 -22t7 -49t-8 -55.5t-12 -41.5q9 0 21.5 -7t12.5 -14q0 -4 -15.5 -8t-30.5 -4q-12 -29 -28.5 -60.5t-37.5 -61.5t-46 -57t-53 -47q-4 -4 -14.5 -9.5t-22.5 -10.5t-24.5 -9t-20.5 -4q-51 -2 -74 27.5t-23 72.5
q0 18 2.5 36t6.5 33t7.5 26.5t6.5 17.5q23 50 48.5 88.5t54.5 72.5l28 30t32.5 31.5t31 24.5t23.5 10q17 1 21.5 -6t4.5 -18q0 -4 -4 -13.5t-26 -16.5q-84 -53 -160 -179q-16 -26 -32.5 -61.5t-16.5 -71.5q0 -11 2 -26.5t9 -29.5t20 -23.5t35 -9.5q25 0 51.5 18.5t50.5 45
t43 55t30 49.5q20 39 33 70q-2 0 -4.5 -0.5t-4.5 -0.5q-23 0 -43.5 12t-20.5 40zM329 398q-1 0 -1 -1q-12 -12 -23 -27t-19.5 -30t-13.5 -28.5t-5 -23.5q2 -10 10 -13.5t19 -3.5q7 0 13.5 0.5t11.5 1.5q15 46 15 85q0 11 -1 21.5t-6 18.5zM348 500q1 -3 -4 -8
q-11 -5 -21.5 -8.5t-22.5 -5.5q-8 -1 -15 -1.5t-15 -2.5q-2 0 -3.5 0.5t-3.5 0.5q9 4 16 9.5l14 11t14.5 9.5t17.5 6q2 1 11.5 -3t11.5 -8z" />
    <glyph glyph-name="Ocircumflex" unicode="&#xd4;" horiz-adv-x="322" 
d="M236 291q0 21 10.5 47t26 49.5t34.5 40.5t37 19q24 -1 32 -22t7 -49t-8 -55.5t-12 -41.5q9 0 21.5 -7t12.5 -14q0 -4 -15.5 -8t-30.5 -4q-12 -29 -28.5 -60.5t-37.5 -61.5t-46 -57t-53 -47q-4 -4 -14.5 -9.5t-22.5 -10.5t-24.5 -9t-20.5 -4q-51 -2 -74 27.5t-23 72.5
q0 18 2.5 36t6.5 33t7.5 26.5t6.5 17.5q23 50 48.5 88.5t54.5 72.5l28 30t32.5 31.5t31 24.5t23.5 10q17 1 21.5 -6t4.5 -18q0 -4 -4 -13.5t-26 -16.5q-84 -53 -160 -179q-16 -26 -32.5 -61.5t-16.5 -71.5q0 -11 2 -26.5t9 -29.5t20 -23.5t35 -9.5q25 0 51.5 18.5t50.5 45
t43 55t30 49.5q20 39 33 70q-2 0 -4.5 -0.5t-4.5 -0.5q-23 0 -43.5 12t-20.5 40zM329 398q-1 0 -1 -1q-12 -12 -23 -27t-19.5 -30t-13.5 -28.5t-5 -23.5q2 -10 10 -13.5t19 -3.5q7 0 13.5 0.5t11.5 1.5q15 46 15 85q0 11 -1 21.5t-6 18.5zM254 488q20 7 33 16.5t33 11.5h1h3
q19 -6 29.5 -19t27.5 -24h1q-17 0 -34.5 3t-28.5 14q-6 -3 -16.5 -4.5t-20.5 -2t-18 0.5t-11 4q-1 0 1 -0.5t0 0.5z" />
    <glyph glyph-name="Otilde" unicode="&#xd5;" horiz-adv-x="322" 
d="M236 291q0 21 10.5 47t26 49.5t34.5 40.5t37 19q24 -1 32 -22t7 -49t-8 -55.5t-12 -41.5q9 0 21.5 -7t12.5 -14q0 -4 -15.5 -8t-30.5 -4q-12 -29 -28.5 -60.5t-37.5 -61.5t-46 -57t-53 -47q-4 -4 -14.5 -9.5t-22.5 -10.5t-24.5 -9t-20.5 -4q-51 -2 -74 27.5t-23 72.5
q0 18 2.5 36t6.5 33t7.5 26.5t6.5 17.5q23 50 48.5 88.5t54.5 72.5l28 30t32.5 31.5t31 24.5t23.5 10q17 1 21.5 -6t4.5 -18q0 -4 -4 -13.5t-26 -16.5q-84 -53 -160 -179q-16 -26 -32.5 -61.5t-16.5 -71.5q0 -11 2 -26.5t9 -29.5t20 -23.5t35 -9.5q25 0 51.5 18.5t50.5 45
t43 55t30 49.5q20 39 33 70q-2 0 -4.5 -0.5t-4.5 -0.5q-23 0 -43.5 12t-20.5 40zM329 398q-1 0 -1 -1q-12 -12 -23 -27t-19.5 -30t-13.5 -28.5t-5 -23.5q2 -10 10 -13.5t19 -3.5q7 0 13.5 0.5t11.5 1.5q15 46 15 85q0 11 -1 21.5t-6 18.5zM353 514q6 0 14 -7.5t8 -14.5
q0 -13 -10.5 -14.5t-24.5 2.5t-27 10.5t-18 9.5q-2 0 -4.5 1.5t-3.5 2.5h1q-3 2 -8.5 3t-8.5 2l-3 -3q1 -1 4 -1q5 -1 7.5 -4t2.5 -5t-1 -5t-9 -3q-6 0 -13 8.5t-7 14.5q0 10 6.5 13t16.5 2q6 -1 13 -3.5t13 -5.5q1 0 2 -1t2 -1l13 -5l2 -2l11 -5q12 -6 23 -6h1q-1 0 -1 0.5
t-1 0.5q-6 3 -7.5 4.5t-1.5 4.5q0 2 1 4.5t8 2.5z" />
    <glyph glyph-name="Odieresis" unicode="&#xd6;" horiz-adv-x="322" 
d="M236 291q0 21 10.5 47t26 49.5t34.5 40.5t37 19q24 -1 32 -22t7 -49t-8 -55.5t-12 -41.5q9 0 21.5 -7t12.5 -14q0 -4 -15.5 -8t-30.5 -4q-12 -29 -28.5 -60.5t-37.5 -61.5t-46 -57t-53 -47q-4 -4 -14.5 -9.5t-22.5 -10.5t-24.5 -9t-20.5 -4q-51 -2 -74 27.5t-23 72.5
q0 18 2.5 36t6.5 33t7.5 26.5t6.5 17.5q23 50 48.5 88.5t54.5 72.5l28 30t32.5 31.5t31 24.5t23.5 10q17 1 21.5 -6t4.5 -18q0 -4 -4 -13.5t-26 -16.5q-84 -53 -160 -179q-16 -26 -32.5 -61.5t-16.5 -71.5q0 -11 2 -26.5t9 -29.5t20 -23.5t35 -9.5q25 0 51.5 18.5t50.5 45
t43 55t30 49.5q20 39 33 70q-2 0 -4.5 -0.5t-4.5 -0.5q-23 0 -43.5 12t-20.5 40zM329 398q-1 0 -1 -1q-12 -12 -23 -27t-19.5 -30t-13.5 -28.5t-5 -23.5q2 -10 10 -13.5t19 -3.5q7 0 13.5 0.5t11.5 1.5q15 46 15 85q0 11 -1 21.5t-6 18.5zM301 512q14 2 14 -15
q0 -10 -8.5 -17t-14.5 -8q-6 0 -10 4.5t-5 9.5q0 3 3.5 12t20.5 14zM352 512q14 2 14 -15q0 -10 -8.5 -17t-14.5 -8q-6 0 -10 4.5t-5 9.5q0 3 3.5 12t20.5 14z" />
    <glyph glyph-name="Oslash" unicode="&#xd8;" horiz-adv-x="322" 
d="M366 540q10 -5 14.5 -14.5t-0.5 -18.5q-8 -15 -14 -22.5t-11 -12.5l-15 -26q1 1 4 1q24 -1 32 -22t7 -49t-8 -55.5t-12 -41.5q9 0 21.5 -7t12.5 -14q0 -4 -15.5 -8t-30.5 -4q-12 -29 -28.5 -60.5t-37.5 -61.5t-46 -57t-53 -47q-4 -4 -14.5 -9.5t-22.5 -10.5t-24.5 -9
t-20.5 -4h-13l-33 -61q-2 -4 -5 -9t-11 -3q-13 1 -12 14l26 67q-26 11 -37.5 36t-11.5 56q0 18 2.5 36t6.5 33t7.5 26.5t6.5 17.5q23 50 48.5 88.5t54.5 72.5l28 30t32.5 31.5t31 24.5t23.5 10q16 0 22 -7l26 56q3 7 7.5 15.5l8.5 15.5q9 17 24.5 15t29.5 -12zM35 91
q0 -17 5 -40.5t24 -37.5l19 44q12 28 31.5 69.5l42 88.5l46.5 96l45 93q-2 0 -2.5 -0.5t-1.5 -0.5q-84 -53 -160 -179q-16 -26 -32.5 -61.5t-16.5 -71.5zM300 239q-17 0 -33.5 6.5t-24.5 20.5l-143 -264h2q25 0 51.5 18.5t50.5 45t43 55t30 49.5q20 39 33 70q-2 0 -4.5 -0.5
t-4.5 -0.5zM329 398q-1 0 -1 -1q-12 -12 -23 -27t-19.5 -30t-13.5 -28.5t-5 -23.5q2 -10 10 -13.5t19 -3.5q7 0 13.5 0.5t11.5 1.5q15 46 15 85q0 11 -1 21.5t-6 18.5z" />
    <glyph glyph-name="Ugrave" unicode="&#xd9;" horiz-adv-x="579" 
d="M54 72q-2 -5 -5 -9t-10 -4t-21 3.5t-14 14.5t8 22q9 20 32.5 51t55 66l67.5 71.5t71 68.5t65.5 56.5t50.5 35.5q16 8 32 8q14 0 27 -13.5t13 -29.5v-6.5t-2 -7.5q-4 -12 -19 -46l-34 -75l-38 -81l-31 -64q-9 -23 -14.5 -46t-5.5 -36q0 -21 10 -29t23 -8q14 0 30 6
t29.5 13.5t23 13.5l9.5 6q23 20 41.5 38.5t28.5 39.5l36 79t25 65q4 9 10 26t13 34t15.5 30t19.5 13q8 0 21.5 -5.5t13.5 -16.5q0 -9 -9 -20.5t-20 -31.5l-43 -86.5l-40 -83t-29 -66.5t-11 -38q0 -3 0.5 -7.5t2.5 -4.5q4 0 13.5 6t20 15t21 19t16.5 18h1q-1 -2 1.5 2l6 10
t8.5 11.5t9 6.5q5 0 8 -5t3 -7q0 -5 -3 -8q-20 -17 -37.5 -33.5l-32 -30t-26 -22t-18.5 -8.5q-14 0 -17 11t-3 16q0 10 2.5 23.5t7.5 30.5q-36 -36 -65 -55.5t-48.5 -28t-29.5 -9.5t-9 -1q-10 0 -21.5 1.5t-21.5 10t-17 25t-7 46.5q0 14 5 42t26 69q19 37 43.5 92.5
t56.5 121.5q4 7 8 18.5t4 18.5q0 5 -7 5q-8 0 -17.5 -5.5t-18.5 -11.5q-16 -11 -42 -35.5t-56.5 -56.5t-61.5 -68l-58 -70t-46.5 -63t-25.5 -47zM470 512q2 4 11.5 8t11.5 3q10 -2 17.5 -6t14 -9.5t14 -11t16.5 -9.5q-2 0 -3.5 -0.5t-3.5 -0.5q-8 2 -15 2.5t-15 1.5
q-12 2 -22.5 5.5t-21.5 8.5q-5 5 -4 8z" />
    <glyph glyph-name="Uacute" unicode="&#xda;" horiz-adv-x="579" 
d="M54 72q-2 -5 -5 -9t-10 -4t-21 3.5t-14 14.5t8 22q9 20 32.5 51t55 66l67.5 71.5t71 68.5t65.5 56.5t50.5 35.5q16 8 32 8q14 0 27 -13.5t13 -29.5v-6.5t-2 -7.5q-4 -12 -19 -46l-34 -75l-38 -81l-31 -64q-9 -23 -14.5 -46t-5.5 -36q0 -21 10 -29t23 -8q14 0 30 6
t29.5 13.5t23 13.5l9.5 6q23 20 41.5 38.5t28.5 39.5l36 79t25 65q4 9 10 26t13 34t15.5 30t19.5 13q8 0 21.5 -5.5t13.5 -16.5q0 -9 -9 -20.5t-20 -31.5l-43 -86.5l-40 -83t-29 -66.5t-11 -38q0 -3 0.5 -7.5t2.5 -4.5q4 0 13.5 6t20 15t21 19t16.5 18h1q-1 -2 1.5 2l6 10
t8.5 11.5t9 6.5q5 0 8 -5t3 -7q0 -5 -3 -8q-20 -17 -37.5 -33.5l-32 -30t-26 -22t-18.5 -8.5q-14 0 -17 11t-3 16q0 10 2.5 23.5t7.5 30.5q-36 -36 -65 -55.5t-48.5 -28t-29.5 -9.5t-9 -1q-10 0 -21.5 1.5t-21.5 10t-17 25t-7 46.5q0 14 5 42t26 69q19 37 43.5 92.5
t56.5 121.5q4 7 8 18.5t4 18.5q0 5 -7 5q-8 0 -17.5 -5.5t-18.5 -11.5q-16 -11 -42 -35.5t-56.5 -56.5t-61.5 -68l-58 -70t-46.5 -63t-25.5 -47zM557 504q1 -3 -4 -8q-11 -5 -21.5 -8.5t-22.5 -5.5q-8 -1 -15 -1.5t-15 -2.5q-2 0 -3.5 0.5t-3.5 0.5q9 4 16 9.5l14 11
t14.5 9.5t17.5 6q2 1 11.5 -3t11.5 -8z" />
    <glyph glyph-name="Ucircumflex" unicode="&#xdb;" horiz-adv-x="579" 
d="M54 72q-2 -5 -5 -9t-10 -4t-21 3.5t-14 14.5t8 22q9 20 32.5 51t55 66l67.5 71.5t71 68.5t65.5 56.5t50.5 35.5q16 8 32 8q14 0 27 -13.5t13 -29.5v-6.5t-2 -7.5q-4 -12 -19 -46l-34 -75l-38 -81l-31 -64q-9 -23 -14.5 -46t-5.5 -36q0 -21 10 -29t23 -8q14 0 30 6
t29.5 13.5t23 13.5l9.5 6q23 20 41.5 38.5t28.5 39.5l36 79t25 65q4 9 10 26t13 34t15.5 30t19.5 13q8 0 21.5 -5.5t13.5 -16.5q0 -9 -9 -20.5t-20 -31.5l-43 -86.5l-40 -83t-29 -66.5t-11 -38q0 -3 0.5 -7.5t2.5 -4.5q4 0 13.5 6t20 15t21 19t16.5 18h1q-1 -2 1.5 2l6 10
t8.5 11.5t9 6.5q5 0 8 -5t3 -7q0 -5 -3 -8q-20 -17 -37.5 -33.5l-32 -30t-26 -22t-18.5 -8.5q-14 0 -17 11t-3 16q0 10 2.5 23.5t7.5 30.5q-36 -36 -65 -55.5t-48.5 -28t-29.5 -9.5t-9 -1q-10 0 -21.5 1.5t-21.5 10t-17 25t-7 46.5q0 14 5 42t26 69q19 37 43.5 92.5
t56.5 121.5q4 7 8 18.5t4 18.5q0 5 -7 5q-8 0 -17.5 -5.5t-18.5 -11.5q-16 -11 -42 -35.5t-56.5 -56.5t-61.5 -68l-58 -70t-46.5 -63t-25.5 -47zM457 482q20 7 33 16.5t33 11.5h1h3q19 -6 29.5 -19t27.5 -24h1q-17 0 -34.5 3t-28.5 14q-6 -3 -16.5 -4.5t-20.5 -2t-18 0.5
t-11 4q-1 0 1 -0.5t0 0.5z" />
    <glyph glyph-name="Udieresis" unicode="&#xdc;" horiz-adv-x="579" 
d="M54 72q-2 -5 -5 -9t-10 -4t-21 3.5t-14 14.5t8 22q9 20 32.5 51t55 66l67.5 71.5t71 68.5t65.5 56.5t50.5 35.5q16 8 32 8q14 0 27 -13.5t13 -29.5v-6.5t-2 -7.5q-4 -12 -19 -46l-34 -75l-38 -81l-31 -64q-9 -23 -14.5 -46t-5.5 -36q0 -21 10 -29t23 -8q14 0 30 6
t29.5 13.5t23 13.5l9.5 6q23 20 41.5 38.5t28.5 39.5l36 79t25 65q4 9 10 26t13 34t15.5 30t19.5 13q8 0 21.5 -5.5t13.5 -16.5q0 -9 -9 -20.5t-20 -31.5l-43 -86.5l-40 -83t-29 -66.5t-11 -38q0 -3 0.5 -7.5t2.5 -4.5q4 0 13.5 6t20 15t21 19t16.5 18h1q-1 -2 1.5 2l6 10
t8.5 11.5t9 6.5q5 0 8 -5t3 -7q0 -5 -3 -8q-20 -17 -37.5 -33.5l-32 -30t-26 -22t-18.5 -8.5q-14 0 -17 11t-3 16q0 10 2.5 23.5t7.5 30.5q-36 -36 -65 -55.5t-48.5 -28t-29.5 -9.5t-9 -1q-10 0 -21.5 1.5t-21.5 10t-17 25t-7 46.5q0 14 5 42t26 69q19 37 43.5 92.5
t56.5 121.5q4 7 8 18.5t4 18.5q0 5 -7 5q-8 0 -17.5 -5.5t-18.5 -11.5q-16 -11 -42 -35.5t-56.5 -56.5t-61.5 -68l-58 -70t-46.5 -63t-25.5 -47zM500 518q14 2 14 -15q0 -10 -8.5 -17t-14.5 -8q-6 0 -10 4.5t-5 9.5q0 3 3.5 12t20.5 14zM551 518q14 2 14 -15q0 -10 -8.5 -17
t-14.5 -8q-6 0 -10 4.5t-5 9.5q0 3 3.5 12t20.5 14z" />
    <glyph glyph-name="Yacute" unicode="&#xdd;" horiz-adv-x="560" 
d="M614 382q1 -1 11.5 -9t10.5 -22q0 -2 -0.5 -3t-0.5 -3q-9 -13 -25.5 -44l-38 -74l-46 -94l-49 -102.5l-47 -101l-39.5 -89l-28 -65.5t-12 -32q-2 -5 -2 -11.5t-6 -6.5q-12 0 -19.5 9.5t-7.5 18.5l36 86l39.5 93l50.5 114q-30 -27 -53 -40.5t-39 -19.5t-23.5 -6.5
l-7.5 -0.5q-10 0 -21.5 1.5t-21.5 10t-17 25t-7 46.5q0 14 5 42t26 69q19 37 43.5 92.5t57.5 121.5q4 7 9 18t5 18q0 5 -3.5 5.5t-6.5 0.5q-8 0 -17.5 -5.5t-18.5 -11.5q-16 -11 -42 -35.5t-56 -56.5l-61.5 -68t-58.5 -70t-46.5 -63t-25.5 -47q-2 -5 -5 -9t-10 -4
q-3 0 -8.5 0.5t-11.5 2.5t-10.5 5.5t-4.5 9.5q0 8 6.5 20t11.5 20q12 21 36.5 51t55.5 63.5l65 67.5l67 64t61 52.5t47 32.5q16 8 32 8q14 0 27.5 -13t13.5 -30q0 -7 -3 -14q-4 -12 -19 -46l-34 -75l-38 -81l-31 -64q-8 -22 -13.5 -43.5t-5.5 -35.5q0 -23 9 -31.5t23 -8.5
t30 6t29.5 13.5t23 13.5l9.5 6q23 20 39 38.5t27 40.5l51.5 110l33 72.5l19 43t10 20.5t5 6.5t4.5 0.5q5 0 11 -3zM571 503q1 -3 -4 -8q-11 -5 -21.5 -8.5t-22.5 -5.5q-8 -1 -15 -1.5t-15 -2.5q-2 0 -3.5 0.5t-3.5 0.5q9 4 16 9.5l14 11t14.5 9.5t17.5 6q2 1 11.5 -3
t11.5 -8z" />
    <glyph glyph-name="agrave" unicode="&#xe0;" horiz-adv-x="175" 
d="M70 46v1l-24.5 -25.5t-16.5 -15t-12 -7t-10 -1.5q-17 0 -26 16t-9 33q0 20 13.5 51t34 60t45 49.5t47.5 20.5q9 0 14.5 -4.5t8.5 -9.5q4 -6 4 -14q2 4 5.5 8t8.5 11q2 2 5 6.5t8 4.5t12.5 -6t7.5 -15q0 -2 -2 -6t-13 -23q-7 -14 -18.5 -32t-22 -37t-18.5 -37.5t-8 -31.5
q0 -5 5 -9t9 -5q15 0 25 11.5t18 25.5q1 2 4.5 12.5t9.5 10.5q4 0 9 -3t5 -8q0 -3 -6.5 -15.5t-18 -26t-26.5 -24.5t-31 -11q-17 0 -27 12.5t-10 29.5v4zM56 72l14.5 19l22 30.5t20.5 32t11 23.5q0 1 -2.5 3.5t-5.5 2.5q-10 0 -24 -9.5t-28 -24.5t-26.5 -33t-20.5 -34.5
t-9.5 -29t7.5 -16.5q12 0 20.5 9t20.5 27zM114 277q2 4 11.5 8t11.5 3q10 -2 17.5 -6t14 -9.5t14 -11t16.5 -9.5q-2 0 -3.5 -0.5t-3.5 -0.5q-8 2 -15 2.5t-15 1.5q-12 2 -22.5 5.5t-21.5 8.5q-5 5 -4 8z" />
    <glyph glyph-name="aacute" unicode="&#xe1;" horiz-adv-x="175" 
d="M70 46v1l-24.5 -25.5t-16.5 -15t-12 -7t-10 -1.5q-17 0 -26 16t-9 33q0 20 13.5 51t34 60t45 49.5t47.5 20.5q9 0 14.5 -4.5t8.5 -9.5q4 -6 4 -14q2 4 5.5 8t8.5 11q2 2 5 6.5t8 4.5t12.5 -6t7.5 -15q0 -2 -2 -6t-13 -23q-7 -14 -18.5 -32t-22 -37t-18.5 -37.5t-8 -31.5
q0 -5 5 -9t9 -5q15 0 25 11.5t18 25.5q1 2 4.5 12.5t9.5 10.5q4 0 9 -3t5 -8q0 -3 -6.5 -15.5t-18 -26t-26.5 -24.5t-31 -11q-17 0 -27 12.5t-10 29.5v4zM56 72l14.5 19l22 30.5t20.5 32t11 23.5q0 1 -2.5 3.5t-5.5 2.5q-10 0 -24 -9.5t-28 -24.5t-26.5 -33t-20.5 -34.5
t-9.5 -29t7.5 -16.5q12 0 20.5 9t20.5 27zM188 277q1 -3 -4 -8q-11 -5 -21.5 -8.5t-22.5 -5.5q-8 -1 -15 -1.5t-15 -2.5q-2 0 -3.5 0.5t-3.5 0.5q9 4 16 9.5l14 11t14.5 9.5t17.5 6q2 1 11.5 -3t11.5 -8z" />
    <glyph glyph-name="acircumflex" unicode="&#xe2;" horiz-adv-x="175" 
d="M70 46v1l-24.5 -25.5t-16.5 -15t-12 -7t-10 -1.5q-17 0 -26 16t-9 33q0 20 13.5 51t34 60t45 49.5t47.5 20.5q9 0 14.5 -4.5t8.5 -9.5q4 -6 4 -14q2 4 5.5 8t8.5 11q2 2 5 6.5t8 4.5t12.5 -6t7.5 -15q0 -2 -2 -6t-13 -23q-7 -14 -18.5 -32t-22 -37t-18.5 -37.5t-8 -31.5
q0 -5 5 -9t9 -5q15 0 25 11.5t18 25.5q1 2 4.5 12.5t9.5 10.5q4 0 9 -3t5 -8q0 -3 -6.5 -15.5t-18 -26t-26.5 -24.5t-31 -11q-17 0 -27 12.5t-10 29.5v4zM56 72l14.5 19l22 30.5t20.5 32t11 23.5q0 1 -2.5 3.5t-5.5 2.5q-10 0 -24 -9.5t-28 -24.5t-26.5 -33t-20.5 -34.5
t-9.5 -29t7.5 -16.5q12 0 20.5 9t20.5 27zM86 280q20 7 33 16.5t33 11.5h1h3q19 -6 29.5 -19t27.5 -24h1q-17 0 -34.5 3t-28.5 14q-6 -3 -16.5 -4.5t-20.5 -2t-18 0.5t-11 4q-1 0 1 -0.5t0 0.5z" />
    <glyph glyph-name="atilde" unicode="&#xe3;" horiz-adv-x="175" 
d="M70 46v1l-24.5 -25.5t-16.5 -15t-12 -7t-10 -1.5q-17 0 -26 16t-9 33q0 20 13.5 51t34 60t45 49.5t47.5 20.5q9 0 14.5 -4.5t8.5 -9.5q4 -6 4 -14q2 4 5.5 8t8.5 11q2 2 5 6.5t8 4.5t12.5 -6t7.5 -15q0 -2 -2 -6t-13 -23q-7 -14 -18.5 -32t-22 -37t-18.5 -37.5t-8 -31.5
q0 -5 5 -9t9 -5q15 0 25 11.5t18 25.5q1 2 4.5 12.5t9.5 10.5q4 0 9 -3t5 -8q0 -3 -6.5 -15.5t-18 -26t-26.5 -24.5t-31 -11q-17 0 -27 12.5t-10 29.5v4zM56 72l14.5 19l22 30.5t20.5 32t11 23.5q0 1 -2.5 3.5t-5.5 2.5q-10 0 -24 -9.5t-28 -24.5t-26.5 -33t-20.5 -34.5
t-9.5 -29t7.5 -16.5q12 0 20.5 9t20.5 27zM208 299q6 0 14 -7.5t8 -14.5q0 -13 -10.5 -14.5t-24.5 2.5t-27 10.5t-18 9.5q-2 0 -4.5 1.5t-3.5 2.5h1q-3 2 -8.5 3t-8.5 2l-3 -3q1 -1 4 -1q5 -1 7.5 -4t2.5 -5t-1 -5t-9 -3q-6 0 -13 8.5t-7 14.5q0 10 6.5 13t16.5 2
q6 -1 13 -3.5t13 -5.5q1 0 2 -1t2 -1l13 -5l2 -2l11 -5q12 -6 23 -6h1q-1 0 -1 0.5t-1 0.5q-6 3 -7.5 4.5t-1.5 4.5q0 2 1 4.5t8 2.5z" />
    <glyph glyph-name="adieresis" unicode="&#xe4;" horiz-adv-x="175" 
d="M70 46v1l-24.5 -25.5t-16.5 -15t-12 -7t-10 -1.5q-17 0 -26 16t-9 33q0 20 13.5 51t34 60t45 49.5t47.5 20.5q9 0 14.5 -4.5t8.5 -9.5q4 -6 4 -14q2 4 5.5 8t8.5 11q2 2 5 6.5t8 4.5t12.5 -6t7.5 -15q0 -2 -2 -6t-13 -23q-7 -14 -18.5 -32t-22 -37t-18.5 -37.5t-8 -31.5
q0 -5 5 -9t9 -5q15 0 25 11.5t18 25.5q1 2 4.5 12.5t9.5 10.5q4 0 9 -3t5 -8q0 -3 -6.5 -15.5t-18 -26t-26.5 -24.5t-31 -11q-17 0 -27 12.5t-10 29.5v4zM56 72l14.5 19l22 30.5t20.5 32t11 23.5q0 1 -2.5 3.5t-5.5 2.5q-10 0 -24 -9.5t-28 -24.5t-26.5 -33t-20.5 -34.5
t-9.5 -29t7.5 -16.5q12 0 20.5 9t20.5 27zM135 303q14 2 14 -15q0 -10 -8.5 -17t-14.5 -8q-6 0 -10 4.5t-5 9.5q0 3 3.5 12t20.5 14zM186 303q14 2 14 -15q0 -10 -8.5 -17t-14.5 -8q-6 0 -10 4.5t-5 9.5q0 3 3.5 12t20.5 14z" />
    <glyph glyph-name="aring" unicode="&#xe5;" horiz-adv-x="175" 
d="M70 46v1l-24.5 -25.5t-16.5 -15t-12 -7t-10 -1.5q-17 0 -26 16t-9 33q0 20 13.5 51t34 60t45 49.5t47.5 20.5q9 0 14.5 -4.5t8.5 -9.5q4 -6 4 -14q2 4 5.5 8t8.5 11q2 2 5 6.5t8 4.5t12.5 -6t7.5 -15q0 -2 -2 -6t-13 -23q-7 -14 -18.5 -32t-22 -37t-18.5 -37.5t-8 -31.5
q0 -5 5 -9t9 -5q15 0 25 11.5t18 25.5q1 2 4.5 12.5t9.5 10.5q4 0 9 -3t5 -8q0 -3 -6.5 -15.5t-18 -26t-26.5 -24.5t-31 -11q-17 0 -27 12.5t-10 29.5v4zM56 72l14.5 19l22 30.5t20.5 32t11 23.5q0 1 -2.5 3.5t-5.5 2.5q-10 0 -24 -9.5t-28 -24.5t-26.5 -33t-20.5 -34.5
t-9.5 -29t7.5 -16.5q12 0 20.5 9t20.5 27zM166 307q14 2 14 -15q0 -10 -8.5 -17t-14.5 -8q-6 0 -10 4.5t-5 9.5q0 3 3.5 12t20.5 14zM163 296q-8 -2 -9.5 -6t-1.5 -6q2 -6 7 -6q3 0 6.5 3t3.5 8q0 7 -6 7z" />
    <glyph glyph-name="ae" unicode="&#xe6;" horiz-adv-x="231" 
d="M70 47l-24.5 -25.5t-16.5 -15t-12 -7t-10 -1.5q-17 0 -26 16t-9 33q0 20 13.5 51t34 60t45 49.5t47.5 20.5q9 0 14.5 -4.5t8.5 -9.5q4 -6 4 -14q2 4 5.5 8t8.5 11q2 2 5 6.5t8 4.5q6 0 13 -7q10 7 19 9q14 -2 22 -17.5t8 -26.5q0 -12 -6.5 -25.5t-16 -26.5t-20 -24.5
t-19.5 -19.5q-18 -17 -27.5 -22t-14 -6t-6 -2t-2.5 -9q-1 -12 1.5 -17.5t6 -8t8 -2.5h6.5q14 1 24.5 6.5t18 12.5t13 13.5t9.5 9.5q0 1 2.5 5t6 9t8 9t8.5 6q11 0 15 -13q0 -6 -1 -8.5t-3 -4.5l-23 -22t-26 -22.5t-29.5 -18.5t-31.5 -9q-20 0 -33 15q-7 -16 -12 -16
q-18 0 -22.5 3.5t-2.5 10t6.5 14.5t4.5 17v5zM56 72l14.5 19l22 30.5t20.5 32t11 23.5q0 1 -2.5 3.5t-5.5 2.5q-10 0 -24 -9.5t-28 -24.5t-26.5 -33t-20.5 -34.5t-9.5 -29t7.5 -16.5q12 0 20.5 9t20.5 27zM186 186q-8 -8 -16.5 -20t-17 -26l-16 -27.5t-11.5 -23.5
q9 9 20.5 22t20.5 26.5t15 26.5t5 22z" />
    <glyph glyph-name="ccedilla" unicode="&#xe7;" horiz-adv-x="139" 
d="M-18 54q-3 21 9.5 51t31.5 58t39 48t33 20q15 0 24 -14.5t8 -29.5q0 -6 -3.5 -14.5t-8.5 -15.5t-12 -12t-16 -5q-10 0 -10 9q0 4 4 12l10 23q1 2 -11.5 -11.5t-27.5 -33.5t-27.5 -44t-12.5 -43q0 -11 5.5 -19t19.5 -8t32 15t45 42q5 5 10 17t16 12q4 0 8 -4.5t4 -11.5
q0 -5 -4 -12l-27.5 -26.5l-27.5 -26.5l-12 -11q-8 -8 -20 -16t-28 -8q-14 0 -23 6q-2 -3 -2.5 -6.5t0.5 -3.5l9 -11.5t9.5 -17.5t3.5 -20t-9 -19q-15 -17 -40.5 -19.5t-43.5 12.5q-2 0 -3 1t1 4q3 3 7.5 5.5t5.5 2.5q2 0 4 -3t5 -5q15 -8 28 -4t24 15q5 5 5.5 13t-2 16
t-7 14t-8.5 8q-1 19 5 25q-9 8 -14 20.5t-6 25.5z" />
    <glyph glyph-name="egrave" unicode="&#xe8;" 
d="M-19 52q0 24 13.5 54.5t32 58t38 46.5t32.5 21q14 -2 22 -17.5t8 -26.5q0 -12 -6.5 -25.5t-16 -26.5t-20 -24.5t-19.5 -19.5q-18 -17 -27.5 -22t-14 -6t-6 -2t-2.5 -9q-1 -12 1.5 -17.5t6 -8t8 -2.5h6.5q14 1 24.5 6.5t18 12.5t13 13.5t9.5 9.5q0 1 2.5 5t6 9t8 9t8.5 6
q11 0 15 -13q0 -6 -1 -8.5t-3 -4.5l-23 -22t-26 -22.5t-29.5 -18.5t-31.5 -9q-23 0 -35 17.5t-12 36.5zM85 186q-8 -8 -16.5 -20t-17 -26l-16 -27.5t-11.5 -23.5q9 9 20.5 22t20.5 26.5t15 26.5t5 22zM67 277q2 4 11.5 8t11.5 3q10 -2 17.5 -6t14 -9.5t14 -11t16.5 -9.5
q-2 0 -3.5 -0.5t-3.5 -0.5q-8 2 -15 2.5t-15 1.5q-12 2 -22.5 5.5t-21.5 8.5q-5 5 -4 8z" />
    <glyph glyph-name="eacute" unicode="&#xe9;" 
d="M-19 52q0 24 13.5 54.5t32 58t38 46.5t32.5 21q14 -2 22 -17.5t8 -26.5q0 -12 -6.5 -25.5t-16 -26.5t-20 -24.5t-19.5 -19.5q-18 -17 -27.5 -22t-14 -6t-6 -2t-2.5 -9q-1 -12 1.5 -17.5t6 -8t8 -2.5h6.5q14 1 24.5 6.5t18 12.5t13 13.5t9.5 9.5q0 1 2.5 5t6 9t8 9t8.5 6
q11 0 15 -13q0 -6 -1 -8.5t-3 -4.5l-23 -22t-26 -22.5t-29.5 -18.5t-31.5 -9q-23 0 -35 17.5t-12 36.5zM85 186q-8 -8 -16.5 -20t-17 -26l-16 -27.5t-11.5 -23.5q9 9 20.5 22t20.5 26.5t15 26.5t5 22zM152 277q1 -3 -4 -8q-11 -5 -21.5 -8.5t-22.5 -5.5q-8 -1 -15 -1.5
t-15 -2.5q-2 0 -3.5 0.5t-3.5 0.5q9 4 16 9.5l14 11t14.5 9.5t17.5 6q2 1 11.5 -3t11.5 -8z" />
    <glyph glyph-name="ecircumflex" unicode="&#xea;" 
d="M-19 52q0 24 13.5 54.5t32 58t38 46.5t32.5 21q14 -2 22 -17.5t8 -26.5q0 -12 -6.5 -25.5t-16 -26.5t-20 -24.5t-19.5 -19.5q-18 -17 -27.5 -22t-14 -6t-6 -2t-2.5 -9q-1 -12 1.5 -17.5t6 -8t8 -2.5h6.5q14 1 24.5 6.5t18 12.5t13 13.5t9.5 9.5q0 1 2.5 5t6 9t8 9t8.5 6
q11 0 15 -13q0 -6 -1 -8.5t-3 -4.5l-23 -22t-26 -22.5t-29.5 -18.5t-31.5 -9q-23 0 -35 17.5t-12 36.5zM85 186q-8 -8 -16.5 -20t-17 -26l-16 -27.5t-11.5 -23.5q9 9 20.5 22t20.5 26.5t15 26.5t5 22zM48 260q20 7 33 16.5t33 11.5h1h3q19 -6 29.5 -19t27.5 -24h1
q-17 0 -34.5 3t-28.5 14q-6 -3 -16.5 -4.5t-20.5 -2t-18 0.5t-11 4q-1 0 1 -0.5t0 0.5z" />
    <glyph glyph-name="edieresis" unicode="&#xeb;" 
d="M-19 52q0 24 13.5 54.5t32 58t38 46.5t32.5 21q14 -2 22 -17.5t8 -26.5q0 -12 -6.5 -25.5t-16 -26.5t-20 -24.5t-19.5 -19.5q-18 -17 -27.5 -22t-14 -6t-6 -2t-2.5 -9q-1 -12 1.5 -17.5t6 -8t8 -2.5h6.5q14 1 24.5 6.5t18 12.5t13 13.5t9.5 9.5q0 1 2.5 5t6 9t8 9t8.5 6
q11 0 15 -13q0 -6 -1 -8.5t-3 -4.5l-23 -22t-26 -22.5t-29.5 -18.5t-31.5 -9q-23 0 -35 17.5t-12 36.5zM85 186q-8 -8 -16.5 -20t-17 -26l-16 -27.5t-11.5 -23.5q9 9 20.5 22t20.5 26.5t15 26.5t5 22zM87 287q14 2 14 -15q0 -10 -8.5 -17t-14.5 -8q-6 0 -10 4.5t-5 9.5
q0 3 3.5 12t20.5 14zM138 287q14 2 14 -15q0 -10 -8.5 -17t-14.5 -8q-6 0 -10 4.5t-5 9.5q0 3 3.5 12t20.5 14z" />
    <glyph glyph-name="igrave" unicode="&#xec;" horiz-adv-x="104" 
d="M55 214q4 4 8 7.5t10 3.5q7 0 17.5 -8t10.5 -16q0 -6 -4 -10.5t-12 -14.5l-23 -30t-24 -35.5t-19 -36.5t-8 -32q0 -3 1.5 -9t9.5 -6q6 0 16 6.5t19.5 14.5t16.5 16.5t8 12.5l6.5 12.5t13.5 10.5q5 0 7.5 -4t2.5 -9q0 -6 -2 -9t-5 -6l-4 -4l-32 -33t-23 -20.5t-18 -11
t-17 -3.5t-15.5 5t-10.5 12.5t-6 16t-2 14.5q0 21 7.5 42.5t18.5 42.5t24 40.5l25 36.5zM63 277q2 4 11.5 8t11.5 3q10 -2 17.5 -6t14 -9.5t14 -11t16.5 -9.5q-2 0 -3.5 -0.5t-3.5 -0.5q-8 2 -15 2.5t-15 1.5q-12 2 -22.5 5.5t-21.5 8.5q-5 5 -4 8z" />
    <glyph glyph-name="iacute" unicode="&#xed;" horiz-adv-x="104" 
d="M55 214q4 4 8 7.5t10 3.5q7 0 17.5 -8t10.5 -16q0 -6 -4 -10.5t-12 -14.5l-23 -30t-24 -35.5t-19 -36.5t-8 -32q0 -3 1.5 -9t9.5 -6q6 0 16 6.5t19.5 14.5t16.5 16.5t8 12.5l6.5 12.5t13.5 10.5q5 0 7.5 -4t2.5 -9q0 -6 -2 -9t-5 -6l-4 -4l-32 -33t-23 -20.5t-18 -11
t-17 -3.5t-15.5 5t-10.5 12.5t-6 16t-2 14.5q0 21 7.5 42.5t18.5 42.5t24 40.5l25 36.5zM137 277q1 -3 -4 -8q-11 -5 -21.5 -8.5t-22.5 -5.5q-8 -1 -15 -1.5t-15 -2.5q-2 0 -3.5 0.5t-3.5 0.5q9 4 16 9.5l14 11t14.5 9.5t17.5 6q2 1 11.5 -3t11.5 -8z" />
    <glyph glyph-name="icircumflex" unicode="&#xee;" horiz-adv-x="104" 
d="M55 214q4 4 8 7.5t10 3.5q7 0 17.5 -8t10.5 -16q0 -6 -4 -10.5t-12 -14.5l-23 -30t-24 -35.5t-19 -36.5t-8 -32q0 -3 1.5 -9t9.5 -6q6 0 16 6.5t19.5 14.5t16.5 16.5t8 12.5l6.5 12.5t13.5 10.5q5 0 7.5 -4t2.5 -9q0 -6 -2 -9t-5 -6l-4 -4l-32 -33t-23 -20.5t-18 -11
t-17 -3.5t-15.5 5t-10.5 12.5t-6 16t-2 14.5q0 21 7.5 42.5t18.5 42.5t24 40.5l25 36.5zM37 260q20 7 33 16.5t33 11.5h1h3q19 -6 29.5 -19t27.5 -24h1q-17 0 -34.5 3t-28.5 14q-6 -3 -16.5 -4.5t-20.5 -2t-18 0.5t-11 4q-1 0 1 -0.5t0 0.5z" />
    <glyph glyph-name="idieresis" unicode="&#xef;" horiz-adv-x="104" 
d="M55 214q4 4 8 7.5t10 3.5q7 0 17.5 -8t10.5 -16q0 -6 -4 -10.5t-12 -14.5l-23 -30t-24 -35.5t-19 -36.5t-8 -32q0 -3 1.5 -9t9.5 -6q6 0 16 6.5t19.5 14.5t16.5 16.5t8 12.5l6.5 12.5t13.5 10.5q5 0 7.5 -4t2.5 -9q0 -6 -2 -9t-5 -6l-4 -4l-32 -33t-23 -20.5t-18 -11
t-17 -3.5t-15.5 5t-10.5 12.5t-6 16t-2 14.5q0 21 7.5 42.5t18.5 42.5t24 40.5l25 36.5zM83 287q14 2 14 -15q0 -10 -8.5 -17t-14.5 -8q-6 0 -10 4.5t-5 9.5q0 3 3.5 12t20.5 14zM134 287q14 2 14 -15q0 -10 -8.5 -17t-14.5 -8q-6 0 -10 4.5t-5 9.5q0 3 3.5 12t20.5 14z" />
    <glyph glyph-name="ntilde" unicode="&#xf1;" horiz-adv-x="167" 
d="M76 238q1 1 5 0t8.5 -3.5t8 -7t3.5 -11.5q0 -6 -6 -17t-14 -23t-17 -23.5l-15 -19.5l-6 -12q4 5 7.5 10t7.5 10l15 20.5l21 27.5t22 24.5t19 11.5q2 0 7 -1.5t10.5 -5t9.5 -8t4 -10.5q0 -5 -3.5 -8.5t-5.5 -6.5l-7 -9q-11 -14 -22 -32t-20 -37t-14.5 -36t-5.5 -30
q0 -21 9 -19.5t20 12t21.5 24l13.5 17.5q1 3 5 12.5t10 9.5q5 0 9 -4.5t4 -10.5q0 -3 -2 -6.5t-4 -5.5l-32 -34.5l-20 -22t-13.5 -12t-12.5 -3.5q-27 0 -35.5 17.5t-6.5 37.5q0 18 9 38t15 37l-12 -14q-17 -20 -31 -42l-30 -45q-1 -1 -3 -5.5t-5.5 -9t-8.5 -8.5t-11 -4
q-9 0 -13 4.5t-4 9.5q0 8 4.5 21t11.5 30l44 85.5t29.5 53t18 27t8.5 7.5zM169 277q6 0 14 -7.5t8 -14.5q0 -13 -10.5 -14.5t-24.5 2.5t-27 10.5t-18 9.5q-2 0 -4.5 1.5t-3.5 2.5h1q-3 2 -8.5 3t-8.5 2l-3 -3q1 -1 4 -1q5 -1 7.5 -4t2.5 -5t-1 -5t-9 -3q-6 0 -13 8.5
t-7 14.5q0 10 6.5 13t16.5 2q6 -1 13 -3.5t13 -5.5q1 0 2 -1t2 -1l13 -5l2 -2l11 -5q12 -6 23 -6h1q-1 0 -1 0.5t-1 0.5q-6 3 -7.5 4.5t-1.5 4.5q0 2 1 4.5t8 2.5z" />
    <glyph glyph-name="ograve" unicode="&#xf2;" horiz-adv-x="153" 
d="M116 98q-6 -11 -17 -27.5t-24 -32.5t-28 -27.5t-30 -11.5q-20 0 -26.5 20t-5.5 38q0 18 8.5 41t21 45.5t27.5 42t30 31.5q9 8 19.5 10.5t21.5 2.5q13 0 22.5 -12t8.5 -25q-4 -35 -10 -52t-6 -19l1 1l1.5 0.5t5 2t11.5 6.5h1q8 5 11.5 9.5t12.5 4.5q5 -1 7 -6t2 -8
q0 -8 -10 -13l-28.5 -12t-14.5 -5.5t-7 -2t-5 -1.5zM105 189q-7 -1 -14 -6.5t-13 -13l-12 -15.5t-10 -14q0 -11 10.5 -17t21.5 -6q1 5 5 15t7.5 21t5 21t-0.5 15zM21 23q6 0 14.5 9t17 20.5t15.5 23.5t11 18q-29 0 -41 15q0 1 -5.5 -9.5t-11 -25t-7 -29.5t6.5 -22zM85 277
q2 4 11.5 8t11.5 3q10 -2 17.5 -6t14 -9.5t14 -11t16.5 -9.5q-2 0 -3.5 -0.5t-3.5 -0.5q-8 2 -15 2.5t-15 1.5q-12 2 -22.5 5.5t-21.5 8.5q-5 5 -4 8z" />
    <glyph glyph-name="oacute" unicode="&#xf3;" horiz-adv-x="153" 
d="M116 98q-6 -11 -17 -27.5t-24 -32.5t-28 -27.5t-30 -11.5q-20 0 -26.5 20t-5.5 38q0 18 8.5 41t21 45.5t27.5 42t30 31.5q9 8 19.5 10.5t21.5 2.5q13 0 22.5 -12t8.5 -25q-4 -35 -10 -52t-6 -19l1 1l1.5 0.5t5 2t11.5 6.5h1q8 5 11.5 9.5t12.5 4.5q5 -1 7 -6t2 -8
q0 -8 -10 -13l-28.5 -12t-14.5 -5.5t-7 -2t-5 -1.5zM105 189q-7 -1 -14 -6.5t-13 -13l-12 -15.5t-10 -14q0 -11 10.5 -17t21.5 -6q1 5 5 15t7.5 21t5 21t-0.5 15zM21 23q6 0 14.5 9t17 20.5t15.5 23.5t11 18q-29 0 -41 15q0 1 -5.5 -9.5t-11 -25t-7 -29.5t6.5 -22zM173 277
q1 -3 -4 -8q-11 -5 -21.5 -8.5t-22.5 -5.5q-8 -1 -15 -1.5t-15 -2.5q-2 0 -3.5 0.5t-3.5 0.5q9 4 16 9.5l14 11t14.5 9.5t17.5 6q2 1 11.5 -3t11.5 -8z" />
    <glyph glyph-name="ocircumflex" unicode="&#xf4;" horiz-adv-x="153" 
d="M116 98q-6 -11 -17 -27.5t-24 -32.5t-28 -27.5t-30 -11.5q-20 0 -26.5 20t-5.5 38q0 18 8.5 41t21 45.5t27.5 42t30 31.5q9 8 19.5 10.5t21.5 2.5q13 0 22.5 -12t8.5 -25q-4 -35 -10 -52t-6 -19l1 1l1.5 0.5t5 2t11.5 6.5h1q8 5 11.5 9.5t12.5 4.5q5 -1 7 -6t2 -8
q0 -8 -10 -13l-28.5 -12t-14.5 -5.5t-7 -2t-5 -1.5zM105 189q-7 -1 -14 -6.5t-13 -13l-12 -15.5t-10 -14q0 -11 10.5 -17t21.5 -6q1 5 5 15t7.5 21t5 21t-0.5 15zM21 23q6 0 14.5 9t17 20.5t15.5 23.5t11 18q-29 0 -41 15q0 1 -5.5 -9.5t-11 -25t-7 -29.5t6.5 -22zM55 260
q20 7 33 16.5t33 11.5h1h3q19 -6 29.5 -19t27.5 -24h1q-17 0 -34.5 3t-28.5 14q-6 -3 -16.5 -4.5t-20.5 -2t-18 0.5t-11 4q-1 0 1 -0.5t0 0.5z" />
    <glyph glyph-name="otilde" unicode="&#xf5;" horiz-adv-x="153" 
d="M116 98q-6 -11 -17 -27.5t-24 -32.5t-28 -27.5t-30 -11.5q-20 0 -26.5 20t-5.5 38q0 18 8.5 41t21 45.5t27.5 42t30 31.5q9 8 19.5 10.5t21.5 2.5q13 0 22.5 -12t8.5 -25q-4 -35 -10 -52t-6 -19l1 1l1.5 0.5t5 2t11.5 6.5h1q8 5 11.5 9.5t12.5 4.5q5 -1 7 -6t2 -8
q0 -8 -10 -13l-28.5 -12t-14.5 -5.5t-7 -2t-5 -1.5zM105 189q-7 -1 -14 -6.5t-13 -13l-12 -15.5t-10 -14q0 -11 10.5 -17t21.5 -6q1 5 5 15t7.5 21t5 21t-0.5 15zM21 23q6 0 14.5 9t17 20.5t15.5 23.5t11 18q-29 0 -41 15q0 1 -5.5 -9.5t-11 -25t-7 -29.5t6.5 -22zM168 277
q6 0 14 -7.5t8 -14.5q0 -13 -10.5 -14.5t-24.5 2.5t-27 10.5t-18 9.5q-2 0 -4.5 1.5t-3.5 2.5h1q-3 2 -8.5 3t-8.5 2l-3 -3q1 -1 4 -1q5 -1 7.5 -4t2.5 -5t-1 -5t-9 -3q-6 0 -13 8.5t-7 14.5q0 10 6.5 13t16.5 2q6 -1 13 -3.5t13 -5.5q1 0 2 -1t2 -1l13 -5l2 -2l11 -5
q12 -6 23 -6h1q-1 0 -1 0.5t-1 0.5q-6 3 -7.5 4.5t-1.5 4.5q0 2 1 4.5t8 2.5z" />
    <glyph glyph-name="odieresis" unicode="&#xf6;" horiz-adv-x="153" 
d="M116 98q-6 -11 -17 -27.5t-24 -32.5t-28 -27.5t-30 -11.5q-20 0 -26.5 20t-5.5 38q0 18 8.5 41t21 45.5t27.5 42t30 31.5q9 8 19.5 10.5t21.5 2.5q13 0 22.5 -12t8.5 -25q-4 -35 -10 -52t-6 -19l1 1l1.5 0.5t5 2t11.5 6.5h1q8 5 11.5 9.5t12.5 4.5q5 -1 7 -6t2 -8
q0 -8 -10 -13l-28.5 -12t-14.5 -5.5t-7 -2t-5 -1.5zM105 189q-7 -1 -14 -6.5t-13 -13l-12 -15.5t-10 -14q0 -11 10.5 -17t21.5 -6q1 5 5 15t7.5 21t5 21t-0.5 15zM21 23q6 0 14.5 9t17 20.5t15.5 23.5t11 18q-29 0 -41 15q0 1 -5.5 -9.5t-11 -25t-7 -29.5t6.5 -22zM101 287
q14 2 14 -15q0 -10 -8.5 -17t-14.5 -8q-6 0 -10 4.5t-5 9.5q0 3 3.5 12t20.5 14zM152 287q14 2 14 -15q0 -10 -8.5 -17t-14.5 -8q-6 0 -10 4.5t-5 9.5q0 3 3.5 12t20.5 14z" />
    <glyph glyph-name="oslash" unicode="&#xf8;" horiz-adv-x="153" 
d="M116 98q-6 -10 -16.5 -26t-23 -31.5t-26.5 -27t-28 -13.5l-20 -42q-1 -2 -2 -4.5t-5 -1.5q-6 2 -5 7l14 43q-12 7 -16 23.5t-3 31.5q0 18 8.5 41t21 45.5t27.5 42t30 31.5q11 9 25 11q3 6 5 11.5l4 10.5q2 8 7 15q4 9 10.5 8t12.5 -6q11 -7 6 -17l-10 -18l-4 -7
q8 -5 12 -14.5t4 -17.5q-4 -35 -10 -52t-6 -19l1 1l1.5 0.5t5 2t11.5 6.5h1q8 5 11.5 9.5t12.5 4.5q5 -1 7 -6t2 -8q0 -8 -10 -13l-28.5 -12t-14.5 -5.5t-7 -2t-5 -1.5zM44 103l-3 3l-3 3q0 1 -4.5 -7.5t-9.5 -21t-8 -26t0 -23.5zM39 35q6 6 12 14.5t11 17l9.5 16t7.5 11.5
q-9 0 -13 1zM77 118q4 -1 11 -1q1 4 3.5 11.5l5.5 16.5t5.5 18t3.5 16zM57 133q2 5 4 9.5t4 9.5q-3 -3 -5 -6.5t-4 -5.5q0 -5 1 -7z" />
    <glyph glyph-name="ugrave" unicode="&#xf9;" horiz-adv-x="202" 
d="M209 98q7 -4 7 -13q0 -3 -2 -6.5t-4 -5.5q-18 -23 -31.5 -37t-24.5 -21.5t-19.5 -10.5t-16.5 -3h-7t-11 3t-11 10t-8 21l-25 -23t-29 -11q-6 0 -13 1t-13 5.5t-10.5 14t-6.5 26.5q-2 13 6 43t20.5 60.5t27 54t26.5 23.5q5 0 17 -8t12 -17q0 -5 -2 -7q-9 -9 -21.5 -28
t-23.5 -41.5t-19 -44.5t-8 -37v-3t1 -6.5t3.5 -6.5t7.5 -3q23 0 35.5 19t20.5 42l9 26.5t20 50.5t24.5 47.5t22.5 17.5q5 -2 17 -7.5t12 -14.5q0 -5 -3.5 -11t-5.5 -8q-11 -15 -23 -34.5t-22.5 -39.5t-17.5 -38.5t-7 -32.5q0 -7 3 -12t9 -5q21 0 35.5 18l27.5 33
q1 3 5.5 12.5t9.5 9.5q3 0 6 -2zM79 277q2 4 11.5 8t11.5 3q10 -2 17.5 -6t14 -9.5t14 -11t16.5 -9.5q-2 0 -3.5 -0.5t-3.5 -0.5q-8 2 -15 2.5t-15 1.5q-12 2 -22.5 5.5t-21.5 8.5q-5 5 -4 8z" />
    <glyph glyph-name="uacute" unicode="&#xfa;" horiz-adv-x="202" 
d="M209 98q7 -4 7 -13q0 -3 -2 -6.5t-4 -5.5q-18 -23 -31.5 -37t-24.5 -21.5t-19.5 -10.5t-16.5 -3h-7t-11 3t-11 10t-8 21l-25 -23t-29 -11q-6 0 -13 1t-13 5.5t-10.5 14t-6.5 26.5q-2 13 6 43t20.5 60.5t27 54t26.5 23.5q5 0 17 -8t12 -17q0 -5 -2 -7q-9 -9 -21.5 -28
t-23.5 -41.5t-19 -44.5t-8 -37v-3t1 -6.5t3.5 -6.5t7.5 -3q23 0 35.5 19t20.5 42l9 26.5t20 50.5t24.5 47.5t22.5 17.5q5 -2 17 -7.5t12 -14.5q0 -5 -3.5 -11t-5.5 -8q-11 -15 -23 -34.5t-22.5 -39.5t-17.5 -38.5t-7 -32.5q0 -7 3 -12t9 -5q21 0 35.5 18l27.5 33
q1 3 5.5 12.5t9.5 9.5q3 0 6 -2zM180 277q1 -3 -4 -8q-11 -5 -21.5 -8.5t-22.5 -5.5q-8 -1 -15 -1.5t-15 -2.5q-2 0 -3.5 0.5t-3.5 0.5q9 4 16 9.5l14 11t14.5 9.5t17.5 6q2 1 11.5 -3t11.5 -8z" />
    <glyph glyph-name="ucircumflex" unicode="&#xfb;" horiz-adv-x="202" 
d="M209 98q7 -4 7 -13q0 -3 -2 -6.5t-4 -5.5q-18 -23 -31.5 -37t-24.5 -21.5t-19.5 -10.5t-16.5 -3h-7t-11 3t-11 10t-8 21l-25 -23t-29 -11q-6 0 -13 1t-13 5.5t-10.5 14t-6.5 26.5q-2 13 6 43t20.5 60.5t27 54t26.5 23.5q5 0 17 -8t12 -17q0 -5 -2 -7q-9 -9 -21.5 -28
t-23.5 -41.5t-19 -44.5t-8 -37v-3t1 -6.5t3.5 -6.5t7.5 -3q23 0 35.5 19t20.5 42l9 26.5t20 50.5t24.5 47.5t22.5 17.5q5 -2 17 -7.5t12 -14.5q0 -5 -3.5 -11t-5.5 -8q-11 -15 -23 -34.5t-22.5 -39.5t-17.5 -38.5t-7 -32.5q0 -7 3 -12t9 -5q21 0 35.5 18l27.5 33
q1 3 5.5 12.5t9.5 9.5q3 0 6 -2zM61 260q20 7 33 16.5t33 11.5h1h3q19 -6 29.5 -19t27.5 -24h1q-17 0 -34.5 3t-28.5 14q-6 -3 -16.5 -4.5t-20.5 -2t-18 0.5t-11 4q-1 0 1 -0.5t0 0.5z" />
    <glyph glyph-name="udieresis" unicode="&#xfc;" horiz-adv-x="202" 
d="M209 98q7 -4 7 -13q0 -3 -2 -6.5t-4 -5.5q-18 -23 -31.5 -37t-24.5 -21.5t-19.5 -10.5t-16.5 -3h-7t-11 3t-11 10t-8 21l-25 -23t-29 -11q-6 0 -13 1t-13 5.5t-10.5 14t-6.5 26.5q-2 13 6 43t20.5 60.5t27 54t26.5 23.5q5 0 17 -8t12 -17q0 -5 -2 -7q-9 -9 -21.5 -28
t-23.5 -41.5t-19 -44.5t-8 -37v-3t1 -6.5t3.5 -6.5t7.5 -3q23 0 35.5 19t20.5 42l9 26.5t20 50.5t24.5 47.5t22.5 17.5q5 -2 17 -7.5t12 -14.5q0 -5 -3.5 -11t-5.5 -8q-11 -15 -23 -34.5t-22.5 -39.5t-17.5 -38.5t-7 -32.5q0 -7 3 -12t9 -5q21 0 35.5 18l27.5 33
q1 3 5.5 12.5t9.5 9.5q3 0 6 -2zM108 287q14 2 14 -15q0 -10 -8.5 -17t-14.5 -8q-6 0 -10 4.5t-5 9.5q0 3 3.5 12t20.5 14zM159 287q14 2 14 -15q0 -10 -8.5 -17t-14.5 -8q-6 0 -10 4.5t-5 9.5q0 3 3.5 12t20.5 14z" />
    <glyph glyph-name="yacute" unicode="&#xfd;" horiz-adv-x="181" 
d="M201 106q8 0 7 -11.5t-6 -16.5q-24 -44 -43 -60t-40 -18q-8 -1 -12.5 2l-7.5 5l-8.5 -29l-7 -23t-9 -23.5l-12.5 -28.5l-21 -40t-35.5 -59t-43 -53.5t-41.5 -23.5q-10 0 -18 5.5t-13.5 12t-8.5 12.5t-3 7q0 22 15.5 51t37 58.5t44.5 56l38 44.5l43 44q0 -3 -6 -6
t-13.5 -5.5t-16 -3t-12.5 2.5l-4 2t-8.5 7.5t-8.5 14.5t-4 23q0 36 19 73l45 89q0 1 3.5 6t13.5 5q9 0 17.5 -7.5t11.5 -14.5q0 -3 -4.5 -12t-11.5 -19.5l-14 -21.5l-12 -19q-11 -17 -22 -40t-11 -42q0 -5 2 -12t10 -7q14 0 26.5 10.5t21.5 20.5l16.5 42.5l22 55t23 47.5
t19.5 20q7 0 13 -4t9.5 -8.5t5.5 -8.5l2 -4q0 -5 -3.5 -8.5t-6.5 -7.5q-11 -15 -22.5 -34t-21 -38.5t-15.5 -38t-6 -33.5q0 -16 12 -16q10 0 17.5 6t13.5 15t11 19t10 18l6 14.5t17 7.5zM60 3q0 -1 -1.5 -2.5t-3.5 -4.5q-14 -16 -34.5 -43l-41 -56.5t-36.5 -58.5t-19 -50
q23 24 40 47t31.5 46.5t27.5 47l28 48.5q6 9 6.5 17.5t2.5 7.5v1zM168 277q1 -3 -4 -8q-11 -5 -21.5 -8.5t-22.5 -5.5q-8 -1 -15 -1.5t-15 -2.5q-2 0 -3.5 0.5t-3.5 0.5q9 4 16 9.5l14 11t14.5 9.5t17.5 6q2 1 11.5 -3t11.5 -8z" />
    <glyph glyph-name="ydieresis" unicode="&#xff;" horiz-adv-x="181" 
d="M201 106q8 0 7 -11.5t-6 -16.5q-24 -44 -43 -60t-40 -18q-8 -1 -12.5 2l-7.5 5l-8.5 -29l-7 -23t-9 -23.5l-12.5 -28.5l-21 -40t-35.5 -59t-43 -53.5t-41.5 -23.5q-10 0 -18 5.5t-13.5 12t-8.5 12.5t-3 7q0 22 15.5 51t37 58.5t44.5 56l38 44.5l43 44q0 -3 -6 -6
t-13.5 -5.5t-16 -3t-12.5 2.5l-4 2t-8.5 7.5t-8.5 14.5t-4 23q0 36 19 73l45 89q0 1 3.5 6t13.5 5q9 0 17.5 -7.5t11.5 -14.5q0 -3 -4.5 -12t-11.5 -19.5l-14 -21.5l-12 -19q-11 -17 -22 -40t-11 -42q0 -5 2 -12t10 -7q14 0 26.5 10.5t21.5 20.5l16.5 42.5l22 55t23 47.5
t19.5 20q7 0 13 -4t9.5 -8.5t5.5 -8.5l2 -4q0 -5 -3.5 -8.5t-6.5 -7.5q-11 -15 -22.5 -34t-21 -38.5t-15.5 -38t-6 -33.5q0 -16 12 -16q10 0 17.5 6t13.5 15t11 19t10 18l6 14.5t17 7.5zM60 3q0 -1 -1.5 -2.5t-3.5 -4.5q-14 -16 -34.5 -43l-41 -56.5t-36.5 -58.5t-19 -50
q23 24 40 47t31.5 46.5t27.5 47l28 48.5q6 9 6.5 17.5t2.5 7.5v1zM106 287q14 2 14 -15q0 -10 -8.5 -17t-14.5 -8q-6 0 -10 4.5t-5 9.5q0 3 3.5 12t20.5 14zM157 287q14 2 14 -15q0 -10 -8.5 -17t-14.5 -8q-6 0 -10 4.5t-5 9.5q0 3 3.5 12t20.5 14z" />
    <glyph glyph-name="AE" unicode="&#xc6;" horiz-adv-x="594" 
d="M321 -17q-12 8 -22 27.5t-10 51.5v11q-2 -3 -2.5 -6t-1.5 -5q-3 -9 -6 -20t0 -23t1.5 -23t-5.5 -15t-10.5 1t-12.5 26q-6 14 6.5 53.5t33.5 87.5q1 3 3 8t4 9.5t3.5 7.5l1.5 3l-30.5 -4l-31.5 -4l-71 -90t-65 -94q-7 -12 -15 -20q-6 -7 -11.5 -7t-10 3.5t-8 9t-6.5 8.5
q-6 7 -3.5 12.5t5.5 9.5q18 18 33 38l29.5 40.5t30.5 41t36 40.5q-37 -5 -73.5 -10.5l-72.5 -10.5q-14 -2 -20 1t-8 8t0 13l96.5 15.5l104.5 16.5l75 90.5l68.5 82.5l51 61.5t23.5 27.5q13 15 28 5l10 -6q8 -6 13 -11.5t-4 -18.5q-2 -3 -5 -7t-6 -9q27 13 57 21.5t57 13.5
t48.5 7t30.5 2q8 0 14.5 -10t6.5 -24q0 -11 -13.5 -13.5t-27.5 -2.5q-26 0 -57.5 -4.5t-62 -13t-56.5 -21.5t-41 -29q-5 -8 -9 -15.5l-8 -15.5q-1 -3 -1 -10q0 -8 6.5 -13t22.5 -9.5t42.5 -8.5l66.5 -10l19.5 -3.5t8.5 -7.5q0 -8 -10.5 -10.5t-13.5 -1.5q-10 3 -40 4
t-64.5 -6t-66.5 -25.5t-47 -55.5q-6 -14 -10 -34.5t-2 -40.5t12 -37t34 -24q29 -9 61.5 1.5t60.5 30.5q14 10 26 20t23 17q6 4 16 -1t18 -17q7 -12 -6.5 -21.5l-27.5 -18.5q-16 -10 -42 -23t-56 -22t-60 -9.5t-55 15.5zM391 361q1 1 -9.5 -11.5t-27.5 -35l-40 -52l-47 -61.5
q26 4 51 6l24 51l22 45.5l17 35.5t10 22zM355 209q17 14 40 21.5t52 7.5q-17 2 -34.5 8t-28.5 19z" />
    <glyph glyph-name="eth" unicode="&#xf0;" horiz-adv-x="161" 
d="M116 98q-6 -11 -17 -27.5t-24 -32.5t-28 -27.5t-30 -11.5q-20 0 -26.5 20t-5.5 38q0 18 8.5 41t21 45.5t27.5 42t30 31.5q9 7 18 10l-16 20l-17 -21.5t-12 -17.5q-7 -7 -18 5q-7 6 -5.5 8.5t3.5 4.5l34 41l-23 30q-4 6 -7.5 15.5t7.5 17.5q3 3 10 5q0 -6 2.5 -12t5.5 -12
l22 -27l12.5 14t9.5 10q3 3 6.5 6t7.5 5t9 1.5t10 -5.5l7 -8q-14 -5 -22 -14q-5 -4 -11.5 -11l-14.5 -16l17 -21l14 -17q10 -4 17 -14t6 -21q-4 -35 -10 -52t-6 -19l1 1l1.5 0.5t5 2t11.5 6.5h1q8 5 11.5 9.5t12.5 4.5q5 -1 7 -6t2 -8q0 -8 -10 -13l-28.5 -12t-14.5 -5.5
t-7 -2t-5 -1.5zM21 23q6 0 14.5 9t17 20.5t15.5 23.5t11 18q-29 0 -41 15q0 1 -5.5 -9.5t-11 -25t-7 -29.5t6.5 -22zM105 189q-7 -1 -14 -6.5t-13 -13l-12 -15.5t-10 -14q0 -11 10.5 -17t21.5 -6q1 5 5 15t7.5 21t5 21t-0.5 15z" />
    <glyph glyph-name="exclam" unicode="!" horiz-adv-x="276" 
d="M255 448q7 -5 12.5 -14.5t-0.5 -15.5q-14 -12 -20 -28l-40.5 -82.5l-41.5 -88l-41.5 -88l-39.5 -82.5q-2 -3 -4 -7.5t-8 -2.5q-10 1 -9 12l19 56t20 54l50 129l51 129q2 6 5.5 13.5l6.5 13.5q7 14 18 12t22 -10zM33 -1q14 5 26 -3.5t10 -22.5q-2 -13 -9 -23.5t-21 -15.5
q-16 -7 -26 1t-8 30q1 13 7 21t21 13z" />
    </font>
</defs>
</svg>
